<svg width="64" height="64" viewBox="0 0 64 64" fill="none" xmlns="http://www.w3.org/2000/svg">
<circle cx="32" cy="32" r="32" fill="#52C3FF"/>
<path fill-rule="evenodd" clip-rule="evenodd" d="M27.5651 19H37.4238C41.5298 19 43.9889 21.5369 44 25.7726V38.2274C44 42.4631 41.552 45 37.4349 45H33.7852C33.3171 44.9468 32.9629 44.5388 32.9629 44.053C32.9629 43.5672 33.3171 43.1592 33.7852 43.106H37.4238C40.5617 43.106 42.1418 41.4645 42.1418 38.2274V25.7726C42.1418 22.5355 40.5617 20.894 37.4238 20.894H27.5651C24.4272 20.894 22.836 22.5355 22.836 25.7726V38.2274C22.836 41.4645 24.4272 43.106 27.5651 43.106C28.0331 43.1592 28.3874 43.5672 28.3874 44.053C28.3874 44.5388 28.0331 44.9468 27.5651 45C23.4591 45 21 42.4631 21 38.2274V25.7726C21 21.5254 23.4591 19 27.5651 19ZM27.8878 27.4486H31.3928C31.8609 27.3953 32.2152 26.9873 32.2152 26.5015C32.2152 26.0158 31.8609 25.6078 31.3928 25.5545H27.8878C27.4197 25.6078 27.0654 26.0158 27.0654 26.5015C27.0654 26.9873 27.4197 27.3953 27.8878 27.4486ZM37.09 32.947H27.8878H27.8766C27.4086 32.8938 27.0543 32.4858 27.0543 32C27.0543 31.5142 27.4086 31.1062 27.8766 31.053H37.09C37.4421 31.0129 37.7854 31.1842 37.9736 31.4937C38.1618 31.8033 38.1618 32.1967 37.9736 32.5063C37.7854 32.8158 37.4421 32.9871 37.09 32.947ZM37.09 38.4455H27.8878H27.8766C27.3727 38.4455 26.9642 38.024 26.9642 37.5042C26.9642 36.9843 27.3727 36.5629 27.8766 36.5629H37.09C37.5939 36.5629 38.0024 36.9843 38.0024 37.5042C38.0024 38.024 37.5939 38.4455 37.09 38.4455Z" fill="white"/>
</svg>
