<svg width="178" height="137" viewBox="0 0 178 137" fill="none" xmlns="http://www.w3.org/2000/svg">
<path fill-rule="evenodd" clip-rule="evenodd" d="M175.225 85.6237C175.164 86.0825 175.125 86.6132 175.095 87.2296C175.032 87.8492 174.984 88.554 174.955 89.359C174.947 90.9701 174.824 92.9792 174.76 95.5217C174.689 94.0123 174.345 94.7649 174.286 93.699C174.215 95.6732 173.862 97.8468 173.399 99.7265C173.121 100.736 172.842 101.658 172.588 102.438C173.942 96.4279 174.315 89.9688 173.532 83.0885C171.635 66.4279 167.156 52.0914 160.176 40.3559C161.378 42.0979 162.52 43.8888 163.601 45.7212C164.421 45.7526 160.741 38.731 163.397 42.4832C164.53 44.3753 164.139 44.3634 164.222 44.8227C165.274 46.7394 166.345 48.6602 167.264 50.6504L166.709 52.9051C168.005 58.1672 169.605 62.0993 171.294 66.5322C172.955 70.9518 174.643 75.8979 175.252 82.8964C175.414 83.2621 175.561 83.5267 175.694 83.7137C175.507 84.1504 175.338 84.754 175.225 85.6237ZM157.184 35.702C155.983 33.9739 154.717 32.3145 153.393 30.7174C153.95 31.2599 154.514 31.8214 155.078 32.4332C155.886 33.4052 156.695 34.4876 157.416 35.7883C157.46 35.9055 157.349 35.8356 157.184 35.702ZM111.706 5.9651C111.957 5.58032 112.124 5.18989 113.786 5.24743C114.529 5.47295 115.448 5.79146 116.402 6.11151C116.877 6.2759 117.36 6.44389 117.833 6.60777C118.301 6.7886 118.753 6.9833 119.177 7.16311C120.869 7.88746 122.064 8.50752 121.581 8.63082C121.983 8.84915 122.404 9.04282 122.817 9.2478C119.287 7.9378 115.585 6.83946 111.706 5.9651ZM57.2528 152.736C55.3505 152.481 53.715 152.323 52.7599 152.261C51.521 151.696 51.1312 151.358 51.1618 151.135C53.1648 151.729 55.2353 152.268 57.3701 152.752C57.3322 152.746 57.2907 152.741 57.2528 152.736ZM39.8611 14.2777C31.5138 19.0204 24.4164 25.3757 18.6348 33.4037C18.6607 33.3641 18.6851 33.3235 18.7116 33.284L19.3661 32.2961L20.0684 31.338C20.5407 30.7004 21.0042 30.0521 21.4916 29.4187C22.5157 28.1935 23.4961 26.9127 24.6204 25.7486C26.7801 23.3372 29.2108 21.1277 31.7858 19.0707L33.7504 17.5589L35.7996 16.1502C36.4749 15.6663 37.1917 15.244 37.9028 14.8115C38.6201 14.3902 39.3114 13.9207 40.0558 13.542C42.9624 11.8997 46.0336 10.5439 49.152 9.32899C45.5099 10.828 42.4184 12.5834 39.8611 14.2777ZM177.829 91.4324C177.649 90.2082 177.419 89.039 177.204 87.6756C177.011 86.5341 176.725 85.2616 176.47 83.7081C176.629 83.3479 176.74 82.731 176.819 81.9778C177.024 79.9918 177.036 77.0928 177.197 75.6637L177.004 77.0939C176.733 76.2457 176.432 75.6364 176.163 74.7939C176.029 74.3732 175.902 73.8934 175.792 73.2959C175.666 72.7 175.544 71.988 175.445 71.0961C175.036 67.5067 176.413 72.889 176.281 70.379C175.47 64.673 174.353 61.4515 173.146 58.5284C172.516 57.0699 171.923 55.6633 171.152 54.0806C170.423 52.4849 169.603 50.6905 168.575 48.4429C165.625 40.06 161.26 34.0535 156.079 28.813C154.819 27.4671 153.39 26.2562 152.01 24.9668C150.543 23.7559 149.101 22.4762 147.491 21.2772C144.324 18.8303 140.857 16.327 136.772 13.7784C142.26 17.7325 147.638 22.5512 153.63 29.8379C152.722 28.8983 151.709 28.0553 150.761 27.1671C149.801 26.2896 148.756 25.4995 147.764 24.6693C147.767 24.6739 147.77 24.6775 147.773 24.6827C143.304 20.4136 138.286 16.7559 132.729 13.7373C132.945 13.841 133.164 13.9453 133.376 14.047C134.102 14.3871 134.803 14.7149 135.469 15.0262C136.776 15.6982 137.941 16.3234 138.894 16.8587C137.731 15.7973 136.157 14.4262 134.405 13.2297C133.544 12.606 132.668 11.9814 131.792 11.4435C130.927 10.8799 130.101 10.3426 129.36 9.8607C126.355 8.03082 124.806 6.74805 128.438 7.33164C126.383 6.29135 124.66 5.7057 123.224 5.16732C121.771 4.68031 120.55 4.39211 119.422 4.1224C118.293 3.85013 117.217 3.73351 116.057 3.53881C115.474 3.45353 114.872 3.34 114.213 3.25524C113.556 3.16739 112.849 3.07286 112.069 2.96858C110.55 2.50571 108.385 2.17333 106.533 1.81578C104.676 1.4834 103.116 1.22859 102.787 0.861794C96.949 0.868473 97.4613 0.913167 88.6826 0.000792008C87.1691 -0.0110237 85.6815 0.111756 84.3611 0.209364C83.0411 0.301321 81.8904 0.471364 81.0568 0.62394C79.3897 0.930633 78.9957 1.21575 81.0247 1.3447C86.5603 1.08732 92.1135 1.14332 97.6611 1.56919C101.541 2.54887 99.5784 2.87302 96.9957 3.07286C95.4956 3.22955 93.7864 3.36826 92.8194 3.53522C91.0012 3.45662 89.1576 3.41244 87.2807 3.41244C76.3366 3.41244 66.3211 4.64794 57.282 7.158C59.2938 6.38844 61.3373 5.67847 63.4109 5.03632C59.6109 5.81821 55.851 6.80404 52.1678 8.03904C53.0082 7.26588 54.7983 6.12798 55.2489 5.45449C55.4721 5.12057 55.3579 4.90789 54.6053 4.93049C54.2295 4.94179 53.6938 5.01166 52.9614 5.15602C52.2275 5.29524 51.2979 5.50997 50.155 5.88088C49.2731 6.30162 48.3824 6.67407 47.527 7.1282C46.6711 7.57206 45.8194 8.01489 44.9692 8.45567C43.3062 9.4076 41.6478 10.32 40.073 11.3633C36.8949 13.389 33.872 15.5769 31.0297 17.9904C28.1822 20.3931 25.4432 22.9324 22.8288 25.688C20.2237 28.4503 17.7038 31.3811 15.2129 34.5205C9.21478 43.4136 5.1574 53.6213 2.64937 64.2508C2.35819 65.5859 2.02496 66.916 1.77478 68.264C1.52772 69.6135 1.26301 70.959 1.03618 72.3209C0.84725 73.6971 0.627694 75.0713 0.4725 76.4574C0.356233 77.848 0.193772 79.2371 0.123701 80.637C-0.194473 86.2335 0.0910015 91.9261 1.09795 97.5509C1.3528 93.6928 2.20819 102.422 1.86198 95.3691C2.07012 96.2075 2.32964 96.9956 2.53467 97.8098C2.6011 98.0564 2.66079 98.3127 2.72204 98.566C3.16998 101.425 3.7866 104.242 4.58593 106.998C3.64646 105.289 3.30493 104.92 3.23538 105.423C3.20371 105.687 3.25925 106.186 3.36618 106.83C3.46998 107.474 3.69888 108.242 3.91117 109.074C4.73438 112.409 6.40726 116.424 5.1927 115.835C5.49167 116.454 5.76416 117.036 6.01227 117.588C6.25466 118.143 6.48564 118.661 6.73063 119.137C7.19829 120.1 7.57978 120.964 7.90522 121.767C8.61735 123.339 9.12602 124.658 9.66219 126.014C9.9596 126.674 10.2617 127.345 10.6048 128.059C10.9515 128.77 11.3133 129.545 11.8365 130.331C12.342 131.13 12.928 132.002 13.6329 132.974C14.3897 133.9 15.2751 134.919 16.321 136.057C17.8205 137.161 18.3193 137.288 18.1735 136.85C18.0339 136.404 17.2283 135.414 16.2914 134.076C14.2614 131.532 11.7768 127.618 10.8056 125.81C11.1539 126.253 11.5401 126.808 11.9455 127.421C12.3462 128.037 12.7702 128.708 13.2519 129.339C13.0931 129.065 12.9348 128.793 12.777 128.522C12.6332 128.243 12.5019 127.959 12.3706 127.681C12.1095 127.123 11.8671 126.576 11.6455 126.047C11.4306 125.514 11.2105 125.018 11.0641 124.519C10.9157 124.021 10.7906 123.552 10.6915 123.12C10.4594 122.128 10.3785 121.344 10.4594 120.846C13.9365 126.874 18.5052 132.389 24.2328 137.166C24.0273 137.516 23.8773 137.875 24.0221 138.357C24.1809 138.88 24.6709 139.576 25.8958 140.437C26.0604 140.735 26.3879 141.1 26.8374 141.514C27.2916 141.922 27.8459 142.412 28.5378 142.849C29.9049 143.747 31.5654 144.821 33.3379 145.687C34.2156 146.134 35.0736 146.618 35.9243 147.02C36.7797 147.414 37.591 147.798 38.3181 148.165C39.7606 148.929 40.9258 149.486 41.3899 149.995C42.1482 150.261 42.8909 150.531 43.6192 150.805C44.3469 151.083 45.0855 151.291 45.7976 151.543C47.2301 152.016 48.5926 152.563 49.9525 152.955C51.3047 153.374 52.6007 153.829 53.8661 154.212C55.1414 154.565 56.369 154.904 57.5472 155.231C58.7249 155.578 59.8782 155.777 60.9771 155.996C62.078 156.201 63.1306 156.382 64.138 156.493C66.1602 156.645 67.9888 156.609 69.6005 156.269C72.6249 157.124 75.693 158.025 78.8047 158.69C86.363 159.454 91.5078 158.675 96.8363 157.771C99.1731 156.894 90.9851 157.128 97.2791 155.756C98.4236 155.55 99.9724 155.315 101.511 155.107C103.047 154.866 104.582 154.708 105.718 154.725C106.388 155.064 103.456 155.764 102.801 155.981C108.841 154.962 113.968 154.24 118.815 153.5C123.652 152.743 128.191 151.91 132.823 150.471C133.556 150.142 134.306 149.804 135.071 149.46C135.826 149.092 136.595 148.717 137.374 148.336C138.95 147.612 140.506 146.727 142.107 145.898C145.251 144.125 148.428 142.228 151.259 140.103C152.709 139.093 154.026 137.967 155.302 136.912C156.563 135.84 157.69 134.715 158.753 133.687C159.755 132.59 160.683 131.568 161.46 130.594C162.207 129.59 162.841 128.67 163.333 127.855C162.472 128.772 161.629 129.705 160.752 130.601L158.03 133.192C159.947 131.232 160.831 130.165 161.139 129.468C161.469 128.791 161.323 128.573 161.217 128.334C161.11 128.095 161.043 127.838 161.516 127.098C161.756 126.731 162.13 126.243 162.649 125.531C162.913 125.18 163.225 124.781 163.591 124.327C163.955 123.871 164.391 123.372 164.822 122.76C165.517 121.879 166.097 121.168 166.581 120.6C167.048 120.019 167.392 119.563 167.688 119.238C168.269 118.581 168.576 118.398 168.754 118.447C169.11 118.543 168.937 119.58 169.44 119.523C170.848 117.339 172.193 114.152 173.347 111.073C173.6 110.29 173.851 109.515 174.094 108.762C174.333 108.009 174.606 107.291 174.779 106.584C175.153 105.179 175.592 103.949 175.911 102.97C175.645 104.421 175.548 104.867 175.679 104.786C175.785 104.7 176.083 104.08 176.341 103.344C176.828 101.869 177.37 99.9762 177.112 101.359C177.257 100.764 177.392 100.202 177.506 99.6685C177.584 99.1291 177.657 98.6205 177.726 98.1381C177.851 97.1718 177.945 96.3092 177.997 95.5206C178.015 93.9394 177.94 92.6582 177.829 91.4324Z" fill="#FFDFD6"/>
<mask id="mask0_5_5684" style="mask-type:luminance" maskUnits="userSpaceOnUse" x="0" y="0" width="178" height="159">
<path fill-rule="evenodd" clip-rule="evenodd" d="M175.225 85.6237C175.164 86.0825 175.125 86.6132 175.095 87.2296C175.032 87.8492 174.984 88.554 174.955 89.359C174.947 90.9701 174.824 92.9792 174.76 95.5217C174.689 94.0123 174.345 94.7649 174.286 93.699C174.215 95.6732 173.862 97.8468 173.399 99.7265C173.121 100.736 172.842 101.658 172.588 102.438C173.942 96.4279 174.315 89.9688 173.532 83.0885C171.635 66.4279 167.156 52.0914 160.176 40.3559C161.378 42.0979 162.52 43.8888 163.601 45.7212C164.421 45.7526 160.741 38.731 163.397 42.4832C164.53 44.3753 164.139 44.3634 164.222 44.8227C165.274 46.7394 166.345 48.6602 167.264 50.6504L166.709 52.9051C168.005 58.1672 169.605 62.0993 171.294 66.5322C172.955 70.9518 174.643 75.8979 175.252 82.8964C175.414 83.2621 175.561 83.5267 175.694 83.7137C175.507 84.1504 175.338 84.754 175.225 85.6237ZM157.184 35.702C155.983 33.9739 154.717 32.3145 153.393 30.7174C153.95 31.2599 154.514 31.8214 155.078 32.4332C155.886 33.4052 156.695 34.4876 157.416 35.7883C157.46 35.9055 157.349 35.8356 157.184 35.702ZM111.706 5.9651C111.957 5.58032 112.124 5.18989 113.786 5.24743C114.529 5.47295 115.448 5.79146 116.402 6.11151C116.877 6.2759 117.36 6.44389 117.833 6.60777C118.301 6.7886 118.753 6.9833 119.177 7.16311C120.869 7.88746 122.064 8.50752 121.581 8.63082C121.983 8.84915 122.404 9.04282 122.817 9.2478C119.287 7.9378 115.585 6.83946 111.706 5.9651ZM57.2528 152.736C55.3505 152.481 53.715 152.323 52.7599 152.261C51.521 151.696 51.1312 151.358 51.1618 151.135C53.1648 151.729 55.2353 152.268 57.3701 152.752C57.3322 152.746 57.2907 152.741 57.2528 152.736ZM39.8611 14.2777C31.5138 19.0204 24.4164 25.3757 18.6348 33.4037C18.6607 33.3641 18.6851 33.3235 18.7116 33.284L19.3661 32.2961L20.0684 31.338C20.5407 30.7004 21.0042 30.0521 21.4916 29.4187C22.5157 28.1935 23.4961 26.9127 24.6204 25.7486C26.7801 23.3372 29.2108 21.1277 31.7858 19.0707L33.7504 17.5589L35.7996 16.1502C36.4749 15.6663 37.1917 15.244 37.9028 14.8115C38.6201 14.3902 39.3114 13.9207 40.0558 13.542C42.9624 11.8997 46.0336 10.5439 49.152 9.32899C45.5099 10.828 42.4184 12.5834 39.8611 14.2777ZM177.829 91.4324C177.649 90.2082 177.419 89.039 177.204 87.6756C177.011 86.5341 176.725 85.2616 176.47 83.7081C176.629 83.3479 176.74 82.731 176.819 81.9778C177.024 79.9918 177.036 77.0928 177.197 75.6637L177.004 77.0939C176.733 76.2457 176.432 75.6364 176.163 74.7939C176.029 74.3732 175.902 73.8934 175.792 73.2959C175.666 72.7 175.544 71.988 175.445 71.0961C175.036 67.5067 176.413 72.889 176.281 70.379C175.47 64.673 174.353 61.4515 173.146 58.5284C172.516 57.0699 171.923 55.6633 171.152 54.0806C170.423 52.4849 169.603 50.6905 168.575 48.4429C165.625 40.06 161.26 34.0535 156.079 28.813C154.819 27.4671 153.39 26.2562 152.01 24.9668C150.543 23.7559 149.101 22.4762 147.491 21.2772C144.324 18.8303 140.857 16.327 136.772 13.7784C142.26 17.7325 147.638 22.5512 153.63 29.8379C152.722 28.8983 151.709 28.0553 150.761 27.1671C149.801 26.2896 148.756 25.4995 147.764 24.6693C147.767 24.6739 147.77 24.6775 147.773 24.6827C143.304 20.4136 138.286 16.7559 132.729 13.7373C132.945 13.841 133.164 13.9453 133.376 14.047C134.102 14.3871 134.803 14.7149 135.469 15.0262C136.776 15.6982 137.941 16.3234 138.894 16.8587C137.731 15.7973 136.157 14.4262 134.405 13.2297C133.544 12.606 132.668 11.9814 131.792 11.4435C130.927 10.8799 130.101 10.3426 129.36 9.8607C126.355 8.03082 124.806 6.74805 128.438 7.33164C126.383 6.29135 124.66 5.7057 123.224 5.16732C121.771 4.68031 120.55 4.39211 119.422 4.1224C118.293 3.85013 117.217 3.73351 116.057 3.53881C115.474 3.45353 114.872 3.34 114.213 3.25524C113.556 3.16739 112.849 3.07286 112.069 2.96858C110.55 2.50571 108.385 2.17333 106.533 1.81578C104.676 1.4834 103.116 1.22859 102.787 0.861794C96.949 0.868473 97.4613 0.913167 88.6826 0.000792008C87.1691 -0.0110237 85.6815 0.111756 84.3611 0.209364C83.0411 0.301321 81.8904 0.471364 81.0568 0.62394C79.3897 0.930633 78.9957 1.21575 81.0247 1.3447C86.5603 1.08732 92.1135 1.14332 97.6611 1.56919C101.541 2.54887 99.5784 2.87302 96.9957 3.07286C95.4956 3.22955 93.7864 3.36826 92.8194 3.53522C91.0012 3.45662 89.1576 3.41244 87.2807 3.41244C76.3366 3.41244 66.3211 4.64794 57.282 7.158C59.2938 6.38844 61.3373 5.67847 63.4109 5.03632C59.6109 5.81821 55.851 6.80404 52.1678 8.03904C53.0082 7.26588 54.7983 6.12798 55.2489 5.45449C55.4721 5.12057 55.3579 4.90789 54.6053 4.93049C54.2295 4.94179 53.6938 5.01166 52.9614 5.15602C52.2275 5.29524 51.2979 5.50997 50.155 5.88088C49.2731 6.30162 48.3824 6.67407 47.527 7.1282C46.6711 7.57206 45.8194 8.01489 44.9692 8.45567C43.3062 9.4076 41.6478 10.32 40.073 11.3633C36.8949 13.389 33.872 15.5769 31.0297 17.9904C28.1822 20.3931 25.4432 22.9324 22.8288 25.688C20.2237 28.4503 17.7038 31.3811 15.2129 34.5205C9.21478 43.4136 5.1574 53.6213 2.64937 64.2508C2.35819 65.5859 2.02496 66.916 1.77478 68.264C1.52772 69.6135 1.26301 70.959 1.03618 72.3209C0.84725 73.6971 0.627694 75.0713 0.4725 76.4574C0.356233 77.848 0.193772 79.2371 0.123701 80.637C-0.194473 86.2335 0.0910015 91.9261 1.09795 97.5509C1.3528 93.6928 2.20819 102.422 1.86198 95.3691C2.07012 96.2075 2.32964 96.9956 2.53467 97.8098C2.6011 98.0564 2.66079 98.3127 2.72204 98.566C3.16998 101.425 3.7866 104.242 4.58593 106.998C3.64646 105.289 3.30493 104.92 3.23538 105.423C3.20371 105.687 3.25925 106.186 3.36618 106.83C3.46998 107.474 3.69888 108.242 3.91117 109.074C4.73438 112.409 6.40726 116.424 5.1927 115.835C5.49167 116.454 5.76416 117.036 6.01227 117.588C6.25466 118.143 6.48564 118.661 6.73063 119.137C7.19829 120.1 7.57978 120.964 7.90522 121.767C8.61735 123.339 9.12602 124.658 9.66219 126.014C9.9596 126.674 10.2617 127.345 10.6048 128.059C10.9515 128.77 11.3133 129.545 11.8365 130.331C12.342 131.13 12.928 132.002 13.6329 132.974C14.3897 133.9 15.2751 134.919 16.321 136.057C17.8205 137.161 18.3193 137.288 18.1735 136.85C18.0339 136.404 17.2283 135.414 16.2914 134.076C14.2614 131.532 11.7768 127.618 10.8056 125.81C11.1539 126.253 11.5401 126.808 11.9455 127.421C12.3462 128.037 12.7702 128.708 13.2519 129.339C13.0931 129.065 12.9348 128.793 12.777 128.522C12.6332 128.243 12.5019 127.959 12.3706 127.681C12.1095 127.123 11.8671 126.576 11.6455 126.047C11.4306 125.514 11.2105 125.018 11.0641 124.519C10.9157 124.021 10.7906 123.552 10.6915 123.12C10.4594 122.128 10.3785 121.344 10.4594 120.846C13.9365 126.874 18.5052 132.389 24.2328 137.166C24.0273 137.516 23.8773 137.875 24.0221 138.357C24.1809 138.88 24.6709 139.576 25.8958 140.437C26.0604 140.735 26.3879 141.1 26.8374 141.514C27.2916 141.922 27.8459 142.412 28.5378 142.849C29.9049 143.747 31.5654 144.821 33.3379 145.687C34.2156 146.134 35.0736 146.618 35.9243 147.02C36.7797 147.414 37.591 147.798 38.3181 148.165C39.7606 148.929 40.9258 149.486 41.3899 149.995C42.1482 150.261 42.8909 150.531 43.6192 150.805C44.3469 151.083 45.0855 151.291 45.7976 151.543C47.2301 152.016 48.5926 152.563 49.9525 152.955C51.3047 153.374 52.6007 153.829 53.8661 154.212C55.1414 154.565 56.369 154.904 57.5472 155.231C58.7249 155.578 59.8782 155.777 60.9771 155.996C62.078 156.201 63.1306 156.382 64.138 156.493C66.1602 156.645 67.9888 156.609 69.6005 156.269C72.6249 157.124 75.693 158.025 78.8047 158.69C86.363 159.454 91.5078 158.675 96.8363 157.771C99.1731 156.894 90.9851 157.128 97.2791 155.756C98.4236 155.55 99.9724 155.315 101.511 155.107C103.047 154.866 104.582 154.708 105.718 154.725C106.388 155.064 103.456 155.764 102.801 155.981C108.841 154.962 113.968 154.24 118.815 153.5C123.652 152.743 128.191 151.91 132.823 150.471C133.556 150.142 134.306 149.804 135.071 149.46C135.826 149.092 136.595 148.717 137.374 148.336C138.95 147.612 140.506 146.727 142.107 145.898C145.251 144.125 148.428 142.228 151.259 140.103C152.709 139.093 154.026 137.967 155.302 136.912C156.563 135.84 157.69 134.715 158.753 133.687C159.755 132.59 160.683 131.568 161.46 130.594C162.207 129.59 162.841 128.67 163.333 127.855C162.472 128.772 161.629 129.705 160.752 130.601L158.03 133.192C159.947 131.232 160.831 130.165 161.139 129.468C161.469 128.791 161.323 128.573 161.217 128.334C161.11 128.095 161.043 127.838 161.516 127.098C161.756 126.731 162.13 126.243 162.649 125.531C162.913 125.18 163.225 124.781 163.591 124.327C163.955 123.871 164.391 123.372 164.822 122.76C165.517 121.879 166.097 121.168 166.581 120.6C167.048 120.019 167.392 119.563 167.688 119.238C168.269 118.581 168.576 118.398 168.754 118.447C169.11 118.543 168.937 119.58 169.44 119.523C170.848 117.339 172.193 114.152 173.347 111.073C173.6 110.29 173.851 109.515 174.094 108.762C174.333 108.009 174.606 107.291 174.779 106.584C175.153 105.179 175.592 103.949 175.911 102.97C175.645 104.421 175.548 104.867 175.679 104.786C175.785 104.7 176.083 104.08 176.341 103.344C176.828 101.869 177.37 99.9762 177.112 101.359C177.257 100.764 177.392 100.202 177.506 99.6685C177.584 99.1291 177.657 98.6205 177.726 98.1381C177.851 97.1718 177.945 96.3092 177.997 95.5206C178.015 93.9394 177.94 92.6582 177.829 91.4324Z" fill="white"/>
</mask>
<g mask="url(#mask0_5_5684)">
<rect x="-30.5381" y="-36.1324" width="236.122" height="235.42" rx="21.5788" fill="#FFDFD6"/>
<rect x="-69" y="-76" width="334" height="254" rx="80" fill="#FFDFD6"/>
</g>
<path fill-rule="evenodd" clip-rule="evenodd" d="M32.5738 75.2163L22.0201 85.6618L18.6904 82.3663L29.2442 71.9207L32.5738 75.2163ZM11.4663 75.2163L22.0201 64.7707L28.7432 71.425L18.1895 81.8706L11.4663 75.2163ZM42.2838 58.023L29.2439 70.9293L22.0198 63.7792L10.4643 75.2163L17.6884 82.3663L7.58203 92.3695L20.6433 105.297C20.7123 105.366 20.8031 105.4 20.8935 105.4C20.9843 105.4 21.0751 105.366 21.1436 105.297C21.2822 105.161 21.2822 104.939 21.1436 104.802L8.58327 92.3695L18.1892 82.8615L22.0198 86.6533L33.5753 75.2163L29.7442 71.425L42.7847 58.5187C42.9228 58.3815 42.9228 58.1596 42.7847 58.023C42.6461 57.8863 42.4224 57.8863 42.2838 58.023Z" fill="white"/>
<path fill-rule="evenodd" clip-rule="evenodd" d="M29.6459 113.217C29.5073 113.08 29.2836 113.08 29.1451 113.217C29.007 113.353 29.007 113.575 29.1451 113.712L42.2836 126.716C42.3522 126.785 42.443 126.819 42.5338 126.819C42.6247 126.819 42.715 126.785 42.784 126.716C42.9226 126.579 42.9226 126.357 42.784 126.22L29.6459 113.217Z" fill="white"/>
<path fill-rule="evenodd" clip-rule="evenodd" d="M112.347 33.279L102.669 23.6996L110.039 16.4047L121.704 27.9501L110.039 39.4966L98.374 27.9501L102.168 24.1953L111.846 33.7747C111.916 33.8431 112.006 33.8775 112.097 33.8775C112.187 33.8775 112.278 33.8431 112.347 33.7747C112.486 33.6376 112.486 33.4162 112.347 33.279ZM110.039 40.4876L122.706 27.9501L110.039 15.4137L102.168 23.2038L86.399 7.59637L76.1162 17.7733C75.9782 17.9104 75.9782 18.1323 76.1162 18.269C76.2548 18.4057 76.4791 18.4057 76.6171 18.269L86.399 8.58786L101.667 23.6996L97.3722 27.9501L110.039 40.4876Z" fill="white"/>
<path fill-rule="evenodd" clip-rule="evenodd" d="M109.731 128.607L102.327 121.279L109.731 113.951L117.136 121.279L109.731 128.607ZM101.326 121.279L109.732 129.599L118.137 121.279L109.732 112.96L101.326 121.279Z" fill="white"/>
<path fill-rule="evenodd" clip-rule="evenodd" d="M98.5547 156.065H45.4575C40.7005 156.065 36.8438 152.243 36.8438 147.528V30.6528C36.8438 25.9376 40.7005 22.1156 45.4575 22.1156H98.5547C103.312 22.1156 107.168 25.9376 107.168 30.6528V147.528C107.168 152.243 103.312 156.065 98.5547 156.065Z" fill="white"/>
<path fill-rule="evenodd" clip-rule="evenodd" d="M97.9806 25.5259H88.738C88.738 28.4788 86.3222 30.8722 83.3429 30.8722H60.795C57.8162 30.8722 55.4008 28.4788 55.4008 25.5259H46.1572C42.7955 25.5259 40.0693 28.2273 40.0693 31.5597V146.756C40.0693 150.088 42.7955 152.79 46.1572 152.79H97.9811C101.343 152.79 104.068 150.088 104.068 146.756V31.5597C104.068 28.2273 101.343 25.5259 97.9806 25.5259Z" fill="white"/>
<path fill-rule="evenodd" clip-rule="evenodd" d="M172.191 148.288H172.19C167.714 151.801 161.212 151.052 157.668 146.616L93.836 66.7187L85.9233 42.4354C85.4677 40.7198 86.5132 39.7834 88.0937 40.6165L110.046 53.9969L173.877 133.894C177.422 138.331 176.666 144.775 172.191 148.288Z" fill="white"/>
<mask id="mask1_5_5684" style="mask-type:alpha" maskUnits="userSpaceOnUse" x="85" y="40" width="92" height="111">
<path fill-rule="evenodd" clip-rule="evenodd" d="M96.2219 45.4642L87.9999 40.4602C86.4174 39.6273 85.3706 40.5635 85.8267 42.2786L88.8192 51.4471C89.6333 51.4487 91.0812 51.1335 93.1655 49.5006C95.3725 47.7711 96.0281 46.2688 96.2219 45.4642Z" fill="#5AE2E2"/>
<path fill-rule="evenodd" clip-rule="evenodd" d="M172.204 148.105C176.686 144.593 177.442 138.15 173.893 133.715L169.717 128.495C169.717 128.496 169.407 131.816 162.945 136.88C156.245 142.13 153.488 141.214 153.487 141.214L157.663 146.433C161.212 150.868 167.722 151.617 172.204 148.105Z" fill="#5AE2E2"/>
</mask>
<g mask="url(#mask1_5_5684)">
<rect x="-27.7422" y="-36.1323" width="233.97" height="234.887" rx="21.5788" fill="#5AE2E2"/>
</g>
<path fill-rule="evenodd" clip-rule="evenodd" d="M153.829 67.6645C153.829 67.6645 148.116 59.0212 143.978 55.2337C139.841 51.4463 135.773 50.5825 131.832 51.4565C131.355 51.5627 130.883 51.7248 130.42 51.9377C130.447 51.791 130.477 51.6237 130.511 51.4345C128.935 51.9454 126.052 52.9994 122.9 54.748C120.169 56.2621 117.118 58.8458 115.372 60.4128L121.504 68.0492C119.998 76.5689 119.643 90.7231 119.643 90.7231C119.643 90.7231 124.18 91.2433 132.848 91.3407C141.516 91.4377 146.722 91.0627 146.722 91.0627C146.722 91.0627 146.38 87.602 145.95 84.2126C145.359 79.5511 144.446 73.3354 144.446 73.3354C144.446 73.3354 145.062 73.1031 148.116 71.5489C151.169 69.9953 153.829 67.6645 153.829 67.6645Z" fill="#5AE2E2"/>
<mask id="mask2_5_5684" style="mask-type:luminance" maskUnits="userSpaceOnUse" x="115" y="51" width="39" height="41">
<path fill-rule="evenodd" clip-rule="evenodd" d="M153.829 67.6645C153.829 67.6645 148.116 59.0212 143.978 55.2337C139.841 51.4463 135.773 50.5825 131.832 51.4565C131.355 51.5627 130.883 51.7248 130.42 51.9377C130.447 51.791 130.477 51.6237 130.511 51.4345C128.935 51.9454 126.052 52.9994 122.9 54.748C120.169 56.2621 117.118 58.8458 115.372 60.4128L121.504 68.0492C119.998 76.5689 119.643 90.7231 119.643 90.7231C119.643 90.7231 124.18 91.2433 132.848 91.3407C141.516 91.4377 146.722 91.0627 146.722 91.0627C146.722 91.0627 146.38 87.602 145.95 84.2126C145.359 79.5511 144.446 73.3354 144.446 73.3354C144.446 73.3354 145.062 73.1031 148.116 71.5489C151.169 69.9953 153.829 67.6645 153.829 67.6645Z" fill="white"/>
</mask>
<g mask="url(#mask2_5_5684)">
<rect x="-27.7422" y="-37.3681" width="234.239" height="236.485" rx="21.5788" fill="#5AE2E2"/>
<rect x="-19" y="-17" width="302" height="198" rx="80" fill="#5AE2E2"/>
</g>
<path fill-rule="evenodd" clip-rule="evenodd" d="M145.21 115.934C144.962 110.17 145.022 96.5973 145.059 91.1245C143.002 91.2287 138.643 91.3939 132.564 91.3252C132.335 91.3226 132.116 91.319 131.893 91.3159V91.3154C125.838 91.2297 121.91 90.9392 120.276 90.7929C120.118 95.9994 119.98 105.952 120.738 116.128C121.837 130.896 123.565 146.314 123.565 146.314C123.565 146.314 126.548 146.625 129.06 146.47C131.572 146.314 132.986 145.848 132.986 145.848L133.295 133.895C134.991 140.279 136.44 145.508 136.44 145.508C136.44 145.508 137.696 146.44 141.779 146.285C145.862 146.129 147.118 144.575 147.118 144.575C147.118 144.575 145.524 123.24 145.21 115.934Z" fill="white"/>
<path fill-rule="evenodd" clip-rule="evenodd" d="M133.319 84.0219C133.319 84.0219 136.653 82.7711 138.057 82.7711H140.479L140.022 84.5778L137.39 84.6127C137.39 84.6127 133.003 85.4462 133.319 84.0219Z" fill="white"/>
<path fill-rule="evenodd" clip-rule="evenodd" d="M152.594 68.8611C152.594 68.8611 155.369 72.1274 157.023 75.7598C158.678 79.3926 157.527 80.6028 156.448 81.6001C155.369 82.5973 150.907 84.8054 146.159 86.515C142.748 87.7427 140.043 88.7231 140.043 88.7231C140.043 88.7231 137.36 89.3518 134.323 90.6965C134.052 90.8161 133.515 90.7987 133.4 90.5887C133.247 90.3095 133.303 89.9754 133.303 89.9754C133.303 89.9754 132.941 90.0262 132.708 89.5427C132.479 89.068 132.82 88.6851 132.82 88.6851C132.82 88.6851 132.428 88.3946 132.513 87.8274C132.582 87.3634 133.394 86.437 133.767 86.1055C135.858 84.2511 139.468 83.3811 139.468 83.3811C139.468 83.3811 142.202 81.5293 144.504 79.6061C146.077 78.2922 146.95 77.8251 146.95 77.8251L144.636 73.4357C144.636 73.4357 148.641 71.9109 152.594 68.8611Z" fill="white"/>
<path fill-rule="evenodd" clip-rule="evenodd" d="M138.904 40.622C137.675 40.3294 136.893 41.2851 136.893 41.2851C136.893 41.2851 138.077 39.0299 136.875 36.7238C135.673 34.4183 130.615 32.5721 128.592 34.9259C128.592 34.9259 126.543 39.81 127.879 43.992C128.888 47.148 129.94 47.5171 130.653 47.6526C130.636 48.3137 130.594 49.0856 130.498 49.8108C130.42 50.4088 130.071 52.3135 130.071 52.3135C130.071 52.3135 128.399 53.8948 133.444 54.2561C137.483 54.5456 137.811 52.0825 137.811 52.0825C137.811 52.0825 137.272 50.2522 137.305 48.6555C137.327 47.5771 137.4 46.0476 137.459 44.9334C137.837 45.0565 139.108 45.3434 139.837 43.9792C140.751 42.2685 139.848 40.8468 138.904 40.622Z" fill="white"/>
<path fill-rule="evenodd" clip-rule="evenodd" d="M61.3842 59.933H52.2519C51.02 59.933 50.022 58.945 50.022 57.7255V48.6845C50.022 47.4655 51.02 46.4775 52.2519 46.4775H61.3842C62.6156 46.4775 63.6141 47.4655 63.6141 48.6845V57.7255C63.6141 58.945 62.6156 59.933 61.3842 59.933Z" fill="white"/>
<path fill-rule="evenodd" clip-rule="evenodd" d="M61.3842 85.0527H52.2519C51.02 85.0527 50.022 84.0647 50.022 82.8452V73.8042C50.022 72.5852 51.02 71.5972 52.2519 71.5972H61.3842C62.6156 71.5972 63.6141 72.5852 63.6141 73.8042V82.8452C63.6141 84.0647 62.6156 85.0527 61.3842 85.0527Z" fill="white"/>
<path fill-rule="evenodd" clip-rule="evenodd" d="M61.3842 110.173H52.2519C51.02 110.173 50.022 109.185 50.022 107.966V98.9242C50.022 97.7052 51.02 96.7172 52.2519 96.7172H61.3842C62.6156 96.7172 63.6141 97.7052 63.6141 98.9242V107.966C63.6141 109.185 62.6156 110.173 61.3842 110.173Z" fill="white"/>
<path fill-rule="evenodd" clip-rule="evenodd" d="M61.3842 135.292H52.2519C51.02 135.292 50.022 134.304 50.022 133.085V124.044C50.022 122.825 51.02 121.837 52.2519 121.837H61.3842C62.6156 121.837 63.6141 122.825 63.6141 124.044V133.085C63.6141 134.304 62.6156 135.292 61.3842 135.292Z" fill="white"/>
<path fill-rule="evenodd" clip-rule="evenodd" d="M100.641 75.2678C100.641 75.2678 99.6683 75.6024 100.611 77.2761C100.765 77.5487 101.38 78.2903 101.38 78.2903C101.38 78.2903 101.187 78.7425 101.58 79.2517C102.028 79.8316 102.66 79.9774 102.66 79.9774C102.66 79.9774 102.624 80.8089 103.416 81.1271C105.005 81.7646 107.907 80.2356 108.645 79.5283C108.975 79.2106 109.632 78.7517 109.707 78.1476C109.783 77.5317 109.481 77.2905 109.481 77.2905C109.481 77.2905 109.839 76.7932 109.537 76.1701C109.275 75.6291 108.636 75.858 108.636 75.858C108.636 75.858 108.3 75.4212 107.893 75.3668C106.256 75.1461 104.45 76.1716 102.972 76.4139C101.404 76.6715 100.641 75.2678 100.641 75.2678Z" fill="white"/>
<mask id="mask3_5_5684" style="mask-type:alpha" maskUnits="userSpaceOnUse" x="52" y="49" width="9" height="84">
<path fill-rule="evenodd" clip-rule="evenodd" d="M60.8293 53.2532C60.8293 55.3971 59.0606 57.1347 56.8795 57.1347C54.6979 57.1347 52.9292 55.3971 52.9292 53.2532C52.9292 51.1093 54.6979 49.3717 56.8795 49.3717C59.0606 49.3717 60.8293 51.1093 60.8293 53.2532Z" fill="#5AE2E2"/>
<path fill-rule="evenodd" clip-rule="evenodd" d="M60.8293 78.3612C60.8293 80.5051 59.0606 82.2427 56.8795 82.2427C54.6979 82.2427 52.9292 80.5051 52.9292 78.3612C52.9292 76.2173 54.6979 74.4797 56.8795 74.4797C59.0606 74.4797 60.8293 76.2173 60.8293 78.3612Z" fill="#5AE2E2"/>
<path fill-rule="evenodd" clip-rule="evenodd" d="M60.8293 103.47C60.8293 105.614 59.0606 107.351 56.8795 107.351C54.6979 107.351 52.9292 105.614 52.9292 103.47C52.9292 101.326 54.6979 99.5884 56.8795 99.5884C59.0606 99.5884 60.8293 101.326 60.8293 103.47Z" fill="#5AE2E2"/>
<path fill-rule="evenodd" clip-rule="evenodd" d="M60.8293 128.578C60.8293 130.722 59.0606 132.459 56.8795 132.459C54.6979 132.459 52.9292 130.722 52.9292 128.578C52.9292 126.434 54.6979 124.696 56.8795 124.696C59.0606 124.696 60.8293 126.434 60.8293 128.578Z" fill="#5AE2E2"/>
</mask>
<g mask="url(#mask3_5_5684)">
<rect x="-27.7422" y="-36.1324" width="231.819" height="229.827" rx="21.5788" fill="#5AE2E2"/>
</g>
<mask id="mask4_5_5684" style="mask-type:alpha" maskUnits="userSpaceOnUse" x="36" y="21" width="141" height="136">
<path fill-rule="evenodd" clip-rule="evenodd" d="M81.2456 22.5145H84.6404C84.8361 22.5145 84.9949 22.3579 84.9949 22.1638C84.9949 21.9702 84.8361 21.8136 84.6404 21.8136H81.2456C81.0494 21.8136 80.8911 21.9702 80.8911 22.1638C80.8911 22.3579 81.0494 22.5145 81.2456 22.5145Z" fill="#393F49"/>
<path fill-rule="evenodd" clip-rule="evenodd" d="M60.783 30.4894C58.0032 30.4894 55.7408 28.2517 55.7408 25.5016V25.1509H46.1413C42.5881 25.1509 39.6973 28.0109 39.6973 31.526V38.0321C39.6973 38.2256 39.8561 38.3822 40.0517 38.3822C40.2474 38.3822 40.4057 38.2256 40.4057 38.0321V31.526C40.4057 28.397 42.9784 25.8518 46.1413 25.8518H55.0438C55.2275 28.8263 57.7307 31.1902 60.783 31.1902H83.337C86.3893 31.1902 88.8929 28.8263 89.0761 25.8518H97.9787C101.142 25.8518 103.715 28.397 103.715 31.526V41.4548C103.715 41.6483 103.873 41.8055 104.068 41.8055C104.264 41.8055 104.423 41.6483 104.423 41.4548V31.526C104.423 28.0109 101.532 25.1509 97.9787 25.1509H88.3791V25.5016C88.3791 28.2517 86.1173 30.4894 83.337 30.4894H60.783Z" fill="#393F49"/>
<path fill-rule="evenodd" clip-rule="evenodd" d="M66.6099 152.568C66.6099 152.762 66.7682 152.918 66.9638 152.918H97.9782C101.531 152.918 104.422 150.058 104.422 146.543V90.2855C104.422 90.092 104.264 89.9354 104.068 89.9354C103.873 89.9354 103.714 90.092 103.714 90.2855V146.543C103.714 149.672 101.141 152.217 97.9782 152.217H66.9638C66.7682 152.217 66.6099 152.374 66.6099 152.568Z" fill="#393F49"/>
<path fill-rule="evenodd" clip-rule="evenodd" d="M40.0513 58.6747C39.8556 58.6747 39.6968 58.8313 39.6968 59.0249V146.543C39.6968 150.058 42.5882 152.918 46.1408 152.918H51.2987C51.4943 152.918 51.6526 152.762 51.6526 152.568C51.6526 152.374 51.4943 152.217 51.2987 152.217H46.1408C42.9785 152.217 40.4057 149.672 40.4057 146.543V59.0249C40.4057 58.8313 40.2469 58.6747 40.0513 58.6747Z" fill="#393F49"/>
<path fill-rule="evenodd" clip-rule="evenodd" d="M63.3129 56.9779C63.3129 58.4458 62.1057 59.6406 60.6208 59.6406H53.1066C51.6228 59.6406 50.4146 58.4458 50.4146 56.9779V49.5435C50.4146 48.075 51.6228 46.8802 53.1066 46.8802H60.6208C62.1057 46.8802 63.3129 48.075 63.3129 49.5435V56.9779ZM64.0213 49.5435C64.0213 47.6889 62.4969 46.1793 60.6212 46.1793H53.107C51.2324 46.1793 49.707 47.6889 49.707 49.5435V56.9778C49.707 58.8325 51.2324 60.341 53.107 60.341H60.6212C62.4969 60.341 64.0213 58.8325 64.0213 56.9778V49.5435Z" fill="#393F49"/>
<path fill-rule="evenodd" clip-rule="evenodd" d="M68.7656 48.4772H82.1866C82.3823 48.4772 82.5411 48.3206 82.5411 48.1271C82.5411 47.933 82.3823 47.7764 82.1866 47.7764H68.7656C68.5699 47.7764 68.4116 47.933 68.4116 48.1271C68.4116 48.3206 68.5699 48.4772 68.7656 48.4772Z" fill="#393F49"/>
<path fill-rule="evenodd" clip-rule="evenodd" d="M83.5614 53.2487H68.7656C68.5699 53.2487 68.4121 53.4053 68.4121 53.5989C68.4121 53.7925 68.5699 53.9491 68.7656 53.9491H83.5614C83.7571 53.9491 83.9154 53.7925 83.9154 53.5989C83.9154 53.4053 83.7571 53.2487 83.5614 53.2487Z" fill="#393F49"/>
<path fill-rule="evenodd" clip-rule="evenodd" d="M63.3129 82.1071C63.3129 83.5756 62.1057 84.7704 60.6208 84.7704H53.1066C51.6228 84.7704 50.4146 83.5756 50.4146 82.1071V74.6728C50.4146 73.2043 51.6228 72.01 53.1066 72.01H60.6208C62.1057 72.01 63.3129 73.2043 63.3129 74.6728V82.1071ZM64.0213 74.6728C64.0213 72.8182 62.4969 71.3091 60.6212 71.3091H53.107C51.2324 71.3091 49.707 72.8182 49.707 74.6728V82.1072C49.707 83.9618 51.2324 85.4708 53.107 85.4708H60.6212C62.4969 85.4708 64.0213 83.9618 64.0213 82.1072V74.6728Z" fill="#393F49"/>
<path fill-rule="evenodd" clip-rule="evenodd" d="M90.6931 72.9061H68.7656C68.5699 72.9061 68.4116 73.0627 68.4116 73.2562C68.4116 73.4498 68.5699 73.6064 68.7656 73.6064H90.6931C90.8888 73.6064 91.0476 73.4498 91.0476 73.2562C91.0476 73.0627 90.8888 72.9061 90.6931 72.9061Z" fill="#393F49"/>
<path fill-rule="evenodd" clip-rule="evenodd" d="M68.7656 79.0789H84.5751C84.7707 79.0789 84.9296 78.9223 84.9296 78.7282C84.9296 78.5346 84.7707 78.378 84.5751 78.378H68.7656C68.5699 78.378 68.4116 78.5346 68.4116 78.7282C68.4116 78.9223 68.5699 79.0789 68.7656 79.0789Z" fill="#393F49"/>
<path fill-rule="evenodd" clip-rule="evenodd" d="M63.3129 107.237C63.3129 108.705 62.1057 109.9 60.6208 109.9H53.1066C51.6228 109.9 50.4146 108.705 50.4146 107.237V99.8024C50.4146 98.3344 51.6228 97.1396 53.1066 97.1396H60.6208C62.1057 97.1396 63.3129 98.3344 63.3129 99.8024V107.237ZM64.0213 99.8024C64.0213 97.9483 62.4969 96.4392 60.6212 96.4392H53.107C51.2324 96.4392 49.707 97.9483 49.707 99.8024V107.237C49.707 109.092 51.2324 110.6 53.107 110.6H60.6212C62.4969 110.6 64.0213 109.092 64.0213 107.237V99.8024Z" fill="#393F49"/>
<path fill-rule="evenodd" clip-rule="evenodd" d="M92.8179 98.0361H68.7656C68.5699 98.0361 68.4121 98.1927 68.4121 98.3863C68.4121 98.5799 68.5699 98.7365 68.7656 98.7365H92.8179C93.0136 98.7365 93.1724 98.5799 93.1724 98.3863C93.1724 98.1927 93.0136 98.0361 92.8179 98.0361Z" fill="#393F49"/>
<path fill-rule="evenodd" clip-rule="evenodd" d="M68.7656 104.208H92.6913C92.887 104.208 93.0453 104.052 93.0453 103.858C93.0453 103.665 92.887 103.508 92.6913 103.508H68.7656C68.5699 103.508 68.4116 103.665 68.4116 103.858C68.4116 104.052 68.5699 104.208 68.7656 104.208Z" fill="#393F49"/>
<path fill-rule="evenodd" clip-rule="evenodd" d="M50.415 132.367V124.932C50.415 123.464 51.6228 122.269 53.1071 122.269H60.6213C62.1057 122.269 63.3134 123.464 63.3134 124.932V132.367C63.3134 133.835 62.1057 135.03 60.6213 135.03H53.1071C51.6228 135.03 50.415 133.835 50.415 132.367ZM60.6217 135.73C62.4969 135.73 64.0217 134.222 64.0217 132.367V124.932C64.0217 123.078 62.4969 121.569 60.6217 121.569H53.1075C51.2324 121.569 49.7075 123.078 49.7075 124.932V132.367C49.7075 134.222 51.2324 135.73 53.1075 135.73H60.6217Z" fill="#393F49"/>
<path fill-rule="evenodd" clip-rule="evenodd" d="M68.7656 123.866H92.8179C93.0136 123.866 93.1719 123.71 93.1719 123.516C93.1719 123.322 93.0136 123.166 92.8179 123.166H68.7656C68.5699 123.166 68.4116 123.322 68.4116 123.516C68.4116 123.71 68.5699 123.866 68.7656 123.866Z" fill="#393F49"/>
<path fill-rule="evenodd" clip-rule="evenodd" d="M68.7656 129.338H79.9746C80.1703 129.338 80.328 129.182 80.328 128.988C80.328 128.794 80.1703 128.637 79.9746 128.637H68.7656C68.5699 128.637 68.4116 128.794 68.4116 128.988C68.4116 129.182 68.5699 129.338 68.7656 129.338Z" fill="#393F49"/>
<path fill-rule="evenodd" clip-rule="evenodd" d="M92.8197 128.638H82.7671C82.5714 128.638 82.4126 128.794 82.4126 128.988C82.4126 129.182 82.5714 129.338 82.7671 129.338H92.8197C93.0154 129.338 93.1742 129.182 93.1742 128.988C93.1742 128.794 93.0154 128.638 92.8197 128.638Z" fill="#393F49"/>
<path fill-rule="evenodd" clip-rule="evenodd" d="M133.12 40.7929C133.163 40.4663 132.993 40.1752 132.74 40.1418C132.486 40.109 132.245 40.3467 132.202 40.6733C132.158 40.9993 132.329 41.2909 132.582 41.3238C132.835 41.3572 133.076 41.1195 133.12 40.7929Z" fill="#393F49"/>
<path fill-rule="evenodd" clip-rule="evenodd" d="M129.133 40.0463C128.905 40.0108 128.678 40.2455 128.626 40.571C128.575 40.896 128.718 41.1887 128.946 41.2241C129.174 41.2596 129.401 41.0249 129.452 40.6994C129.504 40.3744 129.361 40.0817 129.133 40.0463Z" fill="#393F49"/>
<path fill-rule="evenodd" clip-rule="evenodd" d="M130.479 42.3223C130.716 41.8976 130.926 41.3919 130.935 41.3708C131.009 41.1916 130.922 40.9873 130.742 40.9138C130.564 40.8404 130.353 40.9262 130.279 41.1054C130.277 41.11 130.076 41.5947 129.859 41.9829L129.776 42.1251C129.621 42.3921 129.459 42.6673 129.547 42.9615C129.599 43.131 129.721 43.2645 129.911 43.3594C130.089 43.4478 130.304 43.4739 130.496 43.4739C130.719 43.4739 130.909 43.4385 130.967 43.4262C131.158 43.3867 131.281 43.2013 131.241 43.0123C131.202 42.8229 131.012 42.7022 130.823 42.7402C130.667 42.7726 130.406 42.7885 130.249 42.7366C130.279 42.6642 130.344 42.5554 130.389 42.4763L130.479 42.3223Z" fill="#393F49"/>
<path fill-rule="evenodd" clip-rule="evenodd" d="M133.755 38.5709C133.691 38.5339 133.108 38.2197 132.203 38.461C132.014 38.5113 131.903 38.7038 131.954 38.8907C132.004 39.0766 132.201 39.1885 132.387 39.1377C133.003 38.9729 133.379 39.1665 133.4 39.1778C133.456 39.2091 133.516 39.2235 133.576 39.2235C133.697 39.2235 133.815 39.1618 133.881 39.0504C133.98 38.883 133.923 38.6689 133.755 38.5709Z" fill="#393F49"/>
<path fill-rule="evenodd" clip-rule="evenodd" d="M130.63 45.2352C130.934 45.32 131.217 45.3564 131.479 45.3564C132.624 45.3564 133.367 44.6576 133.633 44.2068C133.731 44.0404 133.674 43.8278 133.507 43.7298C133.337 43.6307 133.122 43.6872 133.022 43.852C132.994 43.8987 132.322 44.9806 130.823 44.5606C130.632 44.5077 130.439 44.6165 130.385 44.8029C130.332 44.9893 130.442 45.1823 130.63 45.2352Z" fill="#393F49"/>
<path fill-rule="evenodd" clip-rule="evenodd" d="M129.338 50.7308C130.343 50.6312 130.668 49.9016 130.784 49.3039L131.017 48.0906C131.164 48.1096 131.312 48.1286 131.476 48.1286C132.66 48.1286 134.247 47.6044 135.713 46.104C135.849 45.9649 135.845 45.7436 135.705 45.6086C135.563 45.4745 135.339 45.4792 135.204 45.6173C133.66 47.1967 131.971 47.5581 130.976 47.3856C130.328 47.2732 129.349 47.1032 128.336 43.9378C127.865 42.4605 127.837 40.8832 127.987 39.4738C128.002 39.4753 128.016 39.4835 128.031 39.4835C128.105 39.4835 128.179 39.4609 128.242 39.4142C128.589 39.1575 129.067 39.2766 129.079 39.2797C129.268 39.3315 129.46 39.2206 129.512 39.0353C129.564 38.8489 129.455 38.6558 129.266 38.604C129.238 38.5968 128.653 38.4443 128.088 38.6979C128.104 38.5968 128.118 38.4931 128.136 38.395C128.391 37.9873 129.007 37.0374 129.775 36.0654C130.79 34.7787 131.174 34.5918 131.174 34.5918C131.174 34.5918 132.404 35.9309 133.753 37.7973C135.51 40.2291 136.127 42.4698 137.231 41.6246C137.397 41.4968 137.511 41.3848 137.607 41.2852C137.892 41.085 138.357 40.8699 138.952 41.0131C139.304 41.0963 139.638 41.4044 139.827 41.8172C139.987 42.1663 140.176 42.8965 139.656 43.8669C138.972 45.147 137.756 44.6818 137.616 44.6232C137.438 44.5472 137.23 44.6284 137.151 44.805C137.136 44.8389 137.133 44.8743 137.129 44.9092C136.867 45.283 136.048 46.5903 135.841 48.6015C135.661 50.3662 135.936 51.0733 140.001 51.2289C141.987 51.3048 144.288 50.7945 145.652 49.976C146.785 49.2967 146.785 48.8952 145.533 46.5995C144.668 45.0119 143.24 41.258 141.908 37.0538C140.697 33.2322 139.567 32.0584 136.126 31.3842C133.177 30.8071 131.422 32.4173 131.422 32.4173C131.422 32.4173 130.663 32.177 129.958 32.5405C128.526 33.2799 128.059 34.235 127.499 36.2985C126.038 41.676 124.612 44.0512 123.638 46.1256C122.61 48.3129 122.212 49.3239 122.803 49.786C123.939 50.6733 128.78 50.7857 129.338 50.7308Z" fill="#393F49"/>
<path fill-rule="evenodd" clip-rule="evenodd" d="M137.624 43.2295C137.441 43.1674 137.239 43.2644 137.176 43.4467C137.112 43.6295 137.21 43.8292 137.395 43.8924C137.415 43.8991 137.678 43.9864 138.01 43.9864C138.302 43.9864 138.648 43.9181 138.929 43.667C139.572 43.0899 139.371 42.1841 139.363 42.1456C139.32 41.9572 139.13 41.8422 138.941 41.8832C138.75 41.9248 138.63 42.1117 138.672 42.3002C138.673 42.3058 138.787 42.8485 138.453 43.1479C138.176 43.399 137.635 43.2336 137.624 43.2295Z" fill="#393F49"/>
<path fill-rule="evenodd" clip-rule="evenodd" d="M162.739 136.587C161.995 137.171 161.258 137.708 160.551 138.184C160.389 138.293 160.348 138.51 160.457 138.671C160.526 138.77 160.637 138.824 160.75 138.824C160.819 138.824 160.889 138.804 160.949 138.763C161.671 138.277 162.422 137.731 163.179 137.135C163.333 137.016 163.358 136.796 163.236 136.644C163.115 136.491 162.892 136.466 162.739 136.587Z" fill="#393F49"/>
<path fill-rule="evenodd" clip-rule="evenodd" d="M130.284 52.6124C130.205 52.4363 129.998 52.3572 129.82 52.4317C129.64 52.5077 129.557 52.7141 129.634 52.8917C129.668 52.9688 130.454 54.6955 133.588 54.6955C133.741 54.6955 133.901 54.6914 134.066 54.6827C136.879 54.5343 138.082 53.4067 138.132 53.359C138.272 53.225 138.274 53.0052 138.14 52.8661C138.005 52.7274 137.783 52.7223 137.64 52.8553C137.629 52.865 136.551 53.8504 134.029 53.9828C131.011 54.1451 130.315 52.6792 130.284 52.6124Z" fill="#393F49"/>
<path fill-rule="evenodd" clip-rule="evenodd" d="M171.989 147.798C171.719 148.01 171.441 148.205 171.157 148.384C171.03 148.464 170.897 148.53 170.768 148.604C170.608 148.695 170.45 148.793 170.288 148.874C166.145 150.943 160.952 149.923 157.96 146.184L154.287 141.596C154.959 141.564 155.95 141.371 157.245 140.825C157.425 140.749 157.509 140.544 157.432 140.365C157.355 140.188 157.148 140.106 156.968 140.18C155.032 140.996 153.996 140.92 153.708 140.874L146.712 132.132C146.291 126.106 145.852 119.453 145.703 115.999C145.538 112.18 145.51 104.911 145.52 98.8112L169.337 128.568C169.151 129.192 168.245 131.632 164.766 134.848C164.623 134.98 164.615 135.201 164.749 135.342C164.883 135.483 165.107 135.492 165.249 135.359C168.293 132.546 169.447 130.296 169.86 129.223L173.619 133.918C174.451 134.959 175.033 136.115 175.382 137.318C176.464 141.053 175.254 145.239 171.989 147.798ZM145.51 149.981C145.543 149.907 145.588 149.805 145.556 149.805C145.832 149.762 146.425 150.352 146.974 151.752C147.429 152.906 147.478 154.978 147.066 155.574C146.989 155.685 146.936 155.685 146.914 155.685H128.338C128.362 155.09 128.528 153.852 129.466 153.412C129.754 153.277 130.132 153.11 130.564 152.919C132.39 152.116 135.15 150.901 136.144 149.852C136.944 149.006 137.987 148.985 138.292 149.006C138.698 149.027 138.917 149.14 138.954 149.188C138.983 149.232 139.03 149.405 139.064 149.531C139.283 150.339 139.742 152.023 142.491 151.74C144.846 151.502 145.279 150.513 145.51 149.981ZM127.629 155.685H114.583C114.605 155.091 114.769 153.853 115.712 153.412C116 153.277 116.379 153.11 116.812 152.919C118.637 152.115 121.395 150.9 122.389 149.852C123.191 149.006 124.233 148.985 124.537 149.006C124.944 149.027 125.162 149.14 125.199 149.188C125.229 149.232 125.276 149.405 125.31 149.531C125.528 150.339 125.987 152.021 128.737 151.74C131.092 151.502 131.524 150.512 131.756 149.981C131.789 149.907 131.833 149.805 131.801 149.805C132.037 149.769 132.466 150.166 132.915 151.071C132.013 151.515 131.056 151.936 130.276 152.28C129.838 152.473 129.454 152.642 129.163 152.778C127.857 153.391 127.652 154.962 127.629 155.685ZM127.631 146.956C128.154 146.956 128.687 146.943 129.203 146.911C129.853 146.871 130.428 146.811 130.928 146.742V150.053C130.674 150.454 130.153 150.893 128.665 151.044C126.512 151.256 126.213 150.156 125.994 149.349C125.968 149.253 125.943 149.17 125.917 149.09L125.638 146.902C126.238 146.932 126.924 146.956 127.631 146.956ZM141.027 146.743C141.311 146.743 141.611 146.738 141.928 146.727C143.037 146.684 143.942 146.54 144.683 146.35V150.052C144.429 150.454 143.908 150.893 142.419 151.044C140.265 151.256 139.966 150.156 139.748 149.349C139.722 149.252 139.697 149.169 139.672 149.089L139.363 146.671C139.847 146.716 140.398 146.743 141.027 146.743ZM103.644 80.8685C103.367 80.7576 103.234 80.5604 103.169 80.3874C104.164 80.3396 106.737 79.9951 109.457 77.8991C109.467 77.9736 109.471 78.0604 109.457 78.1702C109.412 78.5333 109.026 78.8727 108.717 79.1448C108.636 79.2162 108.561 79.2819 108.499 79.3419C107.761 80.0485 105.028 81.4215 103.644 80.8685ZM102.81 79.6947C102.699 79.6613 102.269 79.5103 101.955 79.1042C101.806 78.9111 101.78 78.7473 101.782 78.6349C102.497 78.5861 105.82 78.256 108.884 76.2447C108.958 76.2221 109.211 76.161 109.319 76.3854C109.498 76.7541 109.356 77.0432 109.312 77.1202C106.202 79.6613 103.164 79.7024 102.81 79.6947ZM101.609 77.9438C101.604 77.9438 101.601 77.9463 101.595 77.9468C101.37 77.668 101.095 77.3143 101.014 77.1705C100.592 76.4224 100.623 76.0383 100.679 75.8761C100.679 75.8745 100.68 75.8735 100.681 75.872C101.128 76.4085 101.972 77.0118 103.125 76.8239C103.688 76.732 104.271 76.54 104.89 76.3361C105.918 75.9983 106.983 75.6481 107.946 75.778C108.017 75.7872 108.088 75.8247 108.157 75.8694C105.033 77.7764 101.644 77.9417 101.609 77.9438ZM86.2597 42.2955C86.0744 41.5992 86.1616 41.0282 86.4927 40.7689C86.5664 40.7114 86.6531 40.6724 86.7471 40.6462C86.7818 40.6365 86.8213 40.636 86.8586 40.6308C86.9204 40.6216 86.9832 40.6139 87.0512 40.6159C87.1394 40.6185 87.2349 40.637 87.3325 40.6591C87.374 40.6683 87.4129 40.6709 87.456 40.6837C87.5993 40.7268 87.7482 40.7859 87.9029 40.867L95.8899 45.7264C95.6449 46.495 94.9578 47.8126 93.0286 49.3226C91.252 50.7151 89.9753 51.1156 89.1615 51.1808L86.2597 42.2955ZM133.823 84.3245C134.618 84.039 137.08 83.1882 138.188 83.1882H139.209C138.591 83.3587 137.139 83.8018 135.7 84.5504C134.808 84.6028 134.046 84.5468 133.823 84.3245ZM140.298 89.1212C140.298 89.1207 142.659 88.2663 145.751 87.1526C145.936 88.7813 146.079 90.1646 146.143 90.7915C144.943 90.8644 140.825 91.0795 134.659 91.059C137.605 89.763 140.232 89.1392 140.298 89.1212ZM174.173 133.483L170.002 128.271H170.001L145.522 97.6862C145.526 95.9836 145.532 94.3944 145.54 93.042C145.541 92.8489 145.384 92.6913 145.188 92.6903H145.186C144.991 92.6903 144.833 92.8458 144.832 93.0389C144.797 99.4063 144.773 110.86 144.994 116.029C145.292 122.93 146.747 142.573 146.893 144.535C146.549 144.852 145.169 145.902 141.9 146.026C138.627 146.156 137.223 145.556 136.874 145.372C136.396 143.644 131.5 125.897 129.424 116.65C128.053 110.551 126.553 101.29 125.537 94.5936C125.508 94.4021 125.326 94.2748 125.134 94.2989C124.941 94.3277 124.808 94.5064 124.837 94.6979C125.855 101.405 127.357 110.684 128.732 116.802C130.909 126.495 136.175 145.501 136.228 145.691C136.249 145.766 136.295 145.832 136.357 145.879C136.394 145.907 137.009 146.341 138.637 146.583L138.869 148.394C138.731 148.356 138.584 148.326 138.419 148.313C137.608 148.246 136.462 148.493 135.626 149.373C135.218 149.804 134.436 150.284 133.541 150.753C132.971 149.622 132.316 149.026 131.701 149.111C131.675 149.115 131.659 149.128 131.636 149.134V146.634C132.634 146.462 133.187 146.284 133.224 146.272C133.364 146.225 133.461 146.097 133.466 145.949L133.654 138.667C133.659 138.473 133.505 138.312 133.309 138.308C133.1 138.312 132.951 138.456 132.946 138.649L132.764 145.675C132.271 145.808 131.017 146.097 129.159 146.212C127.149 146.334 124.802 146.155 124 146.085C123.761 143.914 122.21 129.691 121.204 116.182C120.542 107.29 120.56 98.5796 120.691 92.8371C120.695 92.644 120.54 92.4833 120.346 92.4792C120.139 92.4802 119.987 92.6276 119.983 92.8217C119.944 94.5253 119.915 96.495 119.911 98.6479L106.09 81.3808C107.369 80.9706 108.566 80.2528 108.991 79.8456C109.048 79.7912 109.115 79.7321 109.187 79.669C109.565 79.3362 110.083 78.8813 110.16 78.2549C110.216 77.8103 110.109 77.5058 109.999 77.3184C110.107 77.055 110.209 76.6005 109.958 76.083C109.707 75.5639 109.212 75.4879 108.861 75.5346C108.69 75.3657 108.396 75.1315 108.04 75.0833C106.915 74.9333 105.771 75.3077 104.665 75.6717C104.074 75.8658 103.517 76.0496 103.009 76.1333C102.401 76.2329 101.943 76.0347 101.619 75.7934L94.6059 67.0317C95.3803 66.9968 96.6773 66.7514 98.5737 65.7995C98.7481 65.7117 98.8182 65.5011 98.7294 65.3286C98.6402 65.1561 98.4284 65.0868 98.253 65.1746C95.8655 66.3735 94.5421 66.3735 94.1051 66.3242L89.3821 51.8581C90.308 51.7466 91.6688 51.282 93.4688 49.872C95.3543 48.3953 96.165 47.067 96.5076 46.1022L109.652 54.0993C109.458 54.8731 108.404 57.8419 103.062 62.0266C102.908 62.1467 102.883 62.367 103.004 62.519C103.074 62.6063 103.177 62.6514 103.282 62.6514C103.359 62.6514 103.436 62.6273 103.502 62.576C108.319 58.8021 109.775 55.9719 110.212 54.6995L120.998 68.1757C119.531 76.6858 119.167 90.6092 119.163 90.7689C119.159 90.9496 119.294 91.1042 119.476 91.1252C119.521 91.1304 124.119 91.6495 132.686 91.7455C133.667 91.7568 134.605 91.7614 135.496 91.7614C142.385 91.7614 146.511 91.4703 146.556 91.4667C146.652 91.46 146.741 91.4153 146.801 91.3429C146.863 91.2711 146.892 91.1776 146.884 91.0836C146.881 91.058 146.698 89.2064 146.435 86.9062C150.961 85.277 155.626 83.0429 156.839 81.923C158.139 80.7231 159.166 79.3429 157.497 75.6799C155.84 72.0446 153.959 69.7685 153.879 69.6735C153.754 69.523 153.531 69.503 153.38 69.6257C153.229 69.7485 153.208 69.9692 153.333 70.1187C153.351 70.1413 155.236 72.4241 156.851 75.968C158.451 79.4764 157.337 80.5044 156.356 81.4106C155.343 82.3456 151.012 84.515 146.177 86.2541C142.786 87.4735 140.093 88.4491 140.094 88.4511C140.047 88.4624 137.329 89.1094 134.305 90.447C134.158 90.5117 133.874 90.4952 133.838 90.4916C133.791 90.4084 133.778 90.3083 133.775 90.2267C133.781 90.2205 133.789 90.2185 133.795 90.2118C133.811 90.1943 135.413 88.4301 137.936 87.7944C138.126 87.7467 138.241 87.5557 138.192 87.3688C138.144 87.1819 137.953 87.0658 137.762 87.1156C135.283 87.74 133.673 89.3179 133.333 89.6742C133.285 89.6501 133.218 89.5967 133.153 89.4616C133.032 89.2116 133.196 89.0047 133.211 88.9857C133.22 88.9764 133.223 88.9636 133.229 88.9533C133.235 88.9451 133.245 88.942 133.25 88.9338C133.261 88.9143 134.427 87.0253 137.198 86.423C137.389 86.3819 137.51 86.195 137.468 86.0061C137.427 85.8176 137.241 85.6975 137.046 85.7391C134.836 86.2186 133.556 87.4304 132.991 88.1051C132.987 88.0553 132.98 88.007 132.989 87.9474C133.035 87.6342 133.722 86.7952 134.13 86.4348C136.13 84.6618 139.648 83.7972 139.684 83.7879C139.725 83.7782 139.765 83.7607 139.8 83.7371C139.828 83.7186 142.578 81.8522 144.87 79.9396C146.389 78.6708 147.251 78.203 147.26 78.1979C147.428 78.1075 147.494 77.8991 147.406 77.7296L146.044 75.1131C145.953 74.9411 145.741 74.8743 145.567 74.9621C145.393 75.0504 145.324 75.262 145.414 75.434L146.624 77.7589C146.367 77.9196 145.934 78.2128 145.367 78.6446C145.045 76.3243 144.758 74.3372 144.653 73.6158C144.702 73.5953 144.742 73.565 144.776 73.528C144.779 73.5265 144.783 73.5249 144.787 73.5229L144.784 73.5177C144.792 73.5075 144.799 73.4967 144.806 73.4859C144.872 73.4602 145.042 73.3919 145.294 73.2846C145.852 73.0182 146.724 72.5889 148.083 71.8947C151.134 70.3369 153.746 68.053 153.856 67.9565C153.987 67.8415 154.013 67.6489 153.918 67.5036C153.86 67.4168 148.146 58.7718 144.035 54.9948C142.046 53.1674 140 51.875 137.955 51.1531C137.87 51.1228 137.782 51.13 137.704 51.1613C137.766 51.4555 137.825 51.7004 137.869 51.8714C139.773 52.5718 141.685 53.7917 143.553 55.5077C147.205 58.8632 152.175 66.1707 153.154 67.6299C152.447 68.2219 150.219 70.016 147.758 71.2724C144.799 72.7835 144.158 73.0351 144.132 73.0454C144.125 73.0474 144.122 73.052 144.116 73.0546C141.789 73.8325 139.519 73.6785 138.782 73.5942C138.739 73.3134 138.662 72.7707 138.545 71.8316C138.35 70.2912 136.985 60.7429 136.971 60.6464C136.944 60.4549 136.767 60.3198 136.571 60.3486C136.377 60.3758 136.242 60.5529 136.27 60.7445C136.284 60.841 137.648 70.3836 137.841 71.9183C138.04 73.4859 138.122 73.966 138.122 73.966C138.148 74.1123 138.264 74.2268 138.412 74.252C138.471 74.2623 139.161 74.3747 140.195 74.3747C141.211 74.3747 142.559 74.2648 143.971 73.8443C144.095 74.7033 144.395 76.7854 144.723 79.1535C144.618 79.2387 144.525 79.3106 144.413 79.4035C142.98 80.5999 141.364 81.7788 140.363 82.4879H138.187C136.734 82.4879 133.458 83.7099 133.32 83.7617C133.208 83.8038 133.125 83.8988 133.099 84.0144C133.012 84.4046 133.168 84.6639 133.314 84.8118C133.564 85.0659 134.016 85.1902 134.532 85.242C134.224 85.4495 133.929 85.6723 133.658 85.9126C133.338 86.1955 132.381 87.2209 132.288 87.8453C132.227 88.2535 132.353 88.579 132.506 88.7952C132.393 89.0447 132.336 89.3928 132.514 89.7635C132.664 90.0768 132.875 90.2462 133.071 90.3289C133.084 90.4778 133.121 90.6559 133.215 90.8259C133.269 90.925 133.358 90.9948 133.459 91.0518C133.204 91.0498 132.955 91.0482 132.694 91.0451C125.445 90.964 121.058 90.5794 119.88 90.4629C119.954 87.989 120.497 72.0231 122.372 65.1268C123.342 61.5619 124.546 58.5977 125.95 56.3174C126.052 56.1526 126 55.937 125.832 55.8363C125.666 55.7357 125.447 55.7881 125.346 55.9534C123.906 58.2901 122.676 61.3154 121.689 64.9451C121.502 65.6336 121.328 66.4125 121.166 67.2561L115.74 60.4775C117.503 58.9042 120.376 56.4971 122.938 55.0708C125.925 53.4087 128.692 52.371 130.288 51.8416C130.329 51.6142 130.378 51.3384 130.427 51.0586C128.877 51.5556 125.861 52.64 122.591 54.4603C119.99 55.9077 117.093 58.3307 115.3 59.9276L110.324 53.7106L110.286 53.6629L107.585 52.0198V30.5799C107.585 25.7462 103.611 21.8136 98.7248 21.8136H93.2907C93.0951 21.8136 92.9368 21.9702 92.9368 22.1638C92.9368 22.3579 93.0951 22.5145 93.2907 22.5145H98.7248C103.22 22.5145 106.877 26.1323 106.877 30.5799V51.589L96.7058 45.4008L96.7063 45.4003L88.2548 40.259C87.3985 39.8082 86.5961 39.7949 86.0537 40.2195C85.487 40.6642 85.3126 41.4852 85.5809 42.4926L88.6487 51.8909H88.6493L93.4958 66.7375L93.5155 66.7976L100.271 75.2389C100.179 75.3308 100.087 75.4442 100.023 75.6116C99.8349 76.1004 99.96 76.7397 100.395 77.5119C100.522 77.7363 100.894 78.2025 101.087 78.4398C101.042 78.718 101.082 79.1278 101.392 79.5298C101.729 79.9657 102.154 80.1922 102.421 80.3C102.476 80.6471 102.674 81.2355 103.379 81.5179C103.683 81.6396 104.024 81.6925 104.385 81.6925C104.694 81.6925 105.018 81.6437 105.344 81.5765L106.877 83.4927V147.488C106.877 151.937 103.22 155.554 98.7248 155.554H45.3952C40.8996 155.554 37.2421 151.937 37.2421 147.488V30.5799C37.2421 26.1323 40.8996 22.5145 45.3952 22.5145H75.9263C76.122 22.5145 76.2808 22.3579 76.2808 22.1638C76.2808 21.9702 76.122 21.8136 75.9263 21.8136H45.3952C40.5087 21.8136 36.5342 25.7462 36.5342 30.5799V147.488C36.5342 152.323 40.5087 156.255 45.3952 156.255H98.7248C103.611 156.255 107.585 152.323 107.585 147.488V84.3774L119.912 99.7775C119.922 104.667 120.064 110.409 120.498 116.234C121.587 130.845 123.311 146.291 123.328 146.445C123.347 146.609 123.478 146.738 123.643 146.755C123.692 146.76 124.185 146.81 124.919 146.859L125.115 148.393C124.978 148.356 124.831 148.326 124.667 148.313C123.868 148.244 122.71 148.491 121.871 149.373C120.977 150.318 118.298 151.498 116.524 152.279C116.085 152.472 115.7 152.641 115.409 152.778C113.724 153.568 113.87 155.958 113.877 156.06L113.9 156.386H127.654H133.159H146.914C147.118 156.386 147.412 156.313 147.65 155.97C148.295 155.037 148.088 152.651 147.634 151.498C146.998 149.875 146.191 149.009 145.456 149.111C145.43 149.115 145.414 149.128 145.391 149.134V146.139C146.919 145.614 147.5 144.929 147.535 144.885C147.591 144.815 147.618 144.728 147.612 144.64C147.604 144.536 147.222 139.416 146.797 133.368L157.404 146.621C157.414 146.633 157.426 146.643 157.436 146.656C157.672 146.948 157.922 147.223 158.184 147.486C158.267 147.569 158.355 147.645 158.44 147.725C158.641 147.914 158.846 148.096 159.058 148.268C159.15 148.341 159.243 148.409 159.335 148.479C159.56 148.647 159.789 148.807 160.025 148.957C160.108 149.009 160.192 149.061 160.276 149.112C160.54 149.269 160.81 149.413 161.087 149.547C161.149 149.577 161.211 149.61 161.274 149.638C161.595 149.786 161.923 149.918 162.26 150.034C162.282 150.042 162.304 150.051 162.327 150.059C163.042 150.3 163.785 150.473 164.554 150.562C164.974 150.61 165.394 150.634 165.81 150.634C167.871 150.634 169.866 150.046 171.598 148.932C171.625 148.915 171.653 148.901 171.68 148.883C171.935 148.716 172.185 148.537 172.428 148.347C175.029 146.31 176.414 143.308 176.477 140.258C176.526 137.886 175.775 135.484 174.173 133.483Z" fill="#393F49"/>
</mask>
<g mask="url(#mask4_5_5684)">
<rect x="-31.8677" y="-38.7315" width="241.769" height="237.817" rx="21.5788" fill="#475574"/>
<rect x="-104" y="-99" width="358" height="348" rx="80" fill="#475574"/>
</g>
</svg>
