<svg width="336" height="270" viewBox="0 0 336 270" fill="none" xmlns="http://www.w3.org/2000/svg">
<path fill-rule="evenodd" clip-rule="evenodd" d="M303.794 126.264C303.746 127.811 303.62 129.856 303.717 132.559C303.731 133.236 303.793 133.952 303.8 134.717C303.811 135.48 303.822 136.29 303.834 137.148C303.868 138.864 304.005 140.773 303.967 142.903C303.728 140.301 303.254 141.76 303.032 139.697C303.052 140.125 303.07 140.557 303.068 140.997C303.041 142.002 302.993 143.031 302.929 144.063C302.862 145.094 302.794 146.129 302.688 147.142C302.527 148.149 302.369 149.141 302.216 150.095C301.934 151.793 301.624 153.347 301.25 154.665C302.747 143.726 302.589 132.76 300.718 122.185C295.687 93.7565 286.445 70.3895 273.012 52.2506C275.361 55.0055 277.591 57.8761 279.674 60.8616C280.312 60.8346 278.93 57.9918 277.92 55.919C276.853 53.8909 276.25 52.565 278.851 55.4466C281.002 58.4515 280.344 58.5022 280.55 59.2611L282.133 61.5216L283.608 63.8488C284.587 65.4054 285.61 66.9442 286.489 68.5599L285.864 72.4302C288.739 81.0581 291.878 87.4382 295.195 94.6743C298.466 101.888 301.782 110.011 303.542 121.682C303.85 122.279 304.121 122.709 304.362 123.008C304.101 123.761 303.887 124.792 303.794 126.264ZM267.444 45.3128C265.101 42.6138 262.643 40.0567 260.083 37.6306C260.351 37.8258 260.612 38.0159 260.884 38.2136C261.682 38.8204 262.44 39.5057 263.228 40.2113C264.009 40.9228 264.793 41.6834 265.573 42.5107C266.31 43.3777 267.035 44.3182 267.745 45.3424C267.82 45.5123 267.678 45.4599 267.444 45.3128ZM185.831 6.6015C186.163 5.88913 186.33 5.18014 189.084 4.93845C194.185 5.67871 204.203 8.04314 202.657 8.73607C203.258 8.95325 203.869 9.1569 204.482 9.35633C198.53 8.09299 192.308 7.17781 185.831 6.6015ZM125.124 262.566C121.958 262.337 119.249 262.208 117.644 262.335C115.502 261.531 114.823 261.005 114.861 260.628C118.327 261.376 121.884 262.035 125.552 262.581C125.412 262.577 125.261 262.571 125.124 262.566ZM68.4276 32.2392C54.5278 41.9107 44.3841 53.8021 37.1462 67.207C39.4359 62.6168 42.0624 58.1076 45.1341 53.8393C48.3069 49.462 51.8812 45.3086 55.8056 41.4552C63.6984 33.784 73.0508 27.4757 83.0817 22.6962C77.275 25.6952 72.4085 29.0483 68.4276 32.2392ZM309.269 140.672C309.205 140.071 309.144 139.494 309.084 138.933C308.949 137.815 308.794 136.774 308.624 135.756C307.937 132.011 306.968 128.575 305.654 122.887C305.872 122.263 305.986 121.227 306.037 119.975C306.095 118.298 306.052 116.245 306.022 114.305C306.007 112.363 305.881 110.553 305.98 109.339L305.814 111.76C305.276 110.366 304.712 109.375 304.177 107.99C303.906 107.299 303.655 106.507 303.395 105.517C303.114 104.532 302.84 103.349 302.576 101.862C301.508 95.8784 304.373 104.767 303.88 100.564C301.864 91.0769 299.668 85.7751 297.268 81.0184C296.661 79.8336 296.063 78.6666 295.448 77.4683C294.789 76.2912 294.112 75.0819 293.389 73.7924C292.013 71.1888 290.303 68.3258 288.331 64.6668C282.199 50.9873 273.78 41.6462 264.153 33.9208C259.317 30.0395 254.043 26.6433 248.289 23.2615C242.525 19.8771 236.139 16.7048 228.821 13.4742C238.812 18.6281 248.922 25.2574 260.323 36.1644L257.713 34.1895C256.847 33.5321 255.913 32.9575 255.019 32.3414L252.32 30.5288L249.743 28.9993C241.541 23.0054 232.429 18.1675 222.418 14.4916C222.723 14.5837 223.033 14.6818 223.336 14.7663C224.606 15.1575 225.866 15.449 227.008 15.8724C229.305 16.6845 231.429 17.3022 233.078 18.0568C232.033 17.2262 230.721 16.4741 229.321 15.6248C227.919 14.7832 226.405 13.8976 224.815 13.1396C223.233 12.3672 221.652 11.5061 220.087 10.8258C218.525 10.1346 217.031 9.46362 215.698 8.83491C210.329 6.52457 207.461 4.85814 213.56 4.85392C211.738 4.31394 210.108 3.78663 208.606 3.44354C207.102 3.09961 205.747 2.81399 204.503 2.57146C202.018 2.04247 199.951 1.92669 198.042 1.74924C197.085 1.68079 196.165 1.60558 195.239 1.58192C194.313 1.57347 193.383 1.56671 192.409 1.55826C190.465 1.55065 188.355 1.47967 185.761 1.51516C184.466 1.34108 182.915 1.19658 181.3 1.05799C179.685 0.980248 178.006 0.899124 176.452 0.82307C173.342 0.612655 170.738 0.532376 170.125 0C165.338 0.466463 163.175 0.934616 160.367 1.05799C158.962 1.11292 157.402 1.13151 155.287 1.16785C153.173 1.20503 150.482 1.10024 146.855 1.20672C136.939 2.33823 127.755 5.00772 134.489 4.70012C143.567 3.36834 152.685 2.56132 161.869 2.20387C168.42 3.0168 165.273 3.9717 161.066 4.85223C160.012 5.06602 158.892 5.2925 157.829 5.50798C156.77 5.75135 155.772 5.98543 154.967 6.20091C154.75 6.25922 154.55 6.31584 154.364 6.37077C153.028 6.4595 151.685 6.55921 150.331 6.67076C129.264 8.41239 111.447 12.2632 96.4202 17.8414C99.5668 16.3211 102.767 14.8879 106.019 13.5435C99.8665 15.4068 93.7887 17.5422 87.8792 20.1162C89.1714 18.7337 91.9544 16.5442 92.6102 15.3713C93.276 14.2457 91.7002 13.9085 84.262 16.7698C78.6017 19.9083 73.3362 23.5091 68.3587 27.3295C63.3929 31.1727 58.7074 35.2771 54.3873 39.7677C45.71 48.7158 38.223 58.8191 31.4768 70.4308L30.0188 73.4747L28.6938 76.5819C27.7678 78.6413 27.0632 80.7851 26.2407 82.8927C24.7996 87.1711 23.4241 91.5003 22.4055 95.9257C20.2008 104.751 19.0231 113.828 18.2807 122.959C16.8437 141.229 18.0652 160.298 23.5335 178.689C23.4291 175.417 24.0891 177.427 24.5504 178.755C25.0858 180.073 25.2617 180.748 24.4132 174.891C24.9536 176.239 25.4478 177.525 25.9369 178.845C26.1052 179.249 26.2694 179.667 26.4352 180.081C27.7299 184.787 29.2662 189.354 31.0533 193.763C29.1593 191.121 28.5582 190.569 28.5254 191.421C28.4825 192.326 29.3419 194.676 30.2982 197.391C30.7461 198.763 31.4288 200.135 31.9633 201.5C32.5054 202.863 33.0223 204.161 33.455 205.247C34.338 207.405 34.6529 208.841 33.5981 208.445C38.3189 216.32 40.3973 220.372 42.6458 224.7C43.8243 226.819 44.9624 229.081 46.9036 231.575C48.7497 234.154 51.3349 237.024 55.1954 240.432C57.8336 242.053 58.656 242.211 58.3572 241.489C58.2082 241.128 57.7772 240.545 57.1509 239.81C56.5322 239.066 55.6752 238.218 54.8132 237.157C53.0471 235.082 50.8029 232.689 48.9635 230.256C48.0317 229.054 47.0686 227.967 46.3447 226.89C45.6157 225.825 44.9776 224.894 44.4893 224.182C45.1257 224.873 45.8388 225.749 46.593 226.719C47.3296 227.703 48.2371 228.667 49.0797 229.692C48.4702 228.822 47.8801 227.952 47.3279 227.092C46.8186 226.193 46.3413 225.308 45.901 224.451C45.0365 222.727 44.2536 221.175 43.8395 219.724C43.326 218.104 43.0743 216.811 43.1206 215.961C49.9139 225.574 58.3252 234.022 68.3982 241.069C67.8005 242.351 67.5455 243.79 71.6409 246.3C72.2688 247.255 73.976 248.624 76.3659 249.925C77.5478 250.599 78.8677 251.314 80.2601 252.034C81.6937 252.668 83.1904 253.33 84.688 253.992C85.4363 254.319 86.1847 254.646 86.9255 254.971C87.6806 255.256 88.4281 255.538 89.1588 255.814C90.6176 256.37 92.0049 256.917 93.2508 257.445C95.7644 258.432 97.7502 259.251 98.5811 260.056C108.846 262.799 117.948 265.178 125.93 266.684C129.926 267.314 133.606 267.933 136.966 267.927C140.32 268.002 143.33 267.784 145.955 266.903C148.504 267.451 151.066 268.133 153.652 268.57L161.459 269.967C164.615 270.063 167.516 269.933 170.225 269.794C170.902 269.752 171.568 269.719 172.221 269.657C172.874 269.573 173.515 269.491 174.148 269.41C175.412 269.239 176.636 269.054 177.828 268.861C179.018 268.655 180.18 268.454 181.324 268.255C182.46 268.016 183.571 267.728 184.671 267.462C186.869 266.907 189.026 266.398 191.194 265.81C193.058 264.793 190.613 264.925 188.97 264.643C188.151 264.524 187.539 264.363 187.77 264.035C187.885 263.871 188.211 263.665 188.825 263.403C189.44 263.149 190.343 262.827 191.594 262.352C193.449 261.825 195.957 261.145 198.469 260.58C200.956 259.904 203.443 259.312 205.323 259.151C206.488 259.573 201.787 261.311 200.746 261.802C210.559 259.102 218.826 256.715 226.64 254.365C234.461 252.042 241.709 249.413 248.925 245.72C251.135 244.182 253.495 242.64 255.78 240.845C256.944 239.977 258.122 239.095 259.312 238.207C260.459 237.261 261.616 236.306 262.78 235.346C267.469 231.546 271.872 227.211 275.913 222.926C283.87 214.215 289.544 205.012 291.671 199.028L288.291 204.29C287.119 206.011 285.865 207.675 284.657 209.364C285.925 207.473 286.832 206.017 287.469 204.889C288.086 203.746 288.39 202.902 288.568 202.304C288.906 201.097 288.603 200.78 288.359 200.418C287.811 199.653 287.823 198.935 292.645 190.212C294.437 186.934 295.683 184.916 296.418 183.668C297.199 182.44 297.653 182.065 297.954 182.106C298.56 182.182 298.545 183.939 299.352 183.726C299.764 182.736 300.191 181.657 300.627 180.515C301.043 179.366 301.394 178.127 301.787 176.866C302.157 175.597 302.59 174.311 302.914 172.98C303.233 171.649 303.553 170.306 303.872 168.978C304.032 168.315 304.191 167.655 304.35 167.002C304.476 166.341 304.601 165.687 304.725 165.043C304.989 163.759 305.245 162.512 305.488 161.329C305.968 158.962 306.315 156.83 306.803 155.179C306.21 160.048 306.842 158.239 307.546 155.74C307.925 154.497 308.223 153.069 308.403 152.242C308.596 151.416 308.693 151.196 308.591 152.359C308.868 150.349 309.125 148.563 309.232 146.945C309.304 145.323 309.329 143.878 309.317 142.561C309.31 141.901 309.301 141.274 309.269 140.672Z" fill="#FFDFD6"/>
<mask id="mask0_5_4318" style="mask-type:luminance" maskUnits="userSpaceOnUse" x="17" y="0" width="293" height="270">
<path fill-rule="evenodd" clip-rule="evenodd" d="M303.794 126.264C303.746 127.811 303.62 129.856 303.717 132.559C303.731 133.236 303.793 133.952 303.8 134.717C303.811 135.48 303.822 136.29 303.834 137.148C303.868 138.864 304.005 140.773 303.967 142.903C303.728 140.301 303.254 141.76 303.032 139.697C303.052 140.125 303.07 140.557 303.068 140.997C303.041 142.002 302.993 143.031 302.929 144.063C302.862 145.094 302.794 146.129 302.688 147.142C302.527 148.149 302.369 149.141 302.216 150.095C301.934 151.793 301.624 153.347 301.25 154.665C302.747 143.726 302.589 132.76 300.718 122.185C295.687 93.7565 286.445 70.3895 273.012 52.2506C275.361 55.0055 277.591 57.8761 279.674 60.8616C280.312 60.8346 278.93 57.9918 277.92 55.919C276.853 53.8909 276.25 52.565 278.851 55.4466C281.002 58.4515 280.344 58.5022 280.55 59.2611L282.133 61.5216L283.608 63.8488C284.587 65.4054 285.61 66.9442 286.489 68.5599L285.864 72.4302C288.739 81.0581 291.878 87.4382 295.195 94.6743C298.466 101.888 301.782 110.011 303.542 121.682C303.85 122.279 304.121 122.709 304.362 123.008C304.101 123.761 303.887 124.792 303.794 126.264ZM267.444 45.3128C265.101 42.6138 262.643 40.0567 260.083 37.6306C260.351 37.8258 260.612 38.0159 260.884 38.2136C261.682 38.8204 262.44 39.5057 263.228 40.2113C264.009 40.9228 264.793 41.6834 265.573 42.5107C266.31 43.3777 267.035 44.3182 267.745 45.3424C267.82 45.5123 267.678 45.4599 267.444 45.3128ZM185.831 6.6015C186.163 5.88913 186.33 5.18014 189.084 4.93845C194.185 5.67871 204.203 8.04314 202.657 8.73607C203.258 8.95325 203.869 9.1569 204.482 9.35633C198.53 8.09299 192.308 7.17781 185.831 6.6015ZM125.124 262.566C121.958 262.337 119.249 262.208 117.644 262.335C115.502 261.531 114.823 261.005 114.861 260.628C118.327 261.376 121.884 262.035 125.552 262.581C125.412 262.577 125.261 262.571 125.124 262.566ZM68.4276 32.2392C54.5278 41.9107 44.3841 53.8021 37.1462 67.207C39.4359 62.6168 42.0624 58.1076 45.1341 53.8393C48.3069 49.462 51.8812 45.3086 55.8056 41.4552C63.6984 33.784 73.0508 27.4757 83.0817 22.6962C77.275 25.6952 72.4085 29.0483 68.4276 32.2392ZM309.269 140.672C309.205 140.071 309.144 139.494 309.084 138.933C308.949 137.815 308.794 136.774 308.624 135.756C307.937 132.011 306.968 128.575 305.654 122.887C305.872 122.263 305.986 121.227 306.037 119.975C306.095 118.298 306.052 116.245 306.022 114.305C306.007 112.363 305.881 110.553 305.98 109.339L305.814 111.76C305.276 110.366 304.712 109.375 304.177 107.99C303.906 107.299 303.655 106.507 303.395 105.517C303.114 104.532 302.84 103.349 302.576 101.862C301.508 95.8784 304.373 104.767 303.88 100.564C301.864 91.0769 299.668 85.7751 297.268 81.0184C296.661 79.8336 296.063 78.6666 295.448 77.4683C294.789 76.2912 294.112 75.0819 293.389 73.7924C292.013 71.1888 290.303 68.3258 288.331 64.6668C282.199 50.9873 273.78 41.6462 264.153 33.9208C259.317 30.0395 254.043 26.6433 248.289 23.2615C242.525 19.8771 236.139 16.7048 228.821 13.4742C238.812 18.6281 248.922 25.2574 260.323 36.1644L257.713 34.1895C256.847 33.5321 255.913 32.9575 255.019 32.3414L252.32 30.5288L249.743 28.9993C241.541 23.0054 232.429 18.1675 222.418 14.4916C222.723 14.5837 223.033 14.6818 223.336 14.7663C224.606 15.1575 225.866 15.449 227.008 15.8724C229.305 16.6845 231.429 17.3022 233.078 18.0568C232.033 17.2262 230.721 16.4741 229.321 15.6248C227.919 14.7832 226.405 13.8976 224.815 13.1396C223.233 12.3672 221.652 11.5061 220.087 10.8258C218.525 10.1346 217.031 9.46362 215.698 8.83491C210.329 6.52457 207.461 4.85814 213.56 4.85392C211.738 4.31394 210.108 3.78663 208.606 3.44354C207.102 3.09961 205.747 2.81399 204.503 2.57146C202.018 2.04247 199.951 1.92669 198.042 1.74924C197.085 1.68079 196.165 1.60558 195.239 1.58192C194.313 1.57347 193.383 1.56671 192.409 1.55826C190.465 1.55065 188.355 1.47967 185.761 1.51516C184.466 1.34108 182.915 1.19658 181.3 1.05799C179.685 0.980248 178.006 0.899124 176.452 0.82307C173.342 0.612655 170.738 0.532376 170.125 0C165.338 0.466463 163.175 0.934616 160.367 1.05799C158.962 1.11292 157.402 1.13151 155.287 1.16785C153.173 1.20503 150.482 1.10024 146.855 1.20672C136.939 2.33823 127.755 5.00772 134.489 4.70012C143.567 3.36834 152.685 2.56132 161.869 2.20387C168.42 3.0168 165.273 3.9717 161.066 4.85223C160.012 5.06602 158.892 5.2925 157.829 5.50798C156.77 5.75135 155.772 5.98543 154.967 6.20091C154.75 6.25922 154.55 6.31584 154.364 6.37077C153.028 6.4595 151.685 6.55921 150.331 6.67076C129.264 8.41239 111.447 12.2632 96.4202 17.8414C99.5668 16.3211 102.767 14.8879 106.019 13.5435C99.8665 15.4068 93.7887 17.5422 87.8792 20.1162C89.1714 18.7337 91.9544 16.5442 92.6102 15.3713C93.276 14.2457 91.7002 13.9085 84.262 16.7698C78.6017 19.9083 73.3362 23.5091 68.3587 27.3295C63.3929 31.1727 58.7074 35.2771 54.3873 39.7677C45.71 48.7158 38.223 58.8191 31.4768 70.4308L30.0188 73.4747L28.6938 76.5819C27.7678 78.6413 27.0632 80.7851 26.2407 82.8927C24.7996 87.1711 23.4241 91.5003 22.4055 95.9257C20.2008 104.751 19.0231 113.828 18.2807 122.959C16.8437 141.229 18.0652 160.298 23.5335 178.689C23.4291 175.417 24.0891 177.427 24.5504 178.755C25.0858 180.073 25.2617 180.748 24.4132 174.891C24.9536 176.239 25.4478 177.525 25.9369 178.845C26.1052 179.249 26.2694 179.667 26.4352 180.081C27.7299 184.787 29.2662 189.354 31.0533 193.763C29.1593 191.121 28.5582 190.569 28.5254 191.421C28.4825 192.326 29.3419 194.676 30.2982 197.391C30.7461 198.763 31.4288 200.135 31.9633 201.5C32.5054 202.863 33.0223 204.161 33.455 205.247C34.338 207.405 34.6529 208.841 33.5981 208.445C38.3189 216.32 40.3973 220.372 42.6458 224.7C43.8243 226.819 44.9624 229.081 46.9036 231.575C48.7497 234.154 51.3349 237.024 55.1954 240.432C57.8336 242.053 58.656 242.211 58.3572 241.489C58.2082 241.128 57.7772 240.545 57.1509 239.81C56.5322 239.066 55.6752 238.218 54.8132 237.157C53.0471 235.082 50.8029 232.689 48.9635 230.256C48.0317 229.054 47.0686 227.967 46.3447 226.89C45.6157 225.825 44.9776 224.894 44.4893 224.182C45.1257 224.873 45.8388 225.749 46.593 226.719C47.3296 227.703 48.2371 228.667 49.0797 229.692C48.4702 228.822 47.8801 227.952 47.3279 227.092C46.8186 226.193 46.3413 225.308 45.901 224.451C45.0365 222.727 44.2536 221.175 43.8395 219.724C43.326 218.104 43.0743 216.811 43.1206 215.961C49.9139 225.574 58.3252 234.022 68.3982 241.069C67.8005 242.351 67.5455 243.79 71.6409 246.3C72.2688 247.255 73.976 248.624 76.3659 249.925C77.5478 250.599 78.8677 251.314 80.2601 252.034C81.6937 252.668 83.1904 253.33 84.688 253.992C85.4363 254.319 86.1847 254.646 86.9255 254.971C87.6806 255.256 88.4281 255.538 89.1588 255.814C90.6176 256.37 92.0049 256.917 93.2508 257.445C95.7644 258.432 97.7502 259.251 98.5811 260.056C108.846 262.799 117.948 265.178 125.93 266.684C129.926 267.314 133.606 267.933 136.966 267.927C140.32 268.002 143.33 267.784 145.955 266.903C148.504 267.451 151.066 268.133 153.652 268.57L161.459 269.967C164.615 270.063 167.516 269.933 170.225 269.794C170.902 269.752 171.568 269.719 172.221 269.657C172.874 269.573 173.515 269.491 174.148 269.41C175.412 269.239 176.636 269.054 177.828 268.861C179.018 268.655 180.18 268.454 181.324 268.255C182.46 268.016 183.571 267.728 184.671 267.462C186.869 266.907 189.026 266.398 191.194 265.81C193.058 264.793 190.613 264.925 188.97 264.643C188.151 264.524 187.539 264.363 187.77 264.035C187.885 263.871 188.211 263.665 188.825 263.403C189.44 263.149 190.343 262.827 191.594 262.352C193.449 261.825 195.957 261.145 198.469 260.58C200.956 259.904 203.443 259.312 205.323 259.151C206.488 259.573 201.787 261.311 200.746 261.802C210.559 259.102 218.826 256.715 226.64 254.365C234.461 252.042 241.709 249.413 248.925 245.72C251.135 244.182 253.495 242.64 255.78 240.845C256.944 239.977 258.122 239.095 259.312 238.207C260.459 237.261 261.616 236.306 262.78 235.346C267.469 231.546 271.872 227.211 275.913 222.926C283.87 214.215 289.544 205.012 291.671 199.028L288.291 204.29C287.119 206.011 285.865 207.675 284.657 209.364C285.925 207.473 286.832 206.017 287.469 204.889C288.086 203.746 288.39 202.902 288.568 202.304C288.906 201.097 288.603 200.78 288.359 200.418C287.811 199.653 287.823 198.935 292.645 190.212C294.437 186.934 295.683 184.916 296.418 183.668C297.199 182.44 297.653 182.065 297.954 182.106C298.56 182.182 298.545 183.939 299.352 183.726C299.764 182.736 300.191 181.657 300.627 180.515C301.043 179.366 301.394 178.127 301.787 176.866C302.157 175.597 302.59 174.311 302.914 172.98C303.233 171.649 303.553 170.306 303.872 168.978C304.032 168.315 304.191 167.655 304.35 167.002C304.476 166.341 304.601 165.687 304.725 165.043C304.989 163.759 305.245 162.512 305.488 161.329C305.968 158.962 306.315 156.83 306.803 155.179C306.21 160.048 306.842 158.239 307.546 155.74C307.925 154.497 308.223 153.069 308.403 152.242C308.596 151.416 308.693 151.196 308.591 152.359C308.868 150.349 309.125 148.563 309.232 146.945C309.304 145.323 309.329 143.878 309.317 142.561C309.31 141.901 309.301 141.274 309.269 140.672Z" fill="white"/>
</mask>
<g mask="url(#mask0_5_4318)">
<rect x="-31.0375" y="-50.7216" width="397.952" height="391.252" rx="35.4311" fill="#FFDFD6"/>
</g>
<path fill-rule="evenodd" clip-rule="evenodd" d="M171.803 82.0137C168.009 82.0137 164.904 78.9041 164.904 75.1024C164.904 71.3016 168.009 68.1912 171.803 68.1912C175.598 68.1912 178.702 71.3016 178.702 75.1024C178.702 78.9041 175.598 82.0137 171.803 82.0137Z" fill="white"/>
<path fill-rule="evenodd" clip-rule="evenodd" d="M193.879 82.0137C190.084 82.0137 186.98 78.9041 186.98 75.1024C186.98 71.3016 190.084 68.1912 193.879 68.1912C197.673 68.1912 200.778 71.3016 200.778 75.1024C200.778 78.9041 197.673 82.0137 193.879 82.0137Z" fill="white"/>
<path fill-rule="evenodd" clip-rule="evenodd" d="M217.796 82.0137C214.001 82.0137 210.897 78.9041 210.897 75.1024C210.897 71.3016 214.001 68.1912 217.796 68.1912C221.59 68.1912 224.694 71.3016 224.694 75.1024C224.694 78.9041 221.59 82.0137 217.796 82.0137Z" fill="white"/>
<path fill-rule="evenodd" clip-rule="evenodd" d="M121.21 215.631C117.415 215.631 114.311 212.522 114.311 208.72C114.311 204.919 117.415 201.809 121.21 201.809C125.004 201.809 128.109 204.919 128.109 208.72C128.109 212.522 125.004 215.631 121.21 215.631Z" fill="white"/>
<path fill-rule="evenodd" clip-rule="evenodd" d="M145.127 215.631C141.332 215.631 138.228 212.522 138.228 208.72C138.228 204.919 141.332 201.809 145.127 201.809C148.921 201.809 152.026 204.919 152.026 208.72C152.026 212.522 148.921 215.631 145.127 215.631Z" fill="white"/>
<path fill-rule="evenodd" clip-rule="evenodd" d="M167.203 215.631C163.409 215.631 160.304 212.522 160.304 208.72C160.304 204.919 163.409 201.809 167.203 201.809C170.998 201.809 174.102 204.919 174.102 208.72C174.102 212.522 170.998 215.631 167.203 215.631Z" fill="white"/>
<path fill-rule="evenodd" clip-rule="evenodd" d="M128.561 174.697H16.9355C7.82722 174.697 0.442871 167.319 0.442871 158.216V64.4366C0.442871 55.3341 7.82722 47.9562 16.9355 47.9562H128.561C137.669 47.9562 145.054 55.3341 145.054 64.4366V158.216C145.054 167.319 137.669 174.697 128.561 174.697Z" fill="white"/>
<path fill-rule="evenodd" clip-rule="evenodd" d="M319.818 242.472H205.985C197.486 242.472 190.596 235.587 190.596 227.094V131.109C190.596 122.616 197.486 115.731 205.985 115.731H319.818C328.317 115.731 335.207 122.616 335.207 131.109V227.094C335.207 235.587 328.317 242.472 319.818 242.472Z" fill="white"/>
<path fill-rule="evenodd" clip-rule="evenodd" d="M324.389 195.765C322.589 193.664 312.88 179.345 301.029 163.739C292.782 152.879 280.833 149.983 274.817 149.211C274.857 150.784 274.862 151.823 274.862 151.823C274.862 151.823 273.375 158.793 262.51 158.457C248.94 158.038 250.837 152.817 250.837 152.817C250.837 152.817 251.366 151.325 251.804 149.815C248.794 150.934 241.984 154.103 233.587 162.079C229.538 165.927 217.146 182.562 217.146 182.562C217.146 182.562 217.895 184.433 219.153 187.073H231.903C233.165 187.073 234.322 187.772 234.91 188.889L255.932 228.891H228.781L226.967 242.916H303.182L295.031 214.228C295.031 214.228 318.789 202.622 324.389 195.765Z" fill="#FC77A0"/>
<mask id="mask1_5_4318" style="mask-type:luminance" maskUnits="userSpaceOnUse" x="217" y="149" width="108" height="94">
<path fill-rule="evenodd" clip-rule="evenodd" d="M324.389 195.765C322.589 193.664 312.88 179.345 301.029 163.739C292.782 152.879 280.833 149.983 274.817 149.211C274.857 150.784 274.862 151.823 274.862 151.823C274.862 151.823 273.375 158.793 262.51 158.457C248.94 158.038 250.837 152.817 250.837 152.817C250.837 152.817 251.366 151.325 251.804 149.815C248.794 150.934 241.984 154.103 233.587 162.079C229.538 165.927 217.146 182.562 217.146 182.562C217.146 182.562 217.895 184.433 219.153 187.073H231.903C233.165 187.073 234.322 187.772 234.91 188.889L255.932 228.891H228.781L226.967 242.916H303.182L295.031 214.228C295.031 214.228 318.789 202.622 324.389 195.765Z" fill="white"/>
</mask>
<g mask="url(#mask1_5_4318)">
<rect x="-29.5577" y="-53.7427" width="397.066" height="400.134" rx="35.4311" fill="#FC77A0"/>
</g>
<path fill-rule="evenodd" clip-rule="evenodd" d="M198.616 146.027C198.616 146.027 198.394 149.134 197.951 154.46C197.507 159.787 197.065 160.674 198.173 162.005C199.282 163.337 203.715 169.107 209.035 176.209C214.356 183.31 216.35 185.086 216.35 185.086L217.659 183.73L226.81 205.131L233.419 219.484C233.419 219.484 223.866 223.753 216.35 220.815C205.672 216.64 198.838 195.96 194.847 189.08C190.857 182.2 187.533 175.543 187.533 175.543C187.533 175.543 180.661 171.326 176.227 165.556C171.793 159.787 171.351 158.233 171.572 156.901C171.793 155.569 172.527 155.783 172.527 155.783C172.527 155.783 169.338 152.269 170.381 150.181C171.07 148.8 172.68 149.644 172.68 149.644C172.68 149.644 171.684 146.575 173.294 145.654C174.641 144.884 175.976 146.115 175.976 146.115C175.976 146.115 174.879 144.386 176.796 143.542C178.712 142.698 186.247 148.646 188.317 150.488C190.387 152.33 191.69 153.865 191.69 153.865C191.69 153.865 194.199 144.021 198.616 146.027Z" fill="white"/>
<path fill-rule="evenodd" clip-rule="evenodd" d="M277.301 122.278C275.306 122.058 273.493 123.159 273.493 123.159C273.493 123.159 273.975 116.739 270.814 110.451C267.654 104.163 252.555 102.453 247.064 108.782C247.064 108.782 244.275 120.981 244.564 129.227C244.849 137.341 249.704 140.465 252.706 141.313C252.603 143.153 252.452 145.351 252.253 147.156C252.072 148.782 250.738 152.547 250.738 152.547C250.738 152.547 248.842 157.77 262.404 158.19C273.262 158.525 274.749 151.552 274.749 151.552C274.749 151.552 274.727 147.323 274.448 143C274.31 140.856 274.198 136.703 274.123 133.065C275.998 133.219 278.62 132.931 280.365 130.605C283.335 126.645 279.893 122.565 277.301 122.278Z" fill="white"/>
<path fill-rule="evenodd" clip-rule="evenodd" d="M320.282 199.194C320.282 199.194 323.674 204.073 325.715 216.392C327.756 228.711 319.882 235.704 305.512 238.079C295.908 239.667 259.47 238.265 259.47 238.265C259.47 238.265 245.986 241.77 239.16 239.643C232.334 237.515 224.357 231.371 224.357 231.371L261.476 232.208L264.739 228.664L296.479 218.793L294.444 214.351C294.444 214.351 301.289 210.94 307.508 207.278C314.485 203.17 320.282 199.194 320.282 199.194Z" fill="white"/>
<path fill-rule="evenodd" clip-rule="evenodd" d="M199.573 232.308H281.738C282.075 232.308 282.349 232.035 282.349 231.697V229.4C282.349 229.061 282.075 228.788 281.738 228.788H199.573C199.235 228.788 198.962 229.061 198.962 229.4V231.697C198.962 232.035 199.235 232.308 199.573 232.308Z" fill="white"/>
<path fill-rule="evenodd" clip-rule="evenodd" d="M179.98 186.821H231.814C233.075 186.821 234.233 187.521 234.819 188.639L255.829 228.664H198.962L178.385 189.463C177.755 188.263 178.624 186.821 179.98 186.821Z" fill="white"/>
<path fill-rule="evenodd" clip-rule="evenodd" d="M212.728 210.729C214.703 212.469 217.343 212.696 218.625 211.236C219.908 209.777 219.347 207.183 217.372 205.445C215.397 203.705 212.757 203.478 211.474 204.938C210.192 206.397 210.753 208.99 212.728 210.729Z" fill="white"/>
<path fill-rule="evenodd" clip-rule="evenodd" d="M12.8514 140.87C12.8514 140.87 22.857 112.824 33.9341 100.059C45.0112 87.2946 58.2608 87.037 58.2608 87.037L87.7243 92.5439C87.7243 92.5439 94.3252 99.7291 100.578 102.786C106.832 105.842 108.27 105.401 111.129 105.401C113.988 105.401 113.871 105.894 113.871 105.894C113.871 105.894 117.516 111.488 119.534 116.299C122.857 124.226 124.969 134.138 124.969 134.138L106.293 135.297L110.523 174.506L99.0262 174.525H34.9314L38.5791 147.882C38.5791 147.882 25.8937 149.68 12.8514 140.87Z" fill="#FFCB57"/>
<mask id="mask2_5_4318" style="mask-type:luminance" maskUnits="userSpaceOnUse" x="12" y="87" width="113" height="88">
<path fill-rule="evenodd" clip-rule="evenodd" d="M12.8514 140.87C12.8514 140.87 22.857 112.824 33.9341 100.059C45.0112 87.2946 58.2608 87.037 58.2608 87.037L87.7243 92.5439C87.7243 92.5439 94.3252 99.7291 100.578 102.786C106.832 105.842 108.27 105.401 111.129 105.401C113.988 105.401 113.871 105.894 113.871 105.894C113.871 105.894 117.516 111.488 119.534 116.299C122.857 124.226 124.969 134.138 124.969 134.138L106.293 135.297L110.523 174.506L99.0262 174.525H34.9314L38.5791 147.882C38.5791 147.882 25.8937 149.68 12.8514 140.87Z" fill="white"/>
</mask>
<g mask="url(#mask2_5_4318)">
<rect x="-29.5577" y="-52.6324" width="378.897" height="369.491" rx="35.4311" fill="#FFCB57"/>
</g>
<path fill-rule="evenodd" clip-rule="evenodd" d="M101.146 51.7924C97.34 44.0345 83.593 45.948 78.7802 51.3782C73.9675 56.8075 71.8828 57.7031 71.8828 57.7031C71.8828 57.7031 70.6853 56.1752 68.3171 55.819C65.3645 55.3754 61.1454 58.5747 63.0626 63.3045C64.1045 65.876 66.3567 66.9069 68.2021 67.3174H68.2012C68.2012 67.3174 66.9356 78.292 65.8956 82.6334C64.8555 86.9758 58.0455 87.1967 58.0455 87.1967C58.0455 87.1967 61.5301 98.4621 72.631 100.024C86.4959 101.973 87.605 92.6867 87.605 92.6867C87.605 92.6867 84.5612 91.7249 85.2451 87.759C85.5792 85.8179 85.8986 83.9468 86.1379 82.5386C86.5115 82.5736 86.8797 82.5975 87.2368 82.5994C91.5084 82.6233 96.6672 79.5363 99.1339 71.3983C101.601 63.2603 101.146 51.7924 101.146 51.7924Z" fill="white"/>
<path fill-rule="evenodd" clip-rule="evenodd" d="M56.2527 116.942L69.7007 136.925L74.4785 134.894L61.037 114.331C61.037 114.331 59.6315 112.507 57.5671 113.594C54.7672 115.069 56.2527 116.942 56.2527 116.942Z" fill="white"/>
<path fill-rule="evenodd" clip-rule="evenodd" d="M14.6653 142.947C14.6653 142.947 8.46088 154.294 11.4494 166.065C14.4379 177.836 23.3419 179.15 26.8127 179.119C30.2835 179.088 41.0816 174.087 51.368 160.109C61.6552 146.131 62.8904 145.451 62.8904 145.451L75.7382 141.736L78.2141 133.801C78.2141 133.801 71.5808 131.01 66.5389 129.894C61.4978 128.777 59.345 130.229 54.8296 134.458C50.3141 138.687 35.4322 148.979 35.4322 148.979L34.7612 148.686C34.7612 148.686 29.5269 148.544 20.7675 145.888C17.7284 144.966 14.6653 142.947 14.6653 142.947Z" fill="white"/>
<path fill-rule="evenodd" clip-rule="evenodd" d="M136.449 132.123L134.241 132.276L131.304 126.935C131.304 126.935 127.058 127.217 116.54 127.699C106.755 128.147 105.073 133.354 105.073 133.354C105.073 133.354 100.959 128.288 90.322 128.208C84.0789 128.161 76.0788 128.116 76.0788 128.116L73.8653 133.486L73.73 133.483C73.2606 133.47 72.839 133.674 72.6908 133.983L59.0671 162.4C58.9042 162.739 59.277 163.095 59.7906 163.09L89.9879 162.795C89.9879 162.795 90.6441 164.142 94.0947 164.229C97.5452 164.315 98.6295 162.155 98.6295 162.155L121.854 160.066C122.257 160.021 122.592 159.827 122.735 159.559L137.178 132.759C137.355 132.426 136.953 132.075 136.449 132.123Z" fill="white"/>
<path fill-rule="evenodd" clip-rule="evenodd" d="M237.27 228.58C237.766 227.195 240.565 227.36 243.954 228.143C246.359 228.699 249.103 228.833 251.569 229.408C257.785 230.86 261.721 233.346 261.721 233.346L254.258 236.723C254.258 236.723 235.966 232.224 237.27 228.58Z" fill="white"/>
<path fill-rule="evenodd" clip-rule="evenodd" d="M132.999 143.084C130.786 141.819 121.731 140.916 118.914 140.644C116.097 140.373 115.734 140.301 115.293 141.006C114.387 142.452 115.795 143.897 115.795 143.897C115.795 143.897 113.984 143.807 114.085 145.524C114.149 146.611 116.097 148.235 116.097 148.235C116.097 148.235 114.185 148.687 115.795 151.127C116.318 151.92 120.61 154.296 124.473 156.334L122.735 159.559C122.592 159.827 122.257 160.02 121.853 160.066L109.047 161.218L110.477 174.399L99.6819 174.416L99.6497 175.043H124.613C125.644 173.679 126.637 172.201 127.649 170.653C130.278 166.632 132.372 162.302 133.479 159.855C134.784 159.394 135.86 157.799 135.917 153.928C136.017 147.151 135.213 144.35 132.999 143.084Z" fill="white"/>
<mask id="mask3_5_4318" style="mask-type:alpha" maskUnits="userSpaceOnUse" x="0" y="30" width="336" height="214">
<path fill-rule="evenodd" clip-rule="evenodd" d="M190.126 186.568H191.409V182.705C190.95 181.858 190.522 181.059 190.126 180.314V186.568Z" fill="#393F49"/>
<path fill-rule="evenodd" clip-rule="evenodd" d="M258.362 121.341C258.236 122.225 258.684 123.019 259.362 123.116C260.04 123.213 260.692 122.575 260.818 121.691C260.944 120.808 260.496 120.014 259.818 119.917C259.139 119.82 258.488 120.458 258.362 121.341Z" fill="#393F49"/>
<path fill-rule="evenodd" clip-rule="evenodd" d="M144.591 158.17C144.591 166.867 137.519 173.943 128.826 173.943H126.147C126.96 172.81 127.745 171.657 128.472 170.544C131.03 166.63 133.095 162.4 134.239 159.89C135.519 159.303 136.781 157.66 136.844 153.47C136.947 146.469 136.099 143.482 133.603 142.055C133.454 141.969 133.268 141.884 133.064 141.802L138.028 132.584C138.203 132.256 138.184 131.875 137.976 131.564C137.716 131.174 137.208 130.955 136.689 131.005L134.89 131.129L132.151 126.146C132.033 125.927 131.811 125.799 131.547 125.814C131.515 125.816 129.165 125.971 123.812 126.24C123.037 123.731 122.042 120.68 120.778 117.15C118.634 111.164 116.133 107.37 114.843 105.652C116.502 105.154 117.755 104.115 118.164 102.218C119.569 95.7177 117.462 93.609 114.126 90.9736C110.79 88.3382 108.858 86.0545 112.896 83.77C116.936 81.4863 116.76 75.1611 113.774 73.0524C110.79 70.9437 107.278 67.6057 108.331 64.2677C109.385 60.9288 112.679 58.6111 110.438 50.0363C110.276 49.4157 110.058 48.8595 109.817 48.3337H128.826C137.519 48.3337 144.591 55.4094 144.591 64.1066V158.17ZM71.0604 129.91C69.691 129.477 68.2839 129.078 66.9725 128.788C66.4277 128.667 65.9326 128.595 65.444 128.533L57.0815 116.098L57.0548 116.063C57.0511 116.058 56.7005 115.587 56.8229 115.037C56.9306 114.551 57.3935 114.081 58.1619 113.676C58.5337 113.48 58.877 113.405 59.1834 113.405C60.1313 113.405 60.7341 114.121 60.7957 114.195L71.0604 129.91ZM116.799 126.577C110.047 126.887 106.975 129.401 105.655 131.105C102.649 112.23 98.0206 104.368 97.8172 104.033C97.6341 103.73 97.2393 103.634 96.9356 103.817C96.6337 104.001 96.5371 104.396 96.7193 104.699C96.7681 104.779 101.38 112.645 104.352 131.09C102.286 129.511 97.9727 127.142 90.6189 127.086C84.3748 127.039 76.3768 126.993 76.3768 126.993H76.3731C76.1127 126.993 75.878 127.149 75.7795 127.391L74.2887 131.008C73.8718 130.858 73.4605 130.709 73.0151 130.555L61.8412 113.452C61.2412 112.673 59.5764 111.48 57.5647 112.539C56.4245 113.14 55.7518 113.895 55.565 114.783C55.3422 115.842 55.899 116.66 56.0269 116.83L63.8336 128.438C60.5013 128.48 58.2457 130.178 54.6879 133.513C53.5358 134.591 51.0593 136.526 48.028 138.798C49.4387 134.774 52.4057 125.927 53.4658 119.825C53.5266 119.476 53.2928 119.144 52.9431 119.083C52.5943 119.026 52.2621 119.257 52.2014 119.606C50.936 126.882 46.8988 138.181 46.1745 140.177C43.2545 142.338 40.0014 144.692 36.9728 146.862C33.3239 147.009 23.5608 146.676 13.5695 140.138C14.4695 137.7 18.7892 126.278 24.5013 115.424C24.5501 115.332 24.5979 115.241 24.6467 115.15C25.1142 114.266 25.5909 113.387 26.0759 112.516C26.1817 112.328 26.2876 112.139 26.3925 111.953C26.7928 111.243 27.1986 110.542 27.6091 109.85C27.7821 109.558 27.9551 109.266 28.1272 108.981C28.3508 108.612 28.5753 108.244 28.8017 107.882C29.1468 107.329 29.491 106.79 29.8324 106.27C30.0045 106.007 30.1775 105.751 30.3515 105.493C30.6625 105.032 30.9717 104.582 31.28 104.147C31.3849 103.998 31.4907 103.843 31.5957 103.696C32.007 103.128 32.4138 102.59 32.8178 102.07C32.931 101.923 33.0442 101.78 33.1583 101.637C33.5825 101.104 34.0049 100.586 34.4227 100.107C35.0494 99.39 35.6835 98.7169 36.3222 98.0778C36.5357 97.8651 36.7501 97.6754 36.9636 97.471C37.3915 97.0612 37.8185 96.6524 38.2483 96.2748C38.506 96.0501 38.7627 95.8457 39.0204 95.6312C39.4087 95.3079 39.7971 94.9838 40.1854 94.6855C40.4597 94.4746 40.7321 94.2803 41.0054 94.0814C41.3753 93.8125 41.7444 93.5455 42.1116 93.2978C42.3932 93.1072 42.6729 92.9294 42.9527 92.7517C43.307 92.5252 43.6613 92.3042 44.0119 92.0961C44.2954 91.9285 44.577 91.7692 44.8567 91.6136C45.1945 91.4257 45.5294 91.2443 45.8616 91.0721C46.146 90.9257 46.4285 90.7821 46.7083 90.6458C47.023 90.4939 47.3322 90.3502 47.6405 90.2112C47.9249 90.0832 48.2092 89.9552 48.4872 89.8373C48.7715 89.7185 49.0495 89.608 49.3255 89.4994C49.6117 89.3879 49.8998 89.2738 50.1777 89.1725C50.4197 89.085 50.6526 89.0076 50.8881 88.9275C51.1826 88.8272 51.479 88.724 51.7606 88.6375C51.9382 88.5822 52.1038 88.5362 52.2759 88.4855C52.5952 88.3925 52.9173 88.2958 53.2174 88.2176C53.2624 88.2056 53.302 88.1973 53.3462 88.1853C55.0045 87.7562 56.3481 87.5417 57.2398 87.4358C57.2674 87.433 57.3024 87.4275 57.3291 87.4247C57.4708 87.4082 57.5794 87.3989 57.6963 87.387C57.7644 87.3815 57.8426 87.3732 57.9006 87.3686C58.7288 89.5592 62.7799 98.7509 72.8347 100.166C74.135 100.349 75.3848 100.442 76.5498 100.442C76.6179 100.442 76.6842 100.442 76.7514 100.441C77.1057 100.438 77.39 100.147 77.3873 99.7933C77.3836 99.4397 77.0974 99.157 76.7449 99.157H76.7403C75.5679 99.1598 74.3255 99.0797 73.0141 98.8946C64.1142 97.6423 60.25 89.7682 59.2368 87.2682C61.2163 87.0398 65.9005 86.0987 66.8134 82.281C66.8824 81.9955 66.9514 81.6797 67.0214 81.3436C67.0278 81.3113 67.0352 81.2745 67.0416 81.2423C67.8818 77.1483 68.7791 69.859 69.0515 67.5772C70.3122 67.7733 71.2684 67.7089 71.3678 67.7015C71.7212 67.6739 71.9853 67.3645 71.9577 67.0109C71.9301 66.6573 71.6126 66.3939 71.2675 66.4206C71.2408 66.4234 70.0325 66.5007 68.5757 66.1646C68.3567 66.1149 68.1478 66.056 67.9416 65.9934C67.8634 65.9694 67.7852 65.9473 67.706 65.9197C67.5781 65.8764 67.4585 65.8267 67.3361 65.7788C66.6109 65.4915 65.8876 65.0854 65.2636 64.4915C65.2627 64.4906 65.2618 64.4906 65.2618 64.4896C65.1026 64.3377 64.9526 64.1701 64.809 63.9952C64.7888 63.9712 64.7667 63.9491 64.7474 63.9243C64.6204 63.7631 64.5035 63.5863 64.3903 63.4031C64.3636 63.3598 64.3323 63.3193 64.3066 63.2741C64.1759 63.0495 64.0563 62.8101 63.9523 62.5522C63.8621 62.3312 63.7866 62.1111 63.725 61.8929C63.7047 61.822 63.6955 61.752 63.679 61.6811C63.6431 61.5347 63.6053 61.3883 63.5823 61.2446C63.5667 61.1424 63.5639 61.043 63.5538 60.9426C63.5428 60.8312 63.5262 60.7198 63.5225 60.6102C63.5188 60.4776 63.5299 60.3487 63.5363 60.2179C63.5409 60.1433 63.5372 60.0669 63.5455 59.9942C63.563 59.8256 63.5952 59.6608 63.6311 59.4978C63.6385 59.4656 63.6412 59.4315 63.6486 59.3993C63.7931 58.8155 64.0599 58.2676 64.4464 57.7722C65.4413 56.4968 67.1115 55.7381 68.5177 55.9397C70.5819 56.2501 71.6632 57.5751 71.6724 57.5862L71.9761 57.9739L72.2522 57.856C72.2586 57.9094 72.2641 57.9554 72.2724 58.0125C72.4463 59.0181 72.6083 59.8616 73.1724 60.4951C73.8838 61.2925 75.117 61.1608 76.3814 59.6663C77.6459 58.1709 79.4707 56.6055 83.1629 55.5456C89.0121 53.8651 93.9346 53.3108 97.3819 50.5501C97.3819 50.5501 99.8234 52.1855 100.755 56.9232C100.743 57.2528 100.724 57.6055 100.707 57.9527C99.0163 56.9306 97.2273 57.5355 96.4175 58.0982C96.1267 58.2998 96.054 58.7004 96.2573 58.9923C96.4589 59.2833 96.8574 59.3551 97.15 59.1525C97.2245 59.1 98.9942 57.9085 100.616 59.4941C100.376 63.0605 99.8703 67.2042 98.8102 70.7043C96.4083 78.6336 91.4416 81.455 87.5755 81.455H87.5323C84.0546 81.4357 80.5125 79.8822 77.8143 77.1943C76.3032 75.6878 74.6715 73.2191 73.4476 70.5883C73.2994 70.2678 72.9184 70.127 72.5954 70.278C72.2742 70.4262 72.1353 70.8084 72.2844 71.1307C73.5681 73.8904 75.2964 76.4963 76.9087 78.1032C79.526 80.7119 82.8868 82.3289 86.2872 82.665C86.0875 83.9615 86.0322 85.223 85.5371 87.259C84.1604 92.9138 97.2917 101.687 101.224 103.418C101.785 103.664 102.459 103.935 103.205 104.205C105.499 105.157 106.991 105.505 108.261 105.622C110.046 105.969 111.857 106.134 113.443 105.947C114.458 107.228 117.246 111.092 119.57 117.583C120.775 120.949 121.733 123.873 122.49 126.307C120.839 126.389 118.958 126.478 116.799 126.577ZM109.426 132.89L109.045 132.888L108.893 133.254C108.886 133.264 108.322 134.232 105.434 134.362C102.513 134.498 101.753 133.404 101.751 133.404L101.573 133.089L75.1077 132.392L76.801 128.28C78.5449 128.289 85.2288 128.329 90.6087 128.37C100.77 128.447 104.826 133.235 104.865 133.284C105.013 133.463 105.247 133.549 105.477 133.506C105.707 133.463 105.896 133.3 105.971 133.079C106.037 132.883 107.701 128.28 116.857 127.86C125.477 127.465 129.927 127.201 131.223 127.121L133.479 131.227L109.426 132.89ZM114.998 142.979C114.756 143.077 114.506 143.223 114.29 143.441C114.008 143.725 113.683 144.243 113.732 145.091C113.785 145.989 114.664 147.016 115.322 147.664C115.167 147.818 115.026 148.015 114.928 148.264C114.63 149.014 114.839 149.937 115.547 151.012C115.749 151.318 116.268 152.084 123.888 156.133L122.455 158.794C122.433 158.835 122.304 158.937 122.083 158.962L99.7533 160.971L105.109 146.845C105.235 146.513 105.069 146.142 104.737 146.017C104.409 145.892 104.036 146.059 103.91 146.39L98.0867 161.751C97.6358 162.271 96.5453 163.171 94.402 163.124C92.2439 163.071 91.3347 162.501 91.0108 162.215L92.474 158.378C92.6001 158.047 92.4344 157.676 92.1031 157.55C91.7737 157.423 91.401 157.589 91.2749 157.921L89.8347 161.695L60.0797 161.985C60.0705 161.986 60.0603 161.985 60.0511 161.984L73.5616 133.787C73.5883 133.743 73.7714 133.639 74.007 133.648L100.271 134.338L94.632 149.119C94.506 149.45 94.6716 149.821 95.0029 149.948C95.0784 149.977 95.1548 149.99 95.2321 149.99C95.4897 149.99 95.7336 149.832 95.8312 149.576L101.459 134.824C102.163 135.278 103.397 135.737 105.492 135.645C106.649 135.592 107.507 135.409 108.16 135.179L107.508 136.9C107.381 137.232 107.548 137.603 107.879 137.728C107.954 137.756 108.031 137.769 108.107 137.769C108.366 137.769 108.609 137.612 108.707 137.355L109.924 134.143L136.73 132.289L131.828 141.39C129.432 140.728 125.225 140.105 119.263 139.532L118.882 139.495C116.286 139.244 115.668 139.184 115.036 140.192C114.415 141.184 114.616 142.217 114.998 142.979ZM109.783 173.943H38.4029C42.2717 171.055 46.8841 166.679 52.1655 160.044L52.944 159.068C55.0395 156.442 57.9098 152.844 59.6463 150.4C59.8506 150.111 59.7834 149.71 59.4945 149.504C59.2046 149.298 58.8052 149.366 58.6 149.656C56.8846 152.071 54.0272 155.652 51.9409 158.267L51.1624 159.244C38.7664 174.817 30.149 177.568 27.0192 178.03C24.1608 178.456 15.3161 177.045 12.3731 165.446C10.8132 159.297 11.8927 153.14 13.0734 149.057C13.1719 148.715 12.9759 148.36 12.6363 148.26C12.293 148.163 11.9397 148.359 11.8412 148.699C10.6163 152.935 9.49911 159.334 11.1289 165.761C12.0032 169.207 13.379 171.809 14.9738 173.773C7.26194 172.751 1.28296 166.161 1.28296 158.17V64.1066C1.28296 55.4094 8.35429 48.3337 17.0471 48.3337H59.6767C57.4957 51.2923 54.502 54.053 49.5077 54.9554C39.486 56.7667 33.9709 59.5761 32.827 69.0118C32.2766 73.5497 32.4607 77.7137 26.6704 79.3509C21.7239 80.7496 14.209 82.1548 8.66903 87.9165C1.848 95.0114 1.74769 108.719 11.0544 115.396C15.3704 118.493 18.688 119.383 21.0227 119.462C15.8195 130.125 12.247 140.009 12.1872 140.175C12.0887 140.453 12.19 140.761 12.4338 140.925C13.2796 141.493 14.1216 142.003 14.9591 142.488C14.96 142.488 14.9664 142.475 14.9664 142.475C14.9664 142.475 15.0925 142.556 15.2701 142.666C17.2257 143.776 19.1509 144.679 21.0043 145.395C21.0255 145.401 21.0466 145.41 21.0678 145.417C27.7425 147.442 32.3604 148.005 34.1853 148.159C34.512 148.172 34.823 148.18 35.1221 148.185C30.1214 151.755 26.1375 154.542 26.04 154.61C25.7501 154.814 25.6793 155.214 25.8817 155.504C26.0069 155.683 26.2056 155.779 26.409 155.779C26.5351 155.779 26.663 155.741 26.7762 155.663C27.448 155.192 38.4296 147.507 46.8077 141.309C46.9706 141.268 47.1058 141.174 47.1951 141.022C50.9728 138.22 54.1707 135.754 55.564 134.45C59.9592 130.331 61.9221 128.985 66.6947 130.042C68.988 130.55 71.6135 131.415 73.7973 132.2L73.7163 132.397C73.108 132.474 72.6267 132.765 72.4049 133.23L72.1638 133.73L65.6299 133.177C65.2857 133.141 64.9673 133.409 64.9369 133.763C64.9075 134.115 65.1688 134.427 65.5222 134.456L71.5712 134.969L70.1944 137.843C70.1889 137.842 70.1843 137.839 70.1797 137.839H62.4467C62.0915 137.839 61.8044 138.126 61.8044 138.482C61.8044 138.836 62.0915 139.124 62.4467 139.124H69.5806L67.7392 142.965C67.6388 142.949 67.5358 142.948 67.4318 142.982C61.3359 145.014 55.8337 144.229 55.7784 144.221C55.4352 144.176 55.102 144.411 55.0496 144.762C54.9971 145.113 55.2382 145.439 55.5879 145.491C55.691 145.507 56.8239 145.671 58.6027 145.671C60.7148 145.671 63.7415 145.43 67.0305 144.446L58.7822 161.66C58.6267 161.986 58.6506 162.35 58.8466 162.658C59.0905 163.04 59.5617 163.266 60.0917 163.27L89.9618 162.978C90.4265 163.488 91.6118 164.339 94.3689 164.408C94.4426 164.41 94.5153 164.411 94.587 164.411C96.7883 164.411 98.0951 163.563 98.8019 162.867C98.9592 162.801 99.0982 162.698 99.1645 162.526L99.2095 162.406C99.2344 162.372 99.2684 162.333 99.2896 162.303L122.213 160.24C122.829 160.168 123.344 159.854 123.586 159.399L125.021 156.733C125.652 157.064 126.318 157.411 127.037 157.784C127.352 157.946 127.738 157.823 127.902 157.508C128.064 157.193 127.941 156.806 127.626 156.643C118.041 151.686 116.777 150.537 116.618 150.304C116.177 149.637 115.994 149.068 116.117 148.745C116.173 148.595 116.296 148.505 116.395 148.452L128.518 152.866C128.591 152.893 128.665 152.905 128.737 152.905C129 152.905 129.246 152.744 129.341 152.483C129.462 152.15 129.29 151.781 128.957 151.66L116.716 147.203C116.019 146.604 115.044 145.546 115.012 145.015C114.987 144.565 115.145 144.402 115.197 144.349C115.421 144.119 115.825 144.069 116.004 144.069L129.462 147.544C129.516 147.558 129.57 147.564 129.623 147.564C129.908 147.564 130.169 147.372 130.245 147.082C130.332 146.739 130.126 146.389 129.783 146.3L116.438 142.854C116.188 142.546 115.612 141.69 116.123 140.873C116.31 140.575 116.335 140.538 118.758 140.773L119.139 140.81C129.287 141.786 132.157 142.707 132.966 143.169C134.95 144.304 135.654 147.092 135.559 153.451C135.525 155.73 135.101 158.517 133.27 158.864C132.923 158.931 132.693 159.266 132.76 159.614C132.775 159.697 132.808 159.771 132.85 159.839C131.689 162.347 129.755 166.235 127.397 169.842C126.519 171.186 125.572 172.607 124.577 173.943H109.783ZM128.826 47.0492H109.115C106.368 42.853 101.308 42.306 101.308 42.306C101.308 42.306 96.6364 30.3094 83.2023 30.7652C72.7343 31.1198 67.947 35.5489 63.3936 42.4984C62.5221 43.8281 61.6432 45.4331 60.5766 47.0492H17.048C7.64742 47.0492 0 54.7013 0 64.1066V158.17C0 167.313 7.2333 174.778 16.2731 175.188C19.6882 178.488 23.7153 179.371 26.1098 179.371C26.5295 179.371 26.8994 179.345 27.2059 179.3C29.2378 179.001 32.4109 178.029 36.5963 175.228H99.2656H125.218H128.826C138.226 175.228 145.874 167.576 145.874 158.17V64.1066C145.874 54.7013 138.226 47.0492 128.826 47.0492Z" fill="#393F49"/>
<path fill-rule="evenodd" clip-rule="evenodd" d="M83.0544 97.7264C82.2041 98.1896 81.2369 98.545 80.1786 98.7835C79.8335 98.8609 79.6163 99.2043 79.6945 99.5506C79.7608 99.8498 80.0258 100.052 80.3194 100.052C80.3654 100.052 80.4133 100.047 80.4611 100.036C81.6345 99.7725 82.713 99.3747 83.6683 98.8535C83.9793 98.685 84.0943 98.2946 83.925 97.9833C83.7548 97.6721 83.3664 97.5561 83.0544 97.7264Z" fill="#393F49"/>
<path fill-rule="evenodd" clip-rule="evenodd" d="M87.5975 63.7618C87.0997 64.4101 87.0444 65.4018 87.4751 65.9773C87.9058 66.5528 88.6586 66.4939 89.1565 65.8456C89.6543 65.1983 89.7086 64.2056 89.2788 63.6301C88.8482 63.0546 88.0963 63.1135 87.5975 63.7618Z" fill="#393F49"/>
<path fill-rule="evenodd" clip-rule="evenodd" d="M98.5 66.4254C98.9426 65.7495 98.9592 64.7578 98.5359 64.2099C98.1126 63.6629 97.4095 63.767 96.9659 64.4429C96.5233 65.1188 96.5067 66.1105 96.93 66.6575C97.3543 67.2054 98.0564 67.1013 98.5 66.4254Z" fill="#393F49"/>
<path fill-rule="evenodd" clip-rule="evenodd" d="M91.1988 74.0727L92.9528 74.243C93.0099 74.2485 93.0651 74.2522 93.1194 74.2522C93.5262 74.2522 93.8888 74.08 94.1299 73.7679C94.4041 73.4115 94.4722 72.9235 94.3323 72.5763L93.9191 70.8359C93.609 68.8147 94.0296 67.0845 94.0342 67.067C94.1197 66.7235 93.9108 66.3745 93.5676 66.2889C93.2216 66.2014 92.8765 66.4095 92.79 66.753C92.7697 66.834 92.2995 68.742 92.6602 71.0809L93.0863 72.9658L91.3212 72.7945C90.9734 72.7632 90.6559 73.0183 90.6218 73.3728C90.5868 73.7246 90.8464 74.0386 91.1988 74.0727Z" fill="#393F49"/>
<path fill-rule="evenodd" clip-rule="evenodd" d="M84.2654 78.0346C84.3841 78.0346 84.5046 78.0015 84.6123 77.9315C84.9105 77.74 84.9961 77.3422 84.8037 77.0447C84.212 76.1276 83.9092 75.3523 83.7666 74.7316C84.8267 75.9664 86.7206 77.3072 89.8542 77.0641C90.2075 77.0355 90.4717 76.7261 90.4431 76.3725C90.4155 76.0199 90.1035 75.7537 89.7529 75.7841C85.181 76.1488 83.8789 72.587 83.8264 72.4388C83.7427 72.1957 83.5209 72.0253 83.2641 72.0078C83.0037 72.0014 82.7653 72.1275 82.6485 72.3568C82.6052 72.4415 81.6159 74.4673 83.7261 77.7409C83.8485 77.9306 84.0546 78.0346 84.2654 78.0346Z" fill="#393F49"/>
<path fill-rule="evenodd" clip-rule="evenodd" d="M84.5233 59.7076C84.7027 59.7076 84.8812 59.6321 85.0082 59.4848C85.0782 59.4047 86.7282 57.5427 89.3786 59.0087C89.6896 59.179 90.0798 59.0658 90.251 58.7564C90.4222 58.4461 90.309 58.0556 89.9988 57.8834C87.1589 56.3144 84.8573 57.6956 84.0374 58.6459C83.8054 58.9139 83.8358 59.319 84.1036 59.5511C84.2251 59.656 84.3742 59.7076 84.5233 59.7076Z" fill="#393F49"/>
<path fill-rule="evenodd" clip-rule="evenodd" d="M69.0451 57.817C68.2169 57.7442 67.3988 57.9965 66.7564 58.5315C66.1132 59.0684 65.7184 59.8234 65.6429 60.6568C65.5675 61.4911 65.8215 62.3042 66.357 62.9478C66.8936 63.5906 67.6473 63.9856 68.481 64.062C68.5003 64.0639 68.5197 64.0648 68.5399 64.0648C68.8675 64.0648 69.1482 63.8134 69.1786 63.4801C69.2099 63.1274 68.9494 62.8143 68.597 62.783C68.1046 62.7379 67.6592 62.504 67.3427 62.1255C67.0261 61.7452 66.877 61.2655 66.9212 60.7728C66.9653 60.2802 67.1991 59.8345 67.5782 59.5177C67.9583 59.2019 68.4396 59.0546 68.9301 59.096C69.4215 59.1402 69.8679 59.3741 70.1835 59.7544C70.4099 60.026 70.813 60.0638 71.0872 59.8354C71.3596 59.608 71.3964 59.2037 71.1691 58.9312C70.6335 58.2884 69.8789 57.8934 69.0451 57.817Z" fill="#393F49"/>
<path fill-rule="evenodd" clip-rule="evenodd" d="M229.314 228.51L229.329 228.386H228.036L228.021 228.51H229.314Z" fill="#393F49"/>
<path fill-rule="evenodd" clip-rule="evenodd" d="M248.261 120.928C248.871 121.031 249.486 120.4 249.634 119.521C249.781 118.641 249.407 117.844 248.797 117.742C248.186 117.639 247.572 118.269 247.423 119.149C247.276 120.028 247.651 120.826 248.261 120.928Z" fill="#393F49"/>
<path fill-rule="evenodd" clip-rule="evenodd" d="M260.751 129.995C260.503 129.953 260.249 130.062 260.109 130.272C260.022 130.401 257.941 133.414 253.765 131.991C253.429 131.876 253.064 132.056 252.95 132.391C252.836 132.727 253.015 133.092 253.35 133.206C256.595 134.313 258.853 133.152 260.084 132.133C259.962 133.278 259.348 134.875 257.055 135.79C256.726 135.922 256.566 136.296 256.697 136.624C256.798 136.876 257.039 137.029 257.294 137.029C257.373 137.029 257.454 137.014 257.531 136.983C262.37 135.049 261.276 130.514 261.265 130.469C261.202 130.224 261 130.038 260.751 129.995Z" fill="#393F49"/>
<path fill-rule="evenodd" clip-rule="evenodd" d="M261.053 113.119C260.718 113.233 260.538 113.598 260.653 113.933C260.767 114.269 261.132 114.453 261.467 114.333C264.195 113.406 265.477 115.434 265.534 115.527C265.654 115.728 265.865 115.838 266.084 115.838C266.195 115.838 266.308 115.809 266.411 115.748C266.716 115.566 266.816 115.172 266.635 114.867C266.011 113.818 264.041 112.101 261.053 113.119Z" fill="#393F49"/>
<path fill-rule="evenodd" clip-rule="evenodd" d="M247.263 111.911C246.978 112.121 246.916 112.522 247.125 112.809C247.334 113.094 247.734 113.157 248.022 112.947C249.775 111.664 251.254 112.973 251.417 113.127C251.541 113.246 251.701 113.305 251.86 113.305C252.028 113.305 252.196 113.239 252.322 113.109C252.569 112.853 252.56 112.447 252.305 112.2C251.496 111.418 249.399 110.348 247.263 111.911Z" fill="#393F49"/>
<path fill-rule="evenodd" clip-rule="evenodd" d="M273.701 129.697C274.182 129.987 274.72 130.135 275.268 130.135C275.517 130.135 275.767 130.103 276.014 130.042C276.807 129.844 277.474 129.348 277.894 128.649C278.314 127.948 278.437 127.126 278.238 126.334C278.152 125.99 277.803 125.779 277.46 125.867C277.116 125.953 276.907 126.301 276.994 126.646C277.109 127.105 277.037 127.582 276.794 127.988C276.55 128.394 276.163 128.681 275.703 128.796C275.245 128.908 274.767 128.839 274.362 128.596C274.057 128.414 273.664 128.513 273.481 128.816C273.299 129.121 273.397 129.515 273.701 129.697Z" fill="#393F49"/>
<path fill-rule="evenodd" clip-rule="evenodd" d="M253.29 156.508C255.371 157.853 258.128 158.527 261.531 158.527C263.982 158.527 266.768 158.177 269.877 157.478C270.223 157.399 270.441 157.056 270.363 156.71C270.284 156.364 269.942 156.143 269.596 156.224C260.827 158.199 256.292 156.898 254.034 155.46C251.794 154.034 251.375 152.271 251.353 152.18C251.282 151.833 250.945 151.611 250.597 151.683C250.25 151.754 250.026 152.093 250.098 152.441C250.117 152.535 250.602 154.77 253.29 156.508Z" fill="#393F49"/>
<path fill-rule="evenodd" clip-rule="evenodd" d="M211.946 205.098C212.372 204.613 213.019 204.354 213.788 204.354C213.89 204.354 213.994 204.359 214.099 204.368C215.077 204.452 216.085 204.911 216.938 205.662C217.791 206.413 218.374 207.355 218.582 208.315C218.774 209.203 218.616 209.994 218.133 210.544C217.651 211.092 216.88 211.345 215.98 211.275C215.002 211.191 213.995 210.73 213.141 209.981C212.289 209.23 211.704 208.288 211.497 207.327C211.304 206.438 211.464 205.647 211.946 205.098ZM212.295 210.944C213.352 211.875 214.622 212.446 215.872 212.554C216.015 212.566 216.157 212.572 216.296 212.572C217.438 212.572 218.422 212.16 219.098 211.391C219.856 210.53 220.118 209.34 219.838 208.044C219.572 206.817 218.843 205.629 217.786 204.699C216.729 203.767 215.458 203.195 214.209 203.089C212.888 202.973 211.742 203.388 210.983 204.251C210.225 205.112 209.963 206.301 210.243 207.6C210.509 208.825 211.237 210.013 212.295 210.944Z" fill="#393F49"/>
<path fill-rule="evenodd" clip-rule="evenodd" d="M314.6 215.489C314.605 215.135 314.323 214.844 313.967 214.837C305.051 214.692 298.313 217.504 298.031 217.624C297.705 217.763 297.554 218.138 297.692 218.464C297.795 218.709 298.033 218.856 298.282 218.856C298.366 218.856 298.451 218.84 298.533 218.805C298.6 218.776 305.288 215.967 313.948 216.122C314.3 216.084 314.594 215.843 314.6 215.489Z" fill="#393F49"/>
<path fill-rule="evenodd" clip-rule="evenodd" d="M334.716 226.027C334.716 234.725 327.645 241.8 318.953 241.8H303.532L302.671 238.768C303.801 238.674 304.797 238.563 305.602 238.43C313.094 237.192 318.681 234.737 322.21 231.134C325.971 227.293 327.358 222.208 326.332 216.016C324.616 205.666 321.979 200.545 321.095 199.05C322.607 197.857 323.875 196.709 324.728 195.666L325.067 195.25L324.717 194.842C324.035 194.044 322.083 191.299 319.382 187.5C315.099 181.476 308.627 172.372 301.397 162.846C293.288 152.16 281.575 149.069 275.295 148.167L274.947 133.652C274.946 133.606 274.929 133.567 274.92 133.525C276.838 133.531 279.193 132.994 280.864 130.768C282.221 128.959 282.508 126.896 281.67 124.96C281.247 123.981 280.542 123.112 279.726 122.475C279.85 122.326 280.078 121.924 280.228 121.546C280.228 121.546 281.459 119.375 282.575 116.191H318.953C327.645 116.191 334.716 123.267 334.716 131.965V226.027ZM191.409 226.027V215.402L198.433 228.776C198.356 228.957 198.311 229.155 198.311 229.364V231.176C198.311 232 198.981 232.671 199.805 232.671H225.412C225.932 233.041 226.577 233.49 227.314 233.981L226.303 241.8H207.174C198.482 241.8 191.409 234.725 191.409 226.027ZM254.903 229.153H281.483C281.599 229.153 281.693 229.247 281.693 229.364V231.176C281.693 231.293 281.599 231.387 281.483 231.387H260.521C259.242 230.751 257.326 229.91 254.903 229.153ZM199.805 231.387C199.689 231.387 199.595 231.293 199.595 231.176V229.364C199.595 229.247 199.689 229.153 199.805 229.153H236.947C236.987 229.265 237.031 229.378 237.092 229.49C237.435 230.131 238.175 230.768 239.149 231.387H199.805ZM259.483 237.34C259.42 237.34 259.357 237.346 259.298 237.359C259.162 237.394 245.91 240.793 239.339 238.745C235.193 237.454 230.594 234.632 227.685 232.671H241.547C246.355 234.901 253.289 236.652 254.373 236.918C254.425 236.93 254.476 236.936 254.527 236.936C254.815 236.936 255.078 236.741 255.15 236.447C255.234 236.104 255.024 235.755 254.68 235.671C250.573 234.661 239.611 231.472 238.222 228.883C238.081 228.62 238.11 228.463 238.145 228.366C238.37 227.739 240.044 227.406 244.08 228.339C245.296 228.619 246.605 228.796 247.872 228.968C249.151 229.14 250.472 229.319 251.691 229.604C257.716 231.011 261.608 233.437 261.647 233.461C261.947 233.649 262.343 233.56 262.532 233.26C262.648 233.075 262.647 232.858 262.569 232.671H281.483C282.307 232.671 282.977 232 282.977 231.176V229.364C282.977 228.539 282.307 227.868 281.483 227.868H268.555L296.655 219.135C296.831 219.08 296.975 218.951 297.05 218.783C297.125 218.614 297.124 218.422 297.048 218.255L295.272 214.376C297.03 213.486 302.668 210.596 307.818 207.566C313.494 204.227 318.443 200.937 320.068 199.843C320.956 201.413 323.449 206.474 325.065 216.226C326.022 221.991 324.752 226.704 321.294 230.236C317.96 233.64 312.61 235.971 305.393 237.164C295.962 238.72 259.847 237.353 259.483 237.34ZM227.601 241.77L228.506 234.761C231.42 236.627 235.32 238.838 238.958 239.971C240.623 240.491 242.651 240.689 244.778 240.689C251.207 240.689 258.545 238.877 259.528 238.626C261.721 238.709 288.62 239.705 301.364 238.866L302.188 241.77H227.601ZM256.586 122.874C256.538 121.507 257.024 120.203 257.956 119.202C258.888 118.201 260.153 117.623 261.519 117.574C261.582 117.572 261.643 117.571 261.706 117.571C263.003 117.571 264.235 118.055 265.189 118.944C266.189 119.877 266.767 121.143 266.816 122.511C266.864 123.877 266.378 125.181 265.446 126.182C264.514 127.183 263.248 127.761 261.882 127.81C260.517 127.852 259.214 127.372 258.212 126.44C257.212 125.507 256.635 124.241 256.586 122.874ZM178.979 187.77C179.191 187.418 179.562 187.21 179.972 187.21H231.805C232.83 187.21 233.763 187.774 234.24 188.682L248.572 215.969C248.736 216.283 249.123 216.403 249.438 216.239C249.751 216.075 249.872 215.686 249.706 215.372L235.377 188.086C235.177 187.706 234.92 187.373 234.624 187.084C236.54 173.949 238.334 166.03 238.358 165.923C238.437 165.577 238.222 165.233 237.876 165.154C237.531 165.073 237.187 165.29 237.107 165.637C237.083 165.742 235.336 173.457 233.446 186.276C232.938 186.05 232.382 185.925 231.805 185.925H219.473C218.632 184.143 218.039 182.754 217.787 182.149C219.458 179.915 230.259 165.527 233.928 162.039C241.798 154.559 248.302 151.342 251.457 150.093C251.612 149.589 251.769 149.054 251.903 148.545C249.082 149.525 241.98 152.615 233.045 161.109C229.004 164.95 217.048 180.991 216.541 181.673L216.327 181.961L216.46 182.294C216.5 182.396 216.662 182.796 216.929 183.421L216.357 183.945C215.535 183.095 213.426 180.761 209.539 175.575C204.12 168.347 199.751 162.668 198.656 161.354C197.986 160.548 198.014 160.055 198.303 157.222C198.385 156.424 198.483 155.459 198.581 154.278C199.025 148.949 199.247 145.842 199.247 145.842C199.267 145.574 199.117 145.322 198.873 145.211C197.898 144.77 196.928 144.772 195.99 145.224C193.596 146.374 192.057 150.296 191.409 152.29V131.965C191.409 123.267 198.482 116.191 207.174 116.191H241.651C240.847 117.304 240.412 118.631 240.462 120.026C240.52 121.684 241.22 123.219 242.434 124.349C242.89 124.775 243.411 125.101 243.957 125.367C243.895 126.63 243.871 127.867 243.912 129.027C244.185 136.777 248.62 140.68 252.68 141.749C254.077 142.118 255.405 142.304 256.702 142.304C259.01 142.304 261.22 141.714 263.545 140.513C265.807 139.343 268.134 137.474 269.767 135.514C269.995 135.24 269.957 134.835 269.685 134.608C269.412 134.382 269.008 134.419 268.782 134.69C267.275 136.499 265.043 138.293 262.956 139.372C259.628 141.094 256.559 141.443 253.007 140.508C251.758 140.179 245.514 138.079 245.194 128.982C245.159 127.983 245.172 126.919 245.22 125.826C245.688 125.938 246.164 126.014 246.656 126.014C246.731 126.014 246.807 126.013 246.881 126.01C248.106 125.966 249.262 125.568 250.239 124.874C250.031 125.269 249.794 125.683 249.514 126.121C248.017 128.461 248.033 128.532 248.1 128.825C248.153 129.059 248.333 129.244 248.564 129.303L251.879 130.165C251.933 130.179 251.987 130.186 252.041 130.186C252.326 130.186 252.586 129.993 252.661 129.705C252.75 129.361 252.545 129.012 252.201 128.922L249.684 128.268C249.873 127.956 250.159 127.494 250.594 126.814C252.938 123.151 252.836 120.744 252.832 120.644C252.829 120.603 252.812 120.568 252.803 120.529C252.839 120.218 252.873 119.906 252.861 119.587C252.848 119.203 252.792 118.828 252.711 118.461C253.431 118.204 254.953 117.929 256.172 119.489C255.573 120.521 255.26 121.697 255.304 122.918C255.364 124.628 256.087 126.212 257.337 127.379C258.532 128.492 260.071 129.097 261.695 129.097C261.773 129.097 261.85 129.095 261.928 129.093C263.637 129.033 265.219 128.31 266.384 127.058C267.55 125.805 268.159 124.174 268.098 122.465C268.037 120.755 267.315 119.172 266.063 118.005C264.812 116.838 263.174 116.215 261.474 116.291C259.765 116.352 258.182 117.074 257.017 118.326C256.991 118.354 256.974 118.388 256.948 118.417C255.447 116.746 253.53 116.819 252.313 117.239C251.979 116.503 251.5 115.832 250.891 115.264C249.742 114.194 248.258 113.619 246.705 113.618C247.138 111.195 247.525 109.4 247.642 108.873C247.859 108.635 248.119 108.42 248.372 108.202C251.254 107.989 253.169 106.53 255.092 106.425C257.475 106.294 261.745 109.241 261.745 109.241C261.745 109.241 263.742 108.977 262.727 106.893C261.713 104.809 267.318 109.655 268.466 111.4C271.854 116.552 272.34 122.265 272.4 124.724C272.403 124.817 272.626 124.47 272.962 124.001L273.811 123.49C273.828 123.48 275.472 122.5 277.217 122.699C278.274 122.815 279.783 123.827 280.492 125.469C280.95 126.527 281.208 128.172 279.838 129.997C277.186 133.532 272.255 131.87 272.045 131.796C271.715 131.683 271.346 131.856 271.229 132.19C271.112 132.525 271.288 132.89 271.622 133.007C271.711 133.038 272.538 133.317 273.703 133.454C273.679 133.525 273.661 133.602 273.663 133.683L274.14 153.507C274.149 153.856 274.434 154.133 274.782 154.133H274.798C275.151 154.124 275.432 153.83 275.423 153.475L275.327 149.464C281.433 150.372 292.62 153.403 300.375 163.622C307.591 173.132 314.058 182.226 318.336 188.245C320.782 191.686 322.51 194.114 323.396 195.248C322.432 196.326 321.04 197.516 319.385 198.753C317.827 199.805 312.874 203.101 307.167 206.46C306.669 206.753 306.167 207.044 305.663 207.332C299.741 210.628 294.718 213.094 294.609 213.147L294.127 213.383L294.129 213.386C289.786 215.536 285.159 216.056 283.722 216.169C283.165 214.692 281.223 209.256 278.238 197.86C275.335 186.783 274.654 178.578 274.648 178.496C274.619 178.143 274.322 177.88 273.956 177.908C273.604 177.936 273.34 178.246 273.367 178.599C273.375 178.681 274.063 186.991 276.995 198.186C280.577 211.858 282.615 216.877 282.701 217.084L282.87 217.497L283.316 217.482C283.553 217.474 288.826 217.258 294.072 214.84L295.306 217.532L295.482 218.154L264.536 227.773C264.478 227.791 264.435 227.835 264.385 227.868H256.27L253.045 221.729C252.88 221.416 252.493 221.292 252.179 221.459C251.865 221.624 251.744 222.013 251.91 222.326L254.755 227.744H248.387C248.273 227.729 248.158 227.711 248.044 227.695C246.75 227.52 245.527 227.354 244.369 227.087C240.07 226.095 237.743 226.312 237.041 227.744H199.341L178.945 188.909C178.755 188.547 178.769 188.121 178.979 187.77ZM188.098 175.008C188.045 174.901 187.962 174.81 187.859 174.748C187.792 174.707 181.034 170.524 176.728 164.923C172.252 159.101 172.028 157.787 172.197 156.77C172.257 156.41 172.348 156.253 172.346 156.193C175.546 158.084 178.842 161.508 179.628 162.349C179.087 163.54 178.873 164.356 178.85 164.446C178.766 164.79 178.976 165.138 179.321 165.222C179.371 165.235 179.424 165.241 179.474 165.241C179.762 165.241 180.025 165.046 180.096 164.753C180.1 164.737 180.792 162.509 182.151 160.6C183.916 158.122 186.546 155.757 187.586 155.082C187.882 154.89 187.967 154.492 187.773 154.194C187.581 153.897 187.183 153.811 186.885 154.006C186.52 154.242 186.175 154.488 185.84 154.736C185.817 154.698 185.8 154.658 185.768 154.624C185.768 154.624 184.245 153.046 182.847 151.639C179.593 148.365 176.882 145.854 176.483 145.485C176.386 145.303 176.226 144.9 176.333 144.553C176.415 144.293 176.656 144.073 177.046 143.901C178.246 143.365 184.448 147.681 187.883 150.735C189.278 151.976 190.314 153.071 190.828 153.637C190.215 154.451 189.224 156.329 189.611 159.753C189.935 162.615 192.085 165.33 192.177 165.444C192.304 165.604 192.49 165.685 192.677 165.685C192.818 165.685 192.959 165.639 193.078 165.545C193.355 165.324 193.399 164.919 193.179 164.643C193.159 164.617 191.167 162.097 190.887 159.608C190.437 155.64 192.016 154.19 192.097 154.119C192.104 154.113 192.107 154.103 192.113 154.097C192.131 154.082 192.139 154.063 192.154 154.046C192.212 153.981 192.253 153.908 192.28 153.828C192.284 153.813 192.299 153.803 192.303 153.788C192.737 152.087 194.345 147.438 196.545 146.381C197.002 146.162 197.457 146.112 197.932 146.235C197.854 147.298 197.644 150.079 197.303 154.171C197.205 155.343 197.108 156.299 197.027 157.091C196.733 159.964 196.635 160.932 197.671 162.176C198.755 163.477 203.106 169.133 208.512 176.345C213.81 183.413 215.83 185.237 215.914 185.312C216.159 185.53 216.53 185.527 216.774 185.306L217.473 184.665C217.645 185.051 217.835 185.47 218.046 185.925H193.925C190.668 180.135 188.127 175.066 188.098 175.008ZM170.946 150.236C171.086 149.956 171.25 149.875 171.361 149.837C171.711 149.725 172.164 149.883 172.342 149.966C172.623 150.18 175.307 152.231 177.631 154.751C179.083 156.325 180.8 158.078 181.645 158.932C181.074 159.706 180.614 160.448 180.242 161.128C179.056 159.886 176.005 156.848 172.94 155.052C172.158 154.169 170.273 151.586 170.946 150.236ZM173.605 145.981C174.522 145.459 175.495 146.321 175.534 146.356C175.534 146.356 175.534 146.356 175.535 146.356C175.535 146.356 175.535 146.356 175.535 146.357C175.564 146.383 178.455 149.041 181.937 152.545C183.329 153.945 184.845 155.516 184.846 155.518C184.847 155.519 184.849 155.519 184.85 155.52C183.918 156.305 183.126 157.117 182.45 157.919C181.58 157.039 179.959 155.381 178.576 153.881C176.373 151.493 173.904 149.546 173.231 149.03C173.015 148.239 172.735 146.478 173.605 145.981ZM243.061 116.451C243.156 116.348 243.275 116.283 243.378 116.191H244.967C244.587 118.602 244.231 121.302 244.039 123.968C243.782 123.805 243.535 123.621 243.308 123.409C242.346 122.512 241.79 121.295 241.744 119.981C241.697 118.667 242.165 117.413 243.061 116.451ZM246.484 114.886C246.486 114.886 246.486 114.886 246.487 114.885C246.547 114.883 246.607 114.882 246.667 114.882C247.914 114.882 249.097 115.347 250.016 116.203C250.977 117.101 251.532 118.318 251.579 119.632C251.626 120.946 251.159 122.2 250.262 123.162C249.366 124.125 248.149 124.68 246.836 124.727C246.304 124.746 245.788 124.66 245.29 124.514C245.508 121.206 246.002 117.735 246.484 114.886ZM318.953 114.907H282.995C284.255 110.841 285.106 105.558 283.292 100.955C279.568 91.5127 272.95 91.2622 269.235 91.3046C265.481 91.346 261.756 92.6913 261.756 92.6913C261.756 92.6913 258.588 89.3487 253.804 90.0789C248.507 90.8874 246.966 95.7429 244.024 97.2411C241.081 98.7402 239.269 98.5367 240.356 101.166C241.442 103.795 243.104 107.636 246.129 108.123C246.281 108.147 246.413 108.142 246.56 108.159L246.463 108.272L246.428 108.428C246.38 108.634 245.9 110.759 245.372 113.745C244.455 113.939 243.598 114.333 242.857 114.907H207.174C197.774 114.907 190.127 122.559 190.127 131.965V151.073C189.713 150.67 189.252 150.235 188.735 149.775C188.641 149.692 179.271 141.519 176.53 142.725C175.594 143.137 175.238 143.748 175.105 144.185C175.057 144.341 175.031 144.494 175.02 144.643C174.429 144.468 173.707 144.442 172.968 144.866C171.629 145.632 171.637 147.373 171.814 148.52C171.55 148.504 171.259 148.522 170.971 148.614C170.465 148.778 170.06 149.14 169.799 149.661C168.863 151.536 170.528 154.081 171.48 155.302C171.208 155.587 171.023 156.008 170.932 156.559C170.66 158.191 171.306 159.976 175.711 165.706C179.846 171.085 185.951 175.063 187.032 175.745C187.475 176.623 189.67 180.945 192.453 185.925H179.972C179.109 185.925 178.328 186.367 177.881 187.106C177.435 187.845 177.408 188.742 177.81 189.506L190.127 212.959V226.027C190.127 235.434 197.774 243.085 207.174 243.085H318.953C328.352 243.085 336 235.434 336 226.027V131.965C336 122.559 328.352 114.907 318.953 114.907Z" fill="#393F49"/>
</mask>
<g mask="url(#mask3_5_4318)">
<rect x="-27.9187" y="-48.3599" width="395.293" height="394.805" rx="35.4311" fill="#475574"/>
</g>
<path fill-rule="evenodd" clip-rule="evenodd" d="M15.8833 89.2559C15.8225 89.2209 15.817 89.1482 15.8962 89.1022C15.8768 89.1638 16.0775 89.0801 16.2192 89.0525C16.1244 89.1095 16.0075 89.1804 15.8833 89.2559ZM15.2809 89.6764C15.3159 89.6461 15.3628 89.601 15.4549 89.5375L15.4567 89.5402C15.3794 89.5908 15.3186 89.6424 15.2809 89.6764ZM13.8883 89.2356V89.2641C13.8782 89.2283 13.8718 89.1924 13.8801 89.1556C13.9859 89.0424 14.0485 89.0387 14.0872 89.0552C14.0347 89.1031 13.9721 89.1602 13.8883 89.2356ZM88.8695 36.1614C88.9966 36.1853 88.898 36.3215 88.7995 36.3289C88.4744 36.3979 88.3878 36.1798 88.3832 36.1145L88.6116 36.1219C88.4633 35.7142 87.7127 35.9838 87.2743 35.9038L87.5055 35.6709L87.009 35.8145C86.9225 35.7298 86.8755 35.5716 87.1048 35.5688C86.7981 35.3884 86.8055 35.6084 86.5439 35.4354C86.5154 35.4096 86.532 35.3986 86.5614 35.3912L86.2317 35.4363C86.3017 35.3866 86.1995 35.244 86.3929 35.3028C85.8283 35.094 85.4461 35.394 85.2435 35.1924L85.2932 35.1777C84.4846 35.2357 85.2011 35.37 84.5951 35.5762L84.2046 35.0774L84.1226 35.2697C84.0397 35.2559 83.8767 35.244 83.9071 35.1667C83.5986 35.3111 83.9596 35.2495 83.7809 35.3829C83.3803 35.2173 82.6951 35.5016 82.5864 35.1933C82.4538 35.347 82.9732 35.2955 82.5569 35.4133C82.4095 35.0756 82.0743 35.5219 81.6994 35.4068C81.7915 35.2219 82.148 35.2725 81.7658 35.1611C81.5806 35.4795 81.0464 35.174 80.7444 35.2771C80.7517 35.3479 80.6836 35.394 80.5887 35.4335C80.6228 35.3535 80.6753 35.3056 80.7444 35.2771C80.7398 35.243 80.7223 35.2053 80.6863 35.1593C80.6025 35.1685 80.6034 35.3498 80.5859 35.4344C80.3658 35.5246 79.9523 35.567 79.6106 35.693C79.6198 35.5854 78.6334 35.7998 78.1471 35.8881L78.148 35.8467C78.1342 36.1071 77.6378 36.1918 77.3228 36.3814C77.286 36.2488 77.3191 36.1541 77.4877 36.0372C77.3762 36.0676 77.274 36.1209 77.1681 36.1669C77.1211 36.27 77.0382 36.3501 76.8457 36.4651L76.8568 36.2682C76.4405 36.4743 76.0896 36.8129 75.5186 36.9859C75.5711 37.1461 76.1237 37.1571 75.6567 37.5629C75.595 37.4958 75.502 37.3752 75.6227 37.2611C75.583 37.2979 75.4974 37.4212 75.3887 37.4415L75.5278 37.1856C75.2681 37.2629 75.4679 37.366 75.28 37.4608C75.222 37.3485 75.1004 37.4626 75.0765 37.3596C75.117 37.3209 75.2625 37.3108 75.3077 37.2252C75.0903 37.3283 74.802 37.4129 74.6685 37.3807C74.7237 37.4313 74.756 37.527 74.6142 37.6301C74.2264 37.8721 74.3977 37.5813 74.1315 37.6651C74.08 37.7893 73.7852 37.8767 73.8921 38.0442C73.7862 38.1252 73.7152 38.0681 73.6443 38.058C73.5043 38.2715 72.7804 38.7565 73.1166 38.7509L73.1719 38.7243L73.147 38.7546C72.6349 39.3381 71.8649 39.7098 71.3787 40.3126L71.3344 40.2684C71.0563 40.6365 70.6465 41.0156 70.5461 41.3534C70.4576 41.4527 70.2523 41.5153 70.2329 41.4224C70.0441 41.715 70.0708 41.7877 69.6702 42.1024C69.8093 41.7656 69.5182 42.1309 69.8378 41.7785C69.5081 42.0859 69.3607 42.0978 69.1885 42.58C69.1682 42.35 68.8146 42.7098 68.7188 42.9076L69.0071 42.7374C68.8744 42.938 68.7308 43.0917 68.5862 43.2481L68.4922 43.0245C67.7094 43.5812 67.8107 44.5944 67.0426 44.8824C67.0131 45.1659 67.4285 44.5511 67.4358 44.83C67.1558 45.1456 66.6456 45.3103 66.5664 45.4162C66.1234 45.8073 66.4918 46.0346 66.0672 46.4707C66.1741 46.4533 66.3804 46.5168 66.1713 46.9207C65.8996 47.2428 65.6076 47.1499 65.7145 46.8987C65.7697 46.8131 65.8176 46.7882 65.836 46.8066C65.8941 46.6806 65.9751 46.5177 65.8093 46.6033L65.8379 46.6925C65.6509 46.8149 65.3148 47.2879 65.2945 47.1048C65.1656 47.4048 65.3157 47.2879 65.4861 47.1204C65.079 47.4931 64.9869 47.8023 64.6028 48.2109C64.6885 48.163 64.8091 48.1492 64.7566 48.2201C64.204 48.8256 64.6645 48.5928 64.367 49.0557C64.088 49.237 64.2086 48.8026 63.9609 49.3023C63.6984 49.525 63.7564 49.2379 63.785 49.0943C63.6054 49.583 63.1578 49.7882 62.9561 49.9879L63.0693 49.7458C63.0012 49.8903 62.9211 49.9906 62.8391 50.0918L63.0528 50.0688C62.9358 50.1728 62.8547 50.274 62.8069 50.2326C62.7857 50.4185 63.0822 50.2943 62.992 50.6256C62.8032 50.7388 62.665 51.1704 62.4642 51.0977C62.9201 50.6348 62.2625 51.0259 62.5766 50.5777C62.5296 50.6753 62.4495 50.7756 62.3325 50.8786C62.3003 50.8823 62.3141 50.8354 62.3307 50.7949C61.8085 51.1621 62.3307 51.1602 61.9135 51.6461C61.8785 51.5108 61.6519 51.6185 61.6031 51.7133C61.7716 51.52 61.8278 51.7427 61.7394 51.9802C61.4051 52.2332 61.4981 52.362 61.3498 52.5194L61.5414 52.3602C61.5718 52.4992 61.429 52.6473 61.2568 52.8801C61.1739 52.8378 61.3894 52.6473 61.29 52.6961C61.22 53.0651 60.6471 53.0835 60.4445 53.4995C60.2483 53.5961 60.2759 53.366 60.1166 53.4608C59.8716 53.9126 59.6266 53.7249 59.3457 54.1749C59.5575 54.1804 59.552 54.1335 59.3945 54.4988L59.9278 53.8215L59.6929 54.3654C59.8799 54.185 60.0144 53.9136 60.1433 53.8234C60.0457 54.0948 60.0365 54.0497 60.2161 54.0516C59.8007 54.1381 59.8062 54.6433 59.4047 54.8227L59.1532 54.5375C58.5804 54.8126 58.4919 55.4282 57.8067 55.8516L58.0471 55.7411C58.0609 55.9243 57.6787 56.0678 57.5175 56.2785C57.4577 56.1644 57.3038 56.2298 57.1712 56.2362C57.2421 56.3071 56.7024 56.5703 56.7936 56.8178L56.4105 56.8923C55.856 57.2043 56.0062 57.5945 55.4637 57.9037C55.5475 57.6856 55.2666 57.761 55.5576 57.4537C55.3854 57.5641 55.2215 57.646 55.2629 57.7196C55.1201 57.7095 54.8558 58.1475 54.632 58.1365C54.5841 58.2267 54.6246 58.361 54.4147 58.4613C54.3806 58.4494 54.387 58.4061 54.387 58.4061C54.4156 58.4613 54.1006 58.6408 54.3465 58.6767C53.6097 58.6113 52.7338 59.4635 52.0863 59.2886C51.6839 59.4819 51.17 59.6355 50.7794 59.7368C50.7969 59.6954 50.7675 59.6751 50.8448 59.6751C50.2803 59.6475 50.5741 60.103 49.9165 60.0598C49.5692 59.8868 50.2388 59.918 50.027 59.8601C49.8842 59.4543 49.3031 59.988 48.8122 59.7865L48.9199 59.7515C48.5635 59.642 48.0947 59.9843 47.5366 60.0055C47.5366 60.0055 47.5596 59.9668 47.532 59.9429C47.1746 60.195 46.4774 60.4021 45.9626 60.5438C46.0934 60.3561 46.1855 60.4187 46.0528 60.2733C45.8198 60.3395 46.1717 60.5153 45.7139 60.6551C45.5444 60.6073 45.1908 60.6183 45.1005 60.4591L45.5435 60.334C45.2626 60.1711 44.967 60.4923 44.7238 60.5144L44.7275 60.4104C44.0451 60.6119 44.1233 60.8898 43.4077 61.1226L43.5081 61.1668C43.2208 61.5469 43.1231 61.1355 42.8284 61.4916L42.611 61.3159C42.3854 61.4953 41.8475 61.9425 41.4801 62.2655C41.6025 61.9444 42.0603 61.5735 42.3449 61.3315C42.0898 61.4373 41.5141 61.7741 41.4681 61.9748C41.5482 61.8947 41.6357 61.7659 41.7481 61.741C41.5675 62.1054 41.236 62.3843 40.8151 62.7137C40.7046 62.4873 40.4062 62.6879 40.0663 62.9419C39.743 63.2171 39.4115 63.5704 39.1223 63.5907C38.6259 64.4677 37.8762 65.1606 37.4672 66.2722C37.9701 66.0311 37.3549 66.5925 37.75 66.6596C37.6781 66.898 37.6579 66.9909 37.6247 67.0112C37.6229 67.0139 37.621 67.0167 37.6183 67.0204L37.6201 67.0213C37.4718 67.2486 37.3097 67.4796 37.1799 67.7216C37.0251 67.8799 37.1541 67.4556 37.0629 67.4566C36.899 68.0197 36.8456 67.6553 36.6531 68.017C36.805 67.9691 36.8087 68.2581 36.6982 68.5746L36.9598 68.1504C37.0215 68.9768 36.5057 68.7845 36.6061 69.6127L36.514 69.3449C36.5296 69.7737 36.3464 70.8375 36.6236 71.2534C36.5711 71.3178 36.4541 71.3988 36.444 71.2231C36.3058 72.1562 36.549 73.3433 36.2358 74.0298L36.152 73.9451C36.1511 74.1199 36.2847 74.2736 36.1511 74.4705C36.1143 74.4521 36.0691 74.385 36.0498 74.4623C36.0655 74.557 36.129 74.9435 36.0314 75.158L35.9623 74.9454C35.6657 75.7966 35.9245 76.3469 35.7707 77.0978C35.4926 77.0122 35.2135 77.6564 35.033 77.9508L34.9989 77.9251C34.6094 78.8554 34.5347 79.5971 34.1037 80.4529C33.8256 80.6223 33.4986 80.9784 33.1514 81.3732C32.7756 81.7615 32.363 82.1664 31.9624 82.3799C32.1024 82.3376 32.0849 82.564 31.9697 82.6827C31.7708 82.7664 31.5967 83.1925 31.4816 82.9477L31.5479 82.9136C31.2744 82.7784 30.9659 83.0544 30.6555 83.1713L30.7411 83.5053C29.7916 83.4188 28.4322 84.3299 27.805 84.006C27.5876 84.1329 27.2993 84.1845 27.0838 84.3106L27.0626 84.1302C26.4023 84.2075 26.0725 84.2461 25.2722 84.4578L25.4103 84.2967C24.9498 84.3777 24.9462 84.9326 24.5345 85.0375L24.3475 84.802C23.561 84.9915 22.6971 84.9611 21.9953 85.4259C21.9971 85.3845 21.9989 85.3026 22.1224 85.2556C21.753 85.3513 20.6469 85.494 20.8928 85.8151C20.8118 85.586 20.0888 86.0479 19.7093 86.2817L19.7176 86.0912C19.4376 86.416 19.4478 86.4998 18.9854 86.7418C18.8952 86.7593 18.8565 86.6995 18.9108 86.6599C18.6354 86.7418 18.7146 86.9148 18.267 86.9976L18.3969 86.8246C17.9963 86.97 18.0478 87.005 17.8922 87.224C17.6868 87.409 17.1609 87.5433 17.0301 87.4292C17.0228 87.5424 16.8782 87.7632 16.635 87.835C16.5751 87.7964 16.6387 87.7218 16.67 87.685C15.97 87.8939 15.8761 88.4065 15.3649 88.5013C15.3235 88.4571 15.2811 88.4497 15.236 88.4562C15.7168 88.158 16.1073 87.9243 16.0778 87.9583C15.9968 87.8148 15.5887 88.0375 15.7849 87.6455C15.528 87.9528 15.143 88.5151 14.7239 88.689C14.6972 88.689 14.6714 88.689 14.6438 88.6789L14.6705 88.6356C14.5784 88.6844 14.5139 88.7543 14.4605 88.8298C14.3316 88.8942 14.2468 88.9338 14.1363 89.0166C14.012 88.9393 13.6712 89.2816 13.4842 89.4169C13.6132 89.5457 13.3581 89.7049 13.6749 89.6497C13.6381 89.6617 13.6952 89.6065 13.8103 89.508C13.8342 89.4841 13.8646 89.4565 13.8757 89.4344L13.8729 89.4565C13.9899 89.3626 14.1418 89.2402 14.3141 89.1022C14.2266 89.2853 14.1271 89.4592 13.8655 89.5338C13.8462 89.6957 13.8204 89.865 13.8002 89.9515C13.3885 89.9313 12.8764 90.2644 12.7023 90.2009C12.2372 90.731 11.5704 91.4147 11.5474 91.9696C11.4507 92.1435 11.3236 92.0745 11.2342 92.0957C11.283 91.9889 11.3779 91.8905 11.3816 91.8123C11.167 92.15 10.6614 92.7389 10.8032 92.9616C10.4265 93.2975 10.7921 92.6064 10.4219 93.1806L10.4173 93.0638C9.84535 93.4889 9.69707 94.0641 9.53498 94.618C9.34709 95.1646 9.24302 95.7398 8.71344 96.3204C8.78343 96.2386 8.81751 96.1962 8.86264 96.1935C8.00058 97.6944 7.92322 99.5348 7.56679 101.185C7.4535 101.663 7.65705 101.719 7.77217 102.005L7.58336 102.115L7.83296 102.599C7.9969 103.268 7.55113 103.877 7.99598 104.709L8.10097 104.565C8.14057 104.885 8.48042 105.503 8.3128 105.501C8.34596 105.526 8.4749 105.558 8.44911 105.698L8.35701 105.741C8.50161 105.968 8.61305 106.206 8.78436 106.415C8.98237 106.991 8.3699 106.485 8.74936 107.309C8.93448 107.6 9.42906 108.028 9.43274 107.879C9.3784 107.758 9.3388 107.545 9.42445 107.488L9.60037 107.729C9.8868 107.635 10.2414 107.666 10.1272 106.953L9.75417 106.605L9.81772 106.405L10.0019 106.76C10.025 106.497 9.85456 106.423 9.70628 106.31C9.76062 106.244 9.78088 106.163 9.76523 106.068C9.60129 105.969 9.4659 105.857 9.32959 105.739C9.42169 105.645 9.61142 105.854 9.57458 105.537C9.38209 105.374 9.3959 105.828 9.19881 105.51C9.25407 105.245 9.38117 105.277 9.18684 105.057C9.24762 104.998 9.31301 105.038 9.3784 105.127C9.21723 104.93 9.13986 104.546 8.9529 104.467C9.07355 104.194 8.76317 103.68 9.045 103.651C8.96487 103.592 8.74844 103.278 8.69594 103.061C9.0671 103.416 8.64621 102.243 9.03119 102.321C8.70239 102.048 8.82949 101.278 8.73646 100.75C8.75857 100.781 8.80278 100.842 8.78344 100.886C8.83133 100.594 8.92895 100.518 8.99987 100.338C8.74199 100.274 8.73278 99.8081 8.64713 99.5348C8.95843 99.2192 8.89488 99.8026 9.14815 99.7262C8.94277 99.7133 9.07079 99.0802 8.88014 99.1658C9.08092 98.9238 8.99803 98.9449 9.2292 98.8538C8.93908 98.7333 9.20986 98.587 9.10763 98.321C9.38117 97.9787 9.42169 98.3045 9.46682 97.86C9.62247 97.6934 9.60958 98.0937 9.60958 98.0937C9.74957 97.6778 9.45209 97.825 9.3517 97.6925C9.45485 97.1579 9.59392 97.514 9.76246 97.3833C9.79286 97.0456 9.73299 96.741 9.8343 96.5109C9.87759 96.5091 9.91075 96.4705 9.93285 96.5422C9.9043 96.1382 10.3455 95.5787 10.374 95.1159C10.4081 95.0993 10.433 95.0956 10.4532 95.0975C10.3151 95.0975 10.2045 95.0478 10.1364 94.9926C10.2386 94.8122 10.2036 94.5821 10.3768 94.5941C10.3077 94.7018 10.3565 94.7432 10.3676 94.8186L10.4201 94.5969C10.7083 94.5444 10.3363 94.8923 10.479 94.9751C10.6254 94.5794 10.7129 94.0466 10.9736 93.8285C11.1891 93.8957 10.5951 94.4818 11.004 94.2398C10.8824 94.3558 10.7875 94.491 10.677 94.6171C11.1587 94.4736 10.5066 94.8619 10.992 94.7579C11.3604 94.2389 11.307 94.1064 11.7224 93.6159C11.7113 93.4263 11.5511 93.5478 11.54 93.3564C11.9195 92.4638 12.4279 93.1466 12.636 92.4435C12.6452 92.219 12.485 91.9715 12.9224 91.7156L12.986 92.0064C13.4465 91.585 12.9961 91.5058 13.5938 91.1709C13.5736 91.3227 13.2862 91.5684 13.3765 91.5242C13.8223 91.3751 13.5017 91.2169 13.7449 90.9905L13.9401 91.1074C14.3979 90.6206 14.9155 90.0767 15.4884 89.5881C15.4893 89.6635 15.4211 89.7868 15.6062 89.7491C15.9719 89.4555 16.4011 89.1933 16.8367 88.9595C17.2898 88.7553 17.7632 88.6025 18.1869 88.4553L18.4162 88.1313C18.4927 88.1047 18.5894 88.1553 18.5231 88.2206C18.8777 88.1589 18.4927 88.1046 18.6207 87.9749C18.8031 87.8893 18.909 87.9786 18.8132 88.0761C19.0692 87.8912 19.4524 87.6491 19.8576 87.4458C20.2757 87.259 20.7252 87.1264 21.0743 87.1182L20.9665 87.2111C21.4859 87.1246 21.4159 86.659 21.9354 86.6939L21.8553 86.7519C22.9669 86.5053 24.1467 86.0259 25.0567 86.117C25.158 85.8087 26.1812 86.0019 26.1775 85.6154C26.8545 85.6716 26.6813 85.7765 27.6106 85.7286C27.8575 85.701 27.9293 85.4295 28.224 85.3348L28.2682 85.5271L28.6431 85.2427L28.9092 85.4323L29.1883 85.321C29.0695 85.3357 28.9249 85.2878 28.9314 85.228C29.3587 85.0504 30.0642 85.1075 30.1093 85.1912C30.4593 85.0467 30.8102 84.8562 31.1464 84.6667C31.1547 84.7559 30.9824 84.8452 30.8526 84.9446C31.3646 84.5424 31.0414 85.1065 31.5037 84.7016C31.4135 84.6934 31.4927 84.5774 31.4862 84.536C31.7984 84.536 32.3943 84.1992 32.7388 83.8624L32.7443 84.0271C33.4968 83.5274 34.089 82.8069 34.6876 82.0643C34.4205 82.2906 34.2934 82.0726 34.4473 81.8489L34.6803 81.894C34.6904 81.6759 34.4371 82.067 34.5421 81.687C34.7797 81.4339 34.881 81.6456 34.8055 81.848C34.8792 81.7219 34.9492 81.595 35.0054 81.4597C35.0708 81.4753 35.0404 81.5775 35.0901 81.6465C35.0781 81.4266 35.6943 81.1404 35.6317 80.798L35.6971 80.8091C36.1732 79.9809 36.2874 79.5585 36.5665 78.8527C36.4044 78.7717 36.5481 78.5103 36.4919 78.2527C36.7277 77.7594 37.0491 77.2174 37.1983 76.5733C37.2268 76.1039 37.0841 76.4058 37.0279 76.1794C37.1955 76.1858 37.3245 75.5435 37.365 75.9006C37.5068 75.1267 37.5428 74.9076 37.5649 73.9156C37.481 74.0113 37.4332 74.1245 37.3871 74.0546C37.3889 73.8752 37.5188 73.6653 37.5916 73.7022L37.6026 73.7509C37.5197 72.6347 38.3726 71.2838 38.1202 70.4013L38.1322 70.4501L38.0539 69.5602C38.1377 69.1682 38.1432 69.8133 38.2851 69.5344C38.1479 68.5682 38.5549 68.1136 38.6019 67.3655C39.196 66.9808 39.3304 65.4836 40.0783 65.0695L39.9604 65.0345C39.9899 64.8137 40.1556 64.89 40.2606 64.7971C40.1805 64.7557 40.0534 64.8965 40.0783 64.7631C41.0168 63.3533 42.8054 62.6622 44.4429 62.2269C45.0416 62.0447 44.6198 61.5561 45.4827 61.5993L45.3114 61.8634C46.5087 61.2579 47.9437 61.3784 49.2202 61.0582C49.1456 61.1134 49.1474 61.1778 49.0203 61.1889C49.2708 61.3214 50.1357 61.0923 50.1071 60.968C50.3318 60.957 50.1734 61.0748 50.3199 61.118C50.6404 61.1521 51.0447 60.7996 51.2307 60.9073C51.263 60.9239 51.1589 60.98 51.1055 60.9993C51.2851 60.8843 52.0127 60.7923 51.7824 60.669C52.3267 60.6137 52.7347 60.2935 53.1676 60.2466C53.3472 59.9549 54.0518 59.9944 54.0113 59.6917C54.0923 59.9677 54.958 59.5076 55.1726 59.2141C55.1174 59.3457 55.4674 59.1497 55.4139 59.3208C55.7446 59.1276 56.0209 58.9076 55.8855 58.8129C56.6637 58.73 56.9051 57.8291 57.4659 57.9534C58.2921 57.1758 58.9967 56.423 59.6846 55.7062C59.8532 55.9436 58.8889 56.4635 59.1164 56.6632C59.751 55.9371 59.9877 55.3997 60.6913 54.7878C60.8912 54.6461 60.6821 54.9727 60.6581 55.0657C61.254 54.3286 61.9448 53.7718 62.385 53.0449C62.4044 53.0651 62.3675 53.1525 62.3289 53.2326C62.4283 53.101 62.6098 52.9694 62.4983 52.8976L62.421 53.0421C62.1078 53.1139 62.5444 52.2866 62.4845 52.201C62.5913 52.6556 63.0896 51.6415 63.1688 52.282C63.2195 52.1835 63.26 52.0409 63.1762 52.0032C63.2978 51.8964 63.3677 51.8881 63.3447 52.0795C63.656 51.5734 63.4166 51.6489 63.749 51.2357C63.7979 51.2762 63.7509 51.3756 63.7748 51.4657C63.8457 51.1768 63.9157 50.8897 64.2372 50.5713C64.251 50.6164 64.3228 50.6063 64.239 50.7102C64.6894 50.0826 64.7585 49.4606 65.3516 48.8551C65.4336 49.2158 65.5911 48.6765 65.8112 48.7805L66.0156 48.3756L65.8158 48.4538C66.0488 48.1373 66.1123 47.7535 66.3748 47.5272L66.2827 47.8207L66.6806 47.2005L66.361 47.4821C66.4973 47.0891 66.0902 47.3376 66.455 46.9557C66.4117 47.056 66.6917 46.6391 66.9274 46.56V46.5618C66.9827 46.3603 67.038 46.1514 67.2608 45.9545C67.3677 45.9407 67.4367 46.1625 67.5067 46.1542C67.4616 45.88 68.0179 45.3886 67.9976 45.0665C67.9884 45.1613 68.0851 45.2413 68.122 45.2367L68.0916 45.0094C68.2445 44.8981 68.2804 44.8926 68.3421 44.9772C68.7013 44.564 67.994 44.9266 68.4977 44.4959C68.4766 44.5447 68.5106 44.5401 68.4646 44.6386C68.9196 44.1674 69.1673 43.5877 69.6094 43.1736C69.9069 43.1892 69.3239 43.6153 69.6094 43.5877C70.1178 42.8938 70.5267 42.0288 71.1235 41.4417L71.001 41.5402C70.8168 41.2199 71.5426 41.1923 71.7231 40.7994C71.6697 40.8886 71.7655 41.023 71.7581 40.9779C72.2094 40.6393 72.4756 40.0761 73.0816 39.465L73.054 39.5966C73.3662 39.454 73.7723 39.0988 74.0781 38.912C74.1104 38.7767 74.2807 38.6626 74.1085 38.635C74.6869 38.4942 75.1216 38.2218 75.5149 37.8786C75.9026 37.5298 76.3327 37.2537 76.8669 37.2464C76.7601 37.2951 76.645 37.4295 76.7297 37.3927L77.4564 36.9804C77.3412 36.87 77.3228 36.9418 77.1174 36.9068C77.181 36.7835 77.3744 36.6206 77.5687 36.5369C77.2556 36.7853 77.6535 36.7448 77.8395 36.7863C77.7981 36.7522 77.834 36.6878 77.8045 36.6491C78.3111 36.7651 77.776 36.3455 78.4105 36.3298L78.4041 36.4136C78.6067 36.3077 78.7762 36.1458 79.0166 36.0924C79.1584 36.2277 78.8084 36.2424 78.8333 36.3823C79.1473 36.259 79.3951 35.8743 79.7423 35.9857C79.6106 36.062 79.4071 36.1053 79.2772 36.1807C79.6548 36.3068 79.6788 36.2498 79.9283 36.2304L79.9035 36.2314L80.4791 36.2038L80.3271 36.1798C80.6578 35.6387 81.1561 35.9332 81.6912 35.5881C81.1671 35.9277 81.6193 35.7574 81.5991 35.9562C81.7501 35.993 81.9739 36.0271 81.9177 36.0887C82.1701 35.9111 82.3662 36.1412 82.7282 35.9084C82.7485 35.97 83.0156 35.9047 82.9621 36.0639C83.3066 36.0031 82.8756 35.9581 82.9004 35.8789C83.4374 35.6397 84.1613 36.0887 84.9414 35.8467C85.6183 35.7418 85.7602 35.5817 86.4039 35.532C86.6038 35.6535 86.2041 35.74 86.2041 35.74C86.5338 35.8623 86.788 35.878 87.1168 35.8633C87.044 35.9074 87.1039 35.9636 87.1886 36.0492C87.4438 36.074 87.3959 35.8513 87.7164 35.9967C87.6455 36.0556 87.5524 36.1541 87.4189 36.2038C87.7265 36.189 88.0406 36.1375 88.3602 36.1495C88.4182 36.2737 88.14 36.2718 88.0194 36.3188C88.3712 36.3427 88.9284 36.4099 89.0739 36.2783L88.8695 36.1614Z" fill="white"/>
</svg>
