<svg width="336" height="272" viewBox="0 0 336 272" fill="none" xmlns="http://www.w3.org/2000/svg">
<path fill-rule="evenodd" clip-rule="evenodd" d="M300.583 156.491C300.38 157.545 300.193 158.749 300.026 160.128C299.858 161.506 299.752 163.063 299.487 164.809C299.233 166.553 299.12 168.519 298.795 170.686C298.924 168.035 298.15 169.369 298.208 167.355C298.063 168.771 297.853 170.242 297.487 171.698C297.011 173.768 296.543 175.854 295.827 177.715C295.208 179.395 294.684 180.951 294.079 182.231C297.164 172.081 298.695 161.048 298.423 149.145C297.753 119.744 291.903 94.495 280.951 73.7135C282.947 76.9349 284.821 80.2446 286.558 83.6408C288.078 83.7355 282.409 71.2784 286.665 77.9805C288.442 81.3491 287.75 81.3004 287.824 82.1096L290.219 87.2512C291.046 88.9598 291.677 90.7393 292.417 92.4866C291.967 93.7933 291.556 95.0688 291.059 96.3508C292.611 105.565 294.806 112.526 297.134 120.372C299.392 128.192 301.64 136.948 301.568 149.074C301.802 149.729 302.025 150.207 302.235 150.549C301.83 151.27 301.428 152.28 301.087 153.753C300.898 154.531 300.763 155.437 300.583 156.491ZM91.0304 259.797C87.7853 259.275 85.0284 258.788 83.3532 258.764C82.0915 258.191 81.3716 257.676 81.0043 257.294C80.7413 257.023 80.6656 256.814 80.708 256.647C84.1682 257.821 87.765 258.897 91.5048 259.862C91.3498 259.841 91.1836 259.818 91.0304 259.797ZM92.9049 13.8033C86.5854 16.1557 81.2018 18.9973 76.6775 21.6844C61.7772 29.1545 48.6444 38.9456 37.7747 50.4059C51.9034 34.1737 71.3751 21.1014 92.9049 13.8033ZM203.681 11.3454C204.932 11.796 206.521 12.2778 208.118 12.9372C209.718 13.5883 211.367 14.2771 212.805 14.9181C215.678 16.2129 217.636 17.4957 216.81 17.6686C217.54 18.0622 218.294 18.4475 219.038 18.8356C213.039 16.417 206.713 14.3148 200.038 12.5574C200.516 11.8585 200.795 11.1274 203.681 11.3454ZM273.109 60.0418C274.414 61.7771 275.791 63.6586 276.856 65.9963C276.903 66.2197 276.715 66.08 276.442 65.8225C274.482 62.6949 272.371 59.7015 270.148 56.8075C271.141 57.8181 272.154 58.8619 273.109 60.0418ZM304.337 157.576C304.18 155.586 303.864 153.335 303.65 150.631C303.991 150.032 304.291 148.997 304.556 147.728C305.252 144.34 305.767 139.347 306.292 136.903L305.706 139.342C305.357 137.84 304.912 136.748 304.564 135.258C304.225 133.766 303.986 131.882 303.882 128.779C303.73 122.528 305.341 132.005 305.513 127.653C305.441 126.407 305.374 125.227 305.309 124.106C305.211 122.985 305.074 121.924 304.949 120.914C304.686 118.894 304.439 117.076 304.11 115.413C303.367 112.094 302.708 109.349 301.793 106.748C301.334 105.453 300.885 104.177 300.422 102.866C300.189 102.214 299.954 101.553 299.713 100.876C299.448 100.205 299.177 99.5189 298.897 98.8099C298.345 97.3909 297.777 95.8791 297.187 94.2146C296.549 92.562 295.832 90.7706 295.103 88.7576C294.667 86.8825 294.035 85.1104 293.45 83.3668C292.851 81.6287 292.272 79.9238 291.529 78.3144C290.823 76.6932 290.103 75.1133 289.373 73.5711C288.568 72.0592 287.746 70.5878 286.921 69.145C286.124 67.6883 285.217 66.3135 284.292 64.969C283.364 63.6273 282.486 62.2763 281.502 61.0036C279.493 58.4811 277.55 55.9733 275.319 53.666C273.206 51.2713 270.842 49.0743 268.493 46.802C267.315 45.6699 266.022 44.6234 264.778 43.5051C264.151 42.9525 263.521 42.3943 262.885 41.8324C262.222 41.3008 261.554 40.7647 260.879 40.224C255.567 35.8218 249.624 31.4757 242.724 26.9236C243.877 27.8055 245.04 28.6947 246.219 29.595C247.345 30.556 248.487 31.529 249.648 32.5185C250.225 33.0133 250.808 33.5108 251.396 34.0138C251.972 34.5297 252.527 35.0833 253.101 35.6222C254.241 36.7064 255.404 37.8109 256.594 38.9429C261.207 43.6173 265.957 48.953 270.841 55.4427C269.349 53.7616 267.658 52.2544 266.051 50.6984C264.475 49.1139 262.695 47.7289 261.017 46.2732C261.032 46.3008 261.05 46.3247 261.066 46.3523C253.626 38.7894 245.072 32.2445 235.416 26.7433C235.876 26.9677 236.356 27.2031 236.805 27.422C238.045 28.0133 239.258 28.5623 240.353 29.1812C242.557 30.3969 244.627 31.3727 246.17 32.4321C242.406 28.4897 235.257 23.2056 230.157 19.9115C228.918 19.0277 227.821 18.2479 226.942 17.6217C226.081 16.9724 225.476 16.4179 225.225 15.993C224.725 15.1451 225.631 14.8085 228.781 15.2932C227.018 14.4196 225.424 13.6581 223.969 12.9877C222.515 12.3136 221.157 11.8529 219.928 11.3857C218.694 10.9351 217.566 10.5489 216.508 10.2086C215.446 9.87665 214.436 9.65502 213.468 9.4196C211.527 8.98094 209.731 8.57631 207.742 8.24249C205.748 7.92706 203.584 7.57577 200.948 7.06355C198.355 6.30578 194.706 5.42755 191.555 4.75715C188.4 4.10238 185.77 3.44578 185.239 2.7717C180.246 2.59973 177.97 2.53812 175.073 2.25855C172.173 1.99738 168.689 1.23778 161.234 0.100217C158.653 -0.0717508 156.1 0.02205 153.835 0.057915C151.572 0.115851 149.598 0.21241 148.132 0.445073C145.221 0.852463 144.518 1.33802 147.999 1.75828C157.508 1.92198 166.958 2.54272 176.407 3.71982C182.937 5.85333 179.56 6.23037 175.118 6.44189C172.53 6.6065 169.584 6.71593 167.916 6.9394C162.082 6.37291 156.058 5.99587 149.833 5.82666C134.845 5.42019 120.522 7.06079 107.108 10.422C110.523 9.17774 113.991 8.04478 117.519 7.0801C110.955 8.15421 104.488 9.78193 98.1307 11.7324C99.5678 10.3125 102.694 8.46044 103.482 7.27598C103.875 6.69202 103.682 6.29475 102.384 6.26256C101.085 6.23129 98.6661 6.51729 94.7038 7.62175C91.6091 8.86599 88.6676 10.4054 85.7142 11.7867C82.8345 13.3574 79.9272 14.7699 77.1712 16.4565C71.5652 19.6264 66.2738 23.1881 61.0656 26.8528C50.6943 34.2786 40.8768 42.4936 30.9623 52.0649C18.7737 65.85 9.05678 82.5088 4.05433 101.038C3.46825 103.36 2.80557 105.667 2.38839 108.04L1.68694 111.583C1.49035 112.772 1.33991 113.971 1.16639 115.166C0.77967 117.553 0.594155 119.968 0.404949 122.388C0.156672 124.819 0.175131 127.185 0.0606844 129.593C-0.181131 139.191 0.282195 148.926 1.76724 158.626C2.49453 151.997 3.46087 167.054 3.32243 154.895C3.81159 156.786 4.24539 158.558 4.66626 160.443C5.27172 165.408 6.1153 170.316 7.20347 175.142C5.72766 172.081 5.07882 171.432 4.92284 172.29C4.78993 173.187 5.05759 175.75 5.66582 178.637C5.96301 180.084 6.28051 181.623 6.58232 183.093C6.90628 184.559 7.257 185.947 7.46375 187.132C7.86985 189.501 7.91969 191.006 6.87028 190.43C7.7471 192.624 8.44947 194.558 9.02632 196.306C9.67055 198.03 10.2169 199.558 10.6517 200.983C10.8639 201.698 11.0651 202.38 11.2599 203.037C11.4666 203.691 11.6651 204.321 11.8598 204.936C12.2318 206.175 12.5594 207.371 12.8935 208.584C14.4386 213.309 15.9005 218.6 22.544 227.027C24.9326 229.186 25.8131 229.446 25.6378 228.661C25.5575 228.26 25.227 227.587 24.7213 226.725C24.2164 225.862 23.6312 224.735 22.9058 223.532C22.2099 222.307 21.3405 221.024 20.5873 219.615C19.825 218.219 19.0414 216.784 18.2882 215.404C16.8281 212.63 15.6716 209.991 14.9388 208.384C16.0214 209.995 17.2047 212.453 18.5347 214.846C17.644 212.843 16.9841 210.774 16.3915 208.893C15.7999 207.011 15.5378 205.175 15.3246 203.67C15.0828 201.936 15.1289 200.552 15.3966 199.683C20.4618 210.727 27.3019 220.938 36.2444 229.867C35.8106 230.469 35.471 231.094 35.627 231.967C35.7119 232.443 35.9426 232.993 36.381 233.65C36.8342 234.293 37.5384 234.999 38.5047 235.85C38.7346 236.4 39.2357 237.084 39.9418 237.87C40.2953 238.261 40.6968 238.683 41.1472 239.117C41.6188 239.525 42.1347 239.951 42.6858 240.391C43.7878 241.273 45.0301 242.212 46.3407 243.178C47.6762 244.106 49.1409 244.975 50.5724 245.887C51.2905 246.337 52.0095 246.787 52.7202 247.233C53.453 247.64 54.1785 248.041 54.8882 248.435C56.3059 249.22 57.6497 249.986 58.8523 250.712C61.3 252.076 63.2207 253.208 63.9535 254.173C74.1652 258.377 83.2757 261.898 91.3544 264.313C93.3784 264.876 95.3268 265.398 97.1985 265.853C99.0731 266.289 100.892 266.531 102.617 266.756C104.347 266.958 105.993 267.094 107.557 267.069C109.129 266.998 110.615 266.815 112.01 266.494C117.135 268.348 122.381 269.765 127.682 271.264C130.916 271.63 133.898 271.851 136.691 271.973C139.482 272.06 142.078 271.921 144.557 271.802C147.034 271.67 149.39 271.488 151.702 271.172C154.013 270.869 156.277 270.634 158.564 270.256C160.601 269.482 158.084 269.157 156.444 268.717C155.621 268.476 155.016 268.218 155.292 267.896C155.57 267.581 156.731 267.197 159.424 266.601C163.373 266.11 170.046 265.162 173.923 265.367C174.481 265.684 173.503 266.131 172.24 266.545C170.977 266.953 169.423 267.26 168.859 267.435C179.252 266.068 188.082 265.287 196.443 264.487C204.791 263.684 212.669 262.832 220.746 260.829C231.059 256.962 243.17 251.509 253.452 244.969C263.715 238.411 271.898 230.677 275.448 225.092C274.675 225.851 273.917 226.628 273.13 227.37L270.702 229.524C269.889 230.236 269.092 230.965 268.267 231.66L265.735 233.671C266.631 232.903 267.404 232.219 268.072 231.607C268.733 230.987 269.253 230.397 269.707 229.901C270.606 228.896 271.157 228.16 271.485 227.601C272.138 226.485 271.896 226.076 271.728 225.64C271.553 225.197 271.447 224.724 272.303 223.468C272.732 222.839 273.401 222.016 274.424 220.9C275.466 219.802 276.7 218.262 278.459 216.373C279.827 215 280.802 213.764 281.705 212.845C282.575 211.901 283.307 211.222 283.835 210.685C284.895 209.613 285.449 209.337 285.76 209.451C286.386 209.675 286.029 211.484 286.923 211.461C288.169 209.603 289.638 207.45 290.872 204.98C291.509 203.757 292.198 202.522 292.813 201.236C293.395 199.934 293.982 198.621 294.562 197.322C295.174 196.039 295.673 194.724 296.157 193.448C296.664 192.181 297.155 190.953 297.621 189.787C298.457 187.421 299.246 185.322 300.03 183.71C298.577 188.593 299.562 186.857 300.742 184.418C301.847 181.964 302.948 178.757 302.368 181.114C303.74 177.106 304.232 173.877 304.655 171.184C304.963 168.473 304.935 166.25 304.905 164.126C304.811 161.998 304.519 159.951 304.337 157.576Z" fill="#FFDFD6"/>
<mask id="mask0_5_4422" style="mask-type:luminance" maskUnits="userSpaceOnUse" x="0" y="0" width="307" height="272">
<path fill-rule="evenodd" clip-rule="evenodd" d="M300.583 156.491C300.38 157.545 300.193 158.749 300.026 160.128C299.858 161.506 299.752 163.063 299.487 164.809C299.233 166.553 299.12 168.519 298.795 170.686C298.924 168.035 298.15 169.369 298.208 167.355C298.063 168.771 297.853 170.242 297.487 171.698C297.011 173.768 296.543 175.854 295.827 177.715C295.208 179.395 294.684 180.951 294.079 182.231C297.164 172.081 298.695 161.048 298.423 149.145C297.753 119.744 291.903 94.495 280.951 73.7135C282.947 76.9349 284.821 80.2446 286.558 83.6408C288.078 83.7355 282.409 71.2784 286.665 77.9805C288.442 81.3491 287.75 81.3004 287.824 82.1096L290.219 87.2512C291.046 88.9598 291.677 90.7393 292.417 92.4866C291.967 93.7933 291.556 95.0688 291.059 96.3508C292.611 105.565 294.806 112.526 297.134 120.372C299.392 128.192 301.64 136.948 301.568 149.074C301.802 149.729 302.025 150.207 302.235 150.549C301.83 151.27 301.428 152.28 301.087 153.753C300.898 154.531 300.763 155.437 300.583 156.491ZM91.0304 259.797C87.7853 259.275 85.0284 258.788 83.3532 258.764C82.0915 258.191 81.3716 257.676 81.0043 257.294C80.7413 257.023 80.6656 256.814 80.708 256.647C84.1682 257.821 87.765 258.897 91.5048 259.862C91.3498 259.841 91.1836 259.818 91.0304 259.797ZM92.9049 13.8033C86.5854 16.1557 81.2018 18.9973 76.6775 21.6844C61.7772 29.1545 48.6444 38.9456 37.7747 50.4059C51.9034 34.1737 71.3751 21.1014 92.9049 13.8033ZM203.681 11.3454C204.932 11.796 206.521 12.2778 208.118 12.9372C209.718 13.5883 211.367 14.2771 212.805 14.9181C215.678 16.2129 217.636 17.4957 216.81 17.6686C217.54 18.0622 218.294 18.4475 219.038 18.8356C213.039 16.417 206.713 14.3148 200.038 12.5574C200.516 11.8585 200.795 11.1274 203.681 11.3454ZM273.109 60.0418C274.414 61.7771 275.791 63.6586 276.856 65.9963C276.903 66.2197 276.715 66.08 276.442 65.8225C274.482 62.6949 272.371 59.7015 270.148 56.8075C271.141 57.8181 272.154 58.8619 273.109 60.0418ZM304.337 157.576C304.18 155.586 303.864 153.335 303.65 150.631C303.991 150.032 304.291 148.997 304.556 147.728C305.252 144.34 305.767 139.347 306.292 136.903L305.706 139.342C305.357 137.84 304.912 136.748 304.564 135.258C304.225 133.766 303.986 131.882 303.882 128.779C303.73 122.528 305.341 132.005 305.513 127.653C305.441 126.407 305.374 125.227 305.309 124.106C305.211 122.985 305.074 121.924 304.949 120.914C304.686 118.894 304.439 117.076 304.11 115.413C303.367 112.094 302.708 109.349 301.793 106.748C301.334 105.453 300.885 104.177 300.422 102.866C300.189 102.214 299.954 101.553 299.713 100.876C299.448 100.205 299.177 99.5189 298.897 98.8099C298.345 97.3909 297.777 95.8791 297.187 94.2146C296.549 92.562 295.832 90.7706 295.103 88.7576C294.667 86.8825 294.035 85.1104 293.45 83.3668C292.851 81.6287 292.272 79.9238 291.529 78.3144C290.823 76.6932 290.103 75.1133 289.373 73.5711C288.568 72.0592 287.746 70.5878 286.921 69.145C286.124 67.6883 285.217 66.3135 284.292 64.969C283.364 63.6273 282.486 62.2763 281.502 61.0036C279.493 58.4811 277.55 55.9733 275.319 53.666C273.206 51.2713 270.842 49.0743 268.493 46.802C267.315 45.6699 266.022 44.6234 264.778 43.5051C264.151 42.9525 263.521 42.3943 262.885 41.8324C262.222 41.3008 261.554 40.7647 260.879 40.224C255.567 35.8218 249.624 31.4757 242.724 26.9236C243.877 27.8055 245.04 28.6947 246.219 29.595C247.345 30.556 248.487 31.529 249.648 32.5185C250.225 33.0133 250.808 33.5108 251.396 34.0138C251.972 34.5297 252.527 35.0833 253.101 35.6222C254.241 36.7064 255.404 37.8109 256.594 38.9429C261.207 43.6173 265.957 48.953 270.841 55.4427C269.349 53.7616 267.658 52.2544 266.051 50.6984C264.475 49.1139 262.695 47.7289 261.017 46.2732C261.032 46.3008 261.05 46.3247 261.066 46.3523C253.626 38.7894 245.072 32.2445 235.416 26.7433C235.876 26.9677 236.356 27.2031 236.805 27.422C238.045 28.0133 239.258 28.5623 240.353 29.1812C242.557 30.3969 244.627 31.3727 246.17 32.4321C242.406 28.4897 235.257 23.2056 230.157 19.9115C228.918 19.0277 227.821 18.2479 226.942 17.6217C226.081 16.9724 225.476 16.4179 225.225 15.993C224.725 15.1451 225.631 14.8085 228.781 15.2932C227.018 14.4196 225.424 13.6581 223.969 12.9877C222.515 12.3136 221.157 11.8529 219.928 11.3857C218.694 10.9351 217.566 10.5489 216.508 10.2086C215.446 9.87665 214.436 9.65502 213.468 9.4196C211.527 8.98094 209.731 8.57631 207.742 8.24249C205.748 7.92706 203.584 7.57577 200.948 7.06355C198.355 6.30578 194.706 5.42755 191.555 4.75715C188.4 4.10238 185.77 3.44578 185.239 2.7717C180.246 2.59973 177.97 2.53812 175.073 2.25855C172.173 1.99738 168.689 1.23778 161.234 0.100217C158.653 -0.0717508 156.1 0.02205 153.835 0.057915C151.572 0.115851 149.598 0.21241 148.132 0.445073C145.221 0.852463 144.518 1.33802 147.999 1.75828C157.508 1.92198 166.958 2.54272 176.407 3.71982C182.937 5.85333 179.56 6.23037 175.118 6.44189C172.53 6.6065 169.584 6.71593 167.916 6.9394C162.082 6.37291 156.058 5.99587 149.833 5.82666C134.845 5.42019 120.522 7.06079 107.108 10.422C110.523 9.17774 113.991 8.04478 117.519 7.0801C110.955 8.15421 104.488 9.78193 98.1307 11.7324C99.5678 10.3125 102.694 8.46044 103.482 7.27598C103.875 6.69202 103.682 6.29475 102.384 6.26256C101.085 6.23129 98.6661 6.51729 94.7038 7.62175C91.6091 8.86599 88.6676 10.4054 85.7142 11.7867C82.8345 13.3574 79.9272 14.7699 77.1712 16.4565C71.5652 19.6264 66.2738 23.1881 61.0656 26.8528C50.6943 34.2786 40.8768 42.4936 30.9623 52.0649C18.7737 65.85 9.05678 82.5088 4.05433 101.038C3.46825 103.36 2.80557 105.667 2.38839 108.04L1.68694 111.583C1.49035 112.772 1.33991 113.971 1.16639 115.166C0.77967 117.553 0.594155 119.968 0.404949 122.388C0.156672 124.819 0.175131 127.185 0.0606844 129.593C-0.181131 139.191 0.282195 148.926 1.76724 158.626C2.49453 151.997 3.46087 167.054 3.32243 154.895C3.81159 156.786 4.24539 158.558 4.66626 160.443C5.27172 165.408 6.1153 170.316 7.20347 175.142C5.72766 172.081 5.07882 171.432 4.92284 172.29C4.78993 173.187 5.05759 175.75 5.66582 178.637C5.96301 180.084 6.28051 181.623 6.58232 183.093C6.90628 184.559 7.257 185.947 7.46375 187.132C7.86985 189.501 7.91969 191.006 6.87028 190.43C7.7471 192.624 8.44947 194.558 9.02632 196.306C9.67055 198.03 10.2169 199.558 10.6517 200.983C10.8639 201.698 11.0651 202.38 11.2599 203.037C11.4666 203.691 11.6651 204.321 11.8598 204.936C12.2318 206.175 12.5594 207.371 12.8935 208.584C14.4386 213.309 15.9005 218.6 22.544 227.027C24.9326 229.186 25.8131 229.446 25.6378 228.661C25.5575 228.26 25.227 227.587 24.7213 226.725C24.2164 225.862 23.6312 224.735 22.9058 223.532C22.2099 222.307 21.3405 221.024 20.5873 219.615C19.825 218.219 19.0414 216.784 18.2882 215.404C16.8281 212.63 15.6716 209.991 14.9388 208.384C16.0214 209.995 17.2047 212.453 18.5347 214.846C17.644 212.843 16.9841 210.774 16.3915 208.893C15.7999 207.011 15.5378 205.175 15.3246 203.67C15.0828 201.936 15.1289 200.552 15.3966 199.683C20.4618 210.727 27.3019 220.938 36.2444 229.867C35.8106 230.469 35.471 231.094 35.627 231.967C35.7119 232.443 35.9426 232.993 36.381 233.65C36.8342 234.293 37.5384 234.999 38.5047 235.85C38.7346 236.4 39.2357 237.084 39.9418 237.87C40.2953 238.261 40.6968 238.683 41.1472 239.117C41.6188 239.525 42.1347 239.951 42.6858 240.391C43.7878 241.273 45.0301 242.212 46.3407 243.178C47.6762 244.106 49.1409 244.975 50.5724 245.887C51.2905 246.337 52.0095 246.787 52.7202 247.233C53.453 247.64 54.1785 248.041 54.8882 248.435C56.3059 249.22 57.6497 249.986 58.8523 250.712C61.3 252.076 63.2207 253.208 63.9535 254.173C74.1652 258.377 83.2757 261.898 91.3544 264.313C93.3784 264.876 95.3268 265.398 97.1985 265.853C99.0731 266.289 100.892 266.531 102.617 266.756C104.347 266.958 105.993 267.094 107.557 267.069C109.129 266.998 110.615 266.815 112.01 266.494C117.135 268.348 122.381 269.765 127.682 271.264C130.916 271.63 133.898 271.851 136.691 271.973C139.482 272.06 142.078 271.921 144.557 271.802C147.034 271.67 149.39 271.488 151.702 271.172C154.013 270.869 156.277 270.634 158.564 270.256C160.601 269.482 158.084 269.157 156.444 268.717C155.621 268.476 155.016 268.218 155.292 267.896C155.57 267.581 156.731 267.197 159.424 266.601C163.373 266.11 170.046 265.162 173.923 265.367C174.481 265.684 173.503 266.131 172.24 266.545C170.977 266.953 169.423 267.26 168.859 267.435C179.252 266.068 188.082 265.287 196.443 264.487C204.791 263.684 212.669 262.832 220.746 260.829C231.059 256.962 243.17 251.509 253.452 244.969C263.715 238.411 271.898 230.677 275.448 225.092C274.675 225.851 273.917 226.628 273.13 227.37L270.702 229.524C269.889 230.236 269.092 230.965 268.267 231.66L265.735 233.671C266.631 232.903 267.404 232.219 268.072 231.607C268.733 230.987 269.253 230.397 269.707 229.901C270.606 228.896 271.157 228.16 271.485 227.601C272.138 226.485 271.896 226.076 271.728 225.64C271.553 225.197 271.447 224.724 272.303 223.468C272.732 222.839 273.401 222.016 274.424 220.9C275.466 219.802 276.7 218.262 278.459 216.373C279.827 215 280.802 213.764 281.705 212.845C282.575 211.901 283.307 211.222 283.835 210.685C284.895 209.613 285.449 209.337 285.76 209.451C286.386 209.675 286.029 211.484 286.923 211.461C288.169 209.603 289.638 207.45 290.872 204.98C291.509 203.757 292.198 202.522 292.813 201.236C293.395 199.934 293.982 198.621 294.562 197.322C295.174 196.039 295.673 194.724 296.157 193.448C296.664 192.181 297.155 190.953 297.621 189.787C298.457 187.421 299.246 185.322 300.03 183.71C298.577 188.593 299.562 186.857 300.742 184.418C301.847 181.964 302.948 178.757 302.368 181.114C303.74 177.106 304.232 173.877 304.655 171.184C304.963 168.473 304.935 166.25 304.905 164.126C304.811 161.998 304.519 159.951 304.337 157.576Z" fill="white"/>
</mask>
<g mask="url(#mask0_5_4422)">
<rect x="-39.4779" y="-65.5522" width="401.357" height="405.707" rx="37.5506" fill="#FFDFD6"/>
</g>
<path fill-rule="evenodd" clip-rule="evenodd" d="M230.869 239.841H67.4656C63.6671 239.841 60.5892 236.776 60.5892 232.993V75.636H237.744V232.993C237.744 236.776 234.665 239.841 230.869 239.841Z" fill="white"/>
<path fill-rule="evenodd" clip-rule="evenodd" d="M228.214 39.0605H70.1182C64.8555 39.0605 60.5892 43.3103 60.5892 48.5516V75.6362H237.744V48.5516C237.744 43.3103 233.478 39.0605 228.214 39.0605Z" fill="white"/>
<path fill-rule="evenodd" clip-rule="evenodd" d="M160.161 57.3601C160.161 63.3888 155.254 68.2754 149.201 68.2754C143.147 68.2754 138.24 63.3888 138.24 57.3601C138.24 51.3314 143.147 46.4448 149.201 46.4448C155.254 46.4448 160.161 51.3314 160.161 57.3601Z" fill="#FFDFD6"/>
<path fill-rule="evenodd" clip-rule="evenodd" d="M214.394 57.3601C214.394 63.3888 209.487 68.2754 203.433 68.2754C197.38 68.2754 192.473 63.3888 192.473 57.3601C192.473 51.3314 197.38 46.4448 203.433 46.4448C209.487 46.4448 214.394 51.3314 214.394 57.3601Z" fill="#FFDFD6"/>
<path fill-rule="evenodd" clip-rule="evenodd" d="M106.525 57.3601C106.525 63.3888 101.619 68.2754 95.5651 68.2754C89.5126 68.2754 84.6041 63.3888 84.6041 57.3601C84.6041 51.3314 89.5126 46.4448 95.5651 46.4448C101.619 46.4448 106.525 51.3314 106.525 57.3601Z" fill="#FFDFD6"/>
<path fill-rule="evenodd" clip-rule="evenodd" d="M101.977 32.5602C101.977 29.0336 99.1064 26.1741 95.5654 26.1741C92.0233 26.1741 89.153 29.0336 89.153 32.5602V57.0867C89.153 60.6133 92.0233 63.4729 95.5654 63.4729C99.1064 63.4729 101.977 60.6133 101.977 57.0867L101.976 36.5592C101.976 36.549 101.977 32.5703 101.977 32.5602Z" fill="white"/>
<path fill-rule="evenodd" clip-rule="evenodd" d="M155.543 32.5602C155.543 29.0336 152.673 26.1741 149.131 26.1741C145.59 26.1741 142.719 29.0336 142.719 32.5602V57.0867C142.719 60.6133 145.59 63.4729 149.131 63.4729C152.673 63.4729 155.543 60.6133 155.543 57.0867L155.542 36.5592C155.542 36.549 155.543 32.5703 155.543 32.5602Z" fill="white"/>
<path fill-rule="evenodd" clip-rule="evenodd" d="M209.714 32.5602C209.714 29.0336 206.844 26.1741 203.301 26.1741C199.76 26.1741 196.89 29.0336 196.89 32.5602V57.0867C196.89 60.6133 199.76 63.4729 203.301 63.4729C206.844 63.4729 209.714 60.6133 209.714 57.0867L209.712 36.5592C209.712 36.549 209.714 32.5703 209.714 32.5602Z" fill="white"/>
<path fill-rule="evenodd" clip-rule="evenodd" d="M133.911 172.912H164.377V142.57H133.911V172.912Z" fill="white"/>
<path fill-rule="evenodd" clip-rule="evenodd" d="M176.485 172.912H206.951V142.57H176.485V172.912Z" fill="white"/>
<path fill-rule="evenodd" clip-rule="evenodd" d="M307.056 182.259L295.476 154.195L323.656 142.662L335.236 170.726L307.056 182.259Z" fill="white"/>
<path fill-rule="evenodd" clip-rule="evenodd" d="M91.1573 142.57H96.1488H121.624V172.911H107.222" fill="white"/>
<path fill-rule="evenodd" clip-rule="evenodd" d="M176.485 130.688H206.951V100.346H176.485V130.688Z" fill="white"/>
<path fill-rule="evenodd" clip-rule="evenodd" d="M246.233 108.013C246.233 108.013 242.205 111.465 240.613 112.864C239.021 114.263 235.847 113.587 233.682 112.584C228.25 110.065 221.506 106.987 220.102 106.335C216.647 104.728 213.614 102.795 213.614 102.795C212.925 102.46 212.199 102.133 211.484 101.857C208.632 100.758 208.113 102.324 209.892 104.189C210.608 104.939 213.293 107.112 214.381 107.939L212.744 111.609C212.744 111.609 213.179 112.268 216.448 114.077C217.291 114.543 229.749 122.472 235.931 124.898C242.112 127.322 245.823 126.664 249.23 123.685C253.07 120.326 255.786 116.969 255.786 116.969L246.233 108.013Z" fill="white"/>
<path fill-rule="evenodd" clip-rule="evenodd" d="M153.169 185.091H164.376V215.433H133.911V185.091H140.433" fill="white"/>
<path fill-rule="evenodd" clip-rule="evenodd" d="M192.178 215.433H176.485V185.091H206.952V215.433H201.831" fill="white"/>
<path fill-rule="evenodd" clip-rule="evenodd" d="M110.494 185.091H121.624V215.433H105.026" fill="white"/>
<path fill-rule="evenodd" clip-rule="evenodd" d="M52.611 139.486L47.0586 139.85C45.1146 139.978 43.4345 138.511 43.3053 136.575L42.5192 124.693C42.391 122.756 43.8644 121.082 45.8084 120.955L51.3609 120.59C53.3049 120.462 54.985 121.929 55.1142 123.866L55.8993 135.748C56.0285 137.685 54.555 139.359 52.611 139.486Z" fill="white"/>
<path fill-rule="evenodd" clip-rule="evenodd" d="M27.2844 160.867C24.9594 162.878 22.6998 161.886 20.682 159.571L12.9964 150.756C10.9777 148.442 9.85855 145.895 12.2906 143.67C14.3776 141.76 17.2129 142.936 19.2307 145.25L26.9163 154.066C28.9341 156.381 29.6086 158.857 27.2844 160.867Z" fill="white"/>
<path fill-rule="evenodd" clip-rule="evenodd" d="M95.5011 184.792C97.0576 208.305 79.1796 228.623 55.5702 230.174C31.9599 231.723 11.5594 213.918 10.0029 190.405C8.44641 166.892 26.3244 146.574 49.9338 145.024C73.5441 143.474 93.9446 161.279 95.5011 184.792Z" fill="white"/>
<path fill-rule="evenodd" clip-rule="evenodd" d="M60.5994 130.457L37.9496 131.943C36.0055 132.071 34.3236 130.605 34.1963 128.668L33.7968 122.631C33.6685 120.694 35.141 119.02 37.086 118.893L59.7349 117.405C61.6808 117.278 63.3609 118.744 63.4891 120.681L63.8886 126.719C64.0169 128.656 62.5434 130.329 60.5994 130.457Z" fill="white"/>
<path fill-rule="evenodd" clip-rule="evenodd" d="M54.0932 184.132C52.2138 183.563 52.3439 181.945 52.9159 180.074L56.6424 167.868C57.2145 165.997 58.2755 164.663 59.8892 165.152C61.5703 165.661 61.7815 167.38 61.2104 169.251L57.483 181.457C56.9118 183.328 55.9726 184.702 54.0932 184.132Z" fill="white"/>
<path fill-rule="evenodd" clip-rule="evenodd" d="M246.585 70.1345C246.585 70.1345 244.551 74.829 245.271 77.6288C246.429 82.1295 244.679 84.5093 244.243 85.8821C244.147 86.1817 244.365 86.4867 244.681 86.495L246.669 86.5492C246.669 86.5492 247.289 90.3442 248.615 91.6646C250.946 93.9838 256.6 90.2982 256.6 90.2982L257.005 98.4991C257.005 98.4991 258.053 101.641 261.874 99.6174C265.697 97.5959 265.435 95.2335 265.435 95.2335L261.753 75.2499L246.585 70.1345Z" fill="white"/>
<path fill-rule="evenodd" clip-rule="evenodd" d="M267.928 220.648L269.377 232.07L274.931 233.874L277.588 232.792V218.002L267.928 220.648Z" fill="white"/>
<path fill-rule="evenodd" clip-rule="evenodd" d="M260.578 178.731C260.578 178.731 262.825 202.546 263.948 209.898C265.072 217.25 265.874 221.886 265.874 221.886C265.874 221.886 268.282 223.484 273.257 223.324C278.232 223.164 280.478 221.886 280.478 221.886L280.639 199.67L260.578 178.731Z" fill="white"/>
<path fill-rule="evenodd" clip-rule="evenodd" d="M251.267 237.963H280.485C282.053 237.963 281.933 233.273 281.087 231.109C280.243 228.945 279.157 227.623 278.311 227.742C277.466 227.862 278.311 230.267 273.603 230.748C268.894 231.229 269.136 227.742 268.653 227.021C268.17 226.299 265.272 226.059 263.461 227.983C261.65 229.907 255.613 232.312 253.32 233.393C251.025 234.476 251.267 237.963 251.267 237.963Z" fill="white"/>
<path fill-rule="evenodd" clip-rule="evenodd" d="M302.941 210.188L309.46 220.408L307.167 225.579L302.699 226.54L300.405 224.015L294.127 215.478L302.941 210.188Z" fill="white"/>
<path fill-rule="evenodd" clip-rule="evenodd" d="M257.369 138.773C257.369 138.773 255.764 156.675 255.121 166.584C254.48 176.494 255.604 178.891 263.628 188.321C271.651 197.751 292.033 220.607 292.033 220.607C292.033 220.607 295.885 219.008 300.058 215.173C304.23 211.337 305.033 207.98 305.033 207.98C305.033 207.98 293.639 191.997 288.182 184.166C282.725 176.334 280.639 174.096 280.639 174.096C280.639 174.096 283.207 160.99 284.811 152.359C286.416 143.729 286.416 139.413 286.416 139.413L257.369 138.773Z" fill="white"/>
<path fill-rule="evenodd" clip-rule="evenodd" d="M289.943 237.121H302.862C302.862 237.121 304.431 237.241 306.484 234.716C308.536 232.191 314.451 224.015 315.296 222.933C316.142 221.85 313.424 218.153 311.271 217.161C309.673 216.426 308.653 216.333 308.254 216.56C307.784 216.826 308.736 220.046 306.442 221.971C304.148 223.895 301.009 223.414 299.802 222.572C298.594 221.73 297.387 221.37 297.387 223.774C297.387 226.179 297.599 229.509 297.599 229.509C297.599 229.509 288.675 230.828 289.943 237.121Z" fill="white"/>
<path fill-rule="evenodd" clip-rule="evenodd" d="M292.628 112.272C292.628 112.272 298.745 118.668 303.18 124.913C307.614 131.158 311.744 139.686 313.731 144.103C315.72 148.52 316.637 152.48 315.108 154.46C313.578 156.439 312.814 155.679 311.286 152.784C309.755 149.891 308.531 148.52 308.531 148.52L305.015 150.195C305.015 150.195 305.474 145.626 304.709 144.255C303.945 142.884 299.815 136.945 294.004 130.701C288.193 124.456 281.005 116.689 281.005 116.689L292.628 112.272Z" fill="white"/>
<mask id="mask1_5_4422" style="mask-type:alpha" maskUnits="userSpaceOnUse" x="90" y="81" width="131" height="51">
<path fill-rule="evenodd" clip-rule="evenodd" d="M133.479 131.006H163.97V100.619H133.479V131.006Z" fill="#5AE2E2"/>
<path fill-rule="evenodd" clip-rule="evenodd" d="M211.117 102.132C211.833 102.408 212.559 102.736 213.249 103.072C213.249 103.072 214.237 103.698 215.705 104.527L220.565 93.444L192.627 81.2739L180.415 109.117L208.354 121.288L212.441 111.97C212.402 111.927 212.378 111.898 212.378 111.898L214.017 108.223C212.927 107.395 210.24 105.218 209.523 104.468C207.743 102.599 208.263 101.031 211.117 102.132Z" fill="#5AE2E2"/>
<path fill-rule="evenodd" clip-rule="evenodd" d="M90.691 131.006H121.183V100.619H90.691V131.006Z" fill="#5AE2E2"/>
</mask>
<g mask="url(#mask1_5_4422)">
<rect x="-38.0679" y="-63.6514" width="395.718" height="405.707" rx="37.5506" fill="#5AE2E2"/>
</g>
<mask id="mask2_5_4422" style="mask-type:alpha" maskUnits="userSpaceOnUse" x="0" y="135" width="105" height="105">
<path fill-rule="evenodd" clip-rule="evenodd" d="M55.3361 230.268C31.7048 231.821 11.2863 213.984 9.7284 190.427C8.17145 166.872 26.0653 146.517 49.6956 144.965C73.326 143.412 93.7454 161.249 95.3024 184.805C96.8603 208.361 78.9664 228.715 55.3361 230.268ZM104.569 184.196C102.682 155.643 77.9303 134.02 49.2856 135.903C20.6409 137.785 -1.05019 162.458 0.83828 191.011C2.72583 219.566 27.4782 241.187 56.1229 239.305C84.7667 237.423 106.458 212.75 104.569 184.196Z" fill="#5AE2E2"/>
<path fill-rule="evenodd" clip-rule="evenodd" d="M54.8365 180.618C50.9663 179.444 46.8735 181.621 45.6971 185.479C44.5187 189.338 46.7027 193.417 50.5738 194.59C54.444 195.763 58.5368 193.587 59.7133 189.728C60.8907 185.87 58.7067 181.791 54.8365 180.618Z" fill="#5AE2E2"/>
</mask>
<g mask="url(#mask2_5_4422)">
<rect x="-36.7572" y="-49.3972" width="395.718" height="389.778" rx="37.5506" fill="#5AE2E2"/>
</g>
<path fill-rule="evenodd" clip-rule="evenodd" d="M294.549 110.113C290.845 107.057 281.831 99.4876 277.095 96.4573C269.01 91.2842 260.695 93.5055 256.867 98.2999C256.81 98.3137 256.759 98.3128 256.7 98.3331C251.343 100.114 243.916 106.584 243.916 106.584C243.916 106.584 245.139 109.303 249.651 114.177C251.029 115.667 252.388 116.821 253.613 117.709C253.354 128.175 253.047 136.587 252.914 140.042C252.878 140.975 253.627 141.744 254.564 141.744H287.946C289.517 141.744 290.644 140.232 290.192 138.731L284.52 119.897L294.464 112.698C295.333 112.069 295.376 110.794 294.549 110.113Z" fill="#5AE2E2"/>
<mask id="mask3_5_4422" style="mask-type:luminance" maskUnits="userSpaceOnUse" x="243" y="93" width="53" height="49">
<path fill-rule="evenodd" clip-rule="evenodd" d="M294.549 110.113C290.845 107.057 281.831 99.4876 277.095 96.4573C269.01 91.2842 260.695 93.5055 256.867 98.2999C256.81 98.3137 256.759 98.3128 256.7 98.3331C251.343 100.114 243.916 106.584 243.916 106.584C243.916 106.584 245.139 109.303 249.651 114.177C251.029 115.667 252.388 116.821 253.613 117.709C253.354 128.175 253.047 136.587 252.914 140.042C252.878 140.975 253.627 141.744 254.564 141.744H287.946C289.517 141.744 290.644 140.232 290.192 138.731L284.52 119.897L294.464 112.698C295.333 112.069 295.376 110.794 294.549 110.113Z" fill="white"/>
</mask>
<g mask="url(#mask3_5_4422)">
<rect x="-38.0679" y="-66.2625" width="407.467" height="413.202" rx="37.5506" fill="#5AE2E2"/>
</g>
<mask id="mask4_5_4422" style="mask-type:alpha" maskUnits="userSpaceOnUse" x="0" y="25" width="336" height="216">
<path fill-rule="evenodd" clip-rule="evenodd" d="M60.3492 169.184L56.7635 180.921C56.2142 180.594 55.6363 180.31 55.0085 180.12C54.4915 179.964 53.9717 179.864 53.4538 179.814L57.0109 168.173C57.2814 167.284 57.6479 166.605 58.0689 166.21C58.3551 165.941 58.6552 165.81 58.993 165.81C59.1398 165.81 59.294 165.834 59.4556 165.884C60.9696 166.342 60.6659 168.148 60.3492 169.184ZM59.0817 189.643C58.5619 191.342 57.4089 192.738 55.8348 193.575C54.2598 194.411 52.4521 194.587 50.7479 194.07C47.224 193.003 45.229 189.282 46.2999 185.774C46.8197 184.074 47.9718 182.678 49.5459 181.841C50.5273 181.32 51.6 181.056 52.6811 181.056C53.3347 181.056 53.9911 181.151 54.6337 181.346C58.1576 182.414 60.1526 186.134 59.0817 189.643ZM59.8304 164.657C58.85 164.36 57.9351 164.573 57.1854 165.278C56.5936 165.834 56.12 166.683 55.7794 167.801L52.1105 179.806C48.9227 180.041 46.0524 182.179 45.0674 185.401C43.7897 189.584 46.1706 194.023 50.3731 195.296C51.1421 195.529 51.9204 195.64 52.6857 195.64C56.1016 195.64 59.2691 193.433 60.3132 190.015C60.9327 187.989 60.7222 185.843 59.7187 183.974C59.246 183.091 58.6118 182.331 57.8714 181.698L61.5808 169.557C62.3461 167.053 61.6916 165.222 59.8304 164.657Z" fill="#393F49"/>
<path fill-rule="evenodd" clip-rule="evenodd" d="M236.965 75.0989H60.9879V52.3943C60.9879 45.4493 66.6637 39.7991 73.6413 39.7991H88.2807V48.3203C85.524 50.435 83.7302 53.7352 83.7302 57.46C83.7302 63.8334 88.9389 69.0177 95.3414 69.0177C101.743 69.0177 106.952 63.8334 106.952 57.46C106.952 53.7343 105.158 50.4341 102.4 48.3194L102.399 39.7991H141.88V48.369C139.161 50.4865 137.398 53.7655 137.398 57.46C137.398 63.8334 142.607 69.0177 149.01 69.0177C155.411 69.0177 160.62 63.8334 160.62 57.46C160.62 53.7049 158.794 50.3826 155.999 48.2716V39.7991H196.084V48.4214C193.402 50.5398 191.665 53.7949 191.665 57.46C191.665 63.8334 196.873 69.0177 203.276 69.0177C209.677 69.0177 214.887 63.8334 214.887 57.46C214.887 53.6773 213.034 50.3367 210.203 48.2275V39.7991H224.312C231.289 39.7991 236.965 45.4493 236.965 52.3943V75.0989ZM142.524 52.5625C142.88 52.5625 143.167 52.2758 143.167 51.921V32.6564C143.167 29.4877 145.757 26.9098 148.94 26.9098C152.122 26.9098 154.712 29.4877 154.712 32.6564L154.711 34.6562L154.712 57.1871C154.712 60.3559 152.122 62.9337 148.94 62.9337C147.397 62.9337 145.948 62.3354 144.858 61.2501C144.607 61.0001 144.2 61.0001 143.948 61.2501C143.697 61.5 143.697 61.9062 143.948 62.1562C145.28 63.4842 147.053 64.2148 148.94 64.2148C152.832 64.2148 156 61.0626 156 57.1871L155.999 49.9323C158.04 51.8098 159.333 54.4814 159.333 57.46C159.333 63.1267 154.703 67.7365 149.01 67.7365C143.317 67.7365 138.686 63.1267 138.686 57.46C138.686 54.5476 139.918 51.9256 141.88 50.0545V51.921C141.88 52.2758 142.167 52.5625 142.524 52.5625ZM203.144 64.2149C207.037 64.2149 210.203 61.0627 210.203 57.1872V49.8782C212.28 51.7576 213.599 54.4521 213.599 57.4601C213.599 63.1268 208.969 67.7367 203.276 67.7367C197.584 67.7367 192.952 63.1268 192.952 57.4601C192.952 54.5781 194.158 51.9772 196.084 50.1098V57.1872C196.084 61.0627 199.25 64.2149 203.144 64.2149ZM238.253 52.3946C238.253 44.7428 231.997 38.5173 224.312 38.5173H210.203V32.6567C210.203 28.7821 207.037 25.6289 203.144 25.6289C200.794 25.6289 198.607 26.7878 197.29 28.7269C197.091 29.0201 197.169 29.418 197.463 29.6166C197.757 29.8132 198.158 29.7388 198.357 29.4438C199.435 27.8585 201.223 26.91 203.144 26.91C206.326 26.91 208.915 29.4879 208.915 32.6567L208.914 36.6563L208.915 57.1873C208.915 60.3561 206.326 62.934 203.144 62.934C199.961 62.934 197.371 60.3561 197.371 57.1873V36.7849C197.371 36.4302 197.084 36.1444 196.727 36.1444C196.372 36.1444 196.084 36.4302 196.084 36.7849V38.5173H155.999V36.6563L156 32.6567C156 28.7821 152.832 25.6289 148.94 25.6289C145.048 25.6289 141.88 28.7821 141.88 32.6567V38.5173H102.399V36.6563L102.4 32.6567C102.4 31.5263 102.123 30.4014 101.601 29.4043C100.378 27.0755 97.979 25.6289 95.3414 25.6289C93.963 25.6289 92.6253 26.025 91.4777 26.7731C91.1814 26.967 91.0983 27.364 91.2931 27.66C91.487 27.9568 91.8876 28.0358 92.1849 27.8456C93.121 27.2335 94.2141 26.91 95.3414 26.91C97.4989 26.91 99.4607 28.0937 100.46 29.997C100.893 30.8242 101.113 31.7184 101.113 32.6567L101.112 34.6565L101.113 57.1873C101.113 57.7746 101.026 58.3526 100.85 58.905C100.745 59.2422 100.933 59.6025 101.273 59.7073C101.338 59.7275 101.401 59.7376 101.465 59.7376C101.739 59.7376 101.993 59.5621 102.081 59.2882C102.292 58.6118 102.4 57.9051 102.4 57.1873V49.9932C104.402 51.8671 105.664 54.5148 105.664 57.4603C105.664 63.127 101.034 67.7368 95.3414 67.7368C89.6489 67.7368 85.0171 63.127 85.0171 57.4603C85.0171 54.5157 86.2792 51.8689 88.2807 49.9941V57.1873C88.2807 61.0628 91.4482 64.2151 95.3414 64.2151C96.0956 64.2151 96.8379 64.0974 97.5451 63.8649C97.8839 63.7547 98.0676 63.3926 97.955 63.0562C97.8433 62.7198 97.4795 62.536 97.1435 62.6472C96.5646 62.8375 95.959 62.934 95.3414 62.934C92.1581 62.934 89.5685 60.3561 89.5685 57.1873V32.6567C89.5685 31.7395 89.779 30.8628 90.1945 30.0513C90.356 29.736 90.2305 29.35 89.9147 29.1892C89.599 29.0311 89.2085 29.1524 89.0479 29.4695C88.5392 30.463 88.2807 31.5355 88.2807 32.6567V38.5173H73.6414C65.9547 38.5173 59.7 44.7428 59.7 52.3946V76.3811H238.253V52.3946Z" fill="#393F49"/>
<path fill-rule="evenodd" clip-rule="evenodd" d="M237.609 229.781C237.252 229.781 236.965 230.067 236.965 230.421C236.965 235.333 232.949 239.331 228.013 239.331H69.9375C68.5121 239.331 67.1744 238.981 65.9779 238.386C69.3467 237.515 72.6204 236.316 75.7722 234.783C76.0916 234.629 76.2227 234.244 76.0667 233.926C75.9116 233.607 75.5275 233.477 75.2063 233.632C69.2165 236.545 62.7762 238.245 56.0654 238.685C27.8208 240.541 3.34281 219.177 1.48069 191.068C1.23051 187.287 1.39945 183.489 1.97923 179.784C2.0337 179.434 1.79366 179.106 1.44284 179.051C1.09572 178.997 0.762439 179.235 0.70797 179.585C0.111577 183.386 -0.0601398 187.277 0.196512 191.152C2.02723 218.8 25.2108 240.079 52.6551 240.079C53.8128 240.079 54.9797 240.042 56.1503 239.964C58.8655 239.786 61.5336 239.399 64.1499 238.822C65.7969 239.951 67.7911 240.613 69.9375 240.613H228.013C233.66 240.613 238.252 236.041 238.252 230.421C238.252 230.067 237.964 229.781 237.609 229.781Z" fill="#393F49"/>
<path fill-rule="evenodd" clip-rule="evenodd" d="M13.208 150.452C10.8963 147.802 10.6636 145.891 12.45 144.256C13.0206 143.734 13.676 143.47 14.3998 143.47C14.4571 143.47 14.5134 143.472 14.5716 143.475C15.8317 143.546 17.2553 144.388 18.473 145.785L19.5744 147.048C17.7511 148.519 16.0164 150.105 14.3961 151.814L13.208 150.452ZM54.7237 131.581L54.9758 135.393C53.0804 135.312 51.1647 135.325 49.2306 135.452C47.3491 135.575 45.4935 135.816 43.6572 136.135L43.4052 132.324L54.7237 131.581ZM59.0056 131.3C59.2428 131.284 59.4699 131.23 59.6998 131.186V135.804C58.568 135.652 57.4232 135.55 56.2719 135.472L56.0079 131.497L59.0056 131.3ZM7.78225 161.663C8.08783 161.846 8.48204 161.748 8.66576 161.443C17.3365 147.07 32.5335 137.832 49.3155 136.731C77.5703 134.881 102.039 156.241 103.9 184.348C104.679 196.091 101.329 207.822 94.4697 217.379C92.7553 219.769 90.8212 222.027 88.7227 224.088C88.4688 224.337 88.4679 224.743 88.7172 224.995C88.8436 225.121 89.0089 225.185 89.1751 225.185C89.3385 225.185 89.5019 225.123 89.6274 225.001C91.7767 222.888 93.7597 220.574 95.5184 218.124C102.549 208.326 105.982 196.302 105.185 184.264C103.54 159.443 84.6837 139.772 60.9877 136.005V130.786C61.6801 130.466 62.3088 130.012 62.8267 129.422C63.8081 128.309 64.2937 126.882 64.1958 125.405L63.9798 122.134C63.8468 120.138 62.6476 118.468 60.9877 117.6V94.3258C60.9877 93.9711 60.6996 93.6843 60.3442 93.6843C59.9878 93.6843 59.6998 93.9711 59.6998 94.3258V117.129C59.1717 117.004 58.6252 116.928 58.0565 116.968L44.2822 117.871C43.9268 117.895 43.659 118.2 43.6821 118.553C43.7061 118.908 44.0228 119.164 44.3672 119.151L58.1423 118.247C60.5039 118.095 62.5396 119.874 62.6956 122.218L62.9107 125.489C62.9864 126.625 62.6134 127.722 61.8583 128.578C61.1058 129.434 60.0626 129.947 58.9206 130.022L39.0375 131.326C36.6759 131.484 34.6412 129.698 34.4851 127.355L34.2682 124.084C34.1925 122.948 34.5664 121.851 35.3206 120.995C35.5542 120.728 35.5284 120.324 35.2615 120.091C34.9929 119.857 34.5867 119.883 34.3522 120.149C33.3727 121.263 32.8852 122.69 32.984 124.167L33.2 127.439C33.3948 130.365 35.8487 132.617 38.7513 132.617C38.875 132.617 38.9987 132.612 39.1224 132.605L42.1201 132.408L42.3832 136.367C34.4011 137.957 26.9517 141.366 20.5816 146.248L19.4461 144.946C18.0003 143.289 16.2508 142.286 14.6426 142.196C13.496 142.13 12.4472 142.519 11.5794 143.313C9.25292 145.441 9.47449 148.126 12.2349 151.292L13.5265 152.772C11.3108 155.23 9.30277 157.899 7.56253 160.784C7.37881 161.087 7.47759 161.481 7.78225 161.663Z" fill="#393F49"/>
<path fill-rule="evenodd" clip-rule="evenodd" d="M84.2581 215.423C76.8244 223.867 66.5334 228.924 55.2786 229.663C32.0544 231.2 11.8989 213.612 10.3682 190.486C8.83752 167.357 26.493 147.302 49.7255 145.779C50.6672 145.716 51.6005 145.687 52.5302 145.687C74.5561 145.687 93.1652 162.766 94.635 184.956C95.3763 196.159 91.6918 206.979 84.2581 215.423ZM95.92 184.871C94.3404 161.039 73.5858 142.931 49.6405 144.499C25.699 146.07 7.50622 166.737 9.08306 190.569C10.598 213.437 29.7722 231.036 52.472 231.036C53.4303 231.036 54.3941 231.005 55.3644 230.942C66.9608 230.181 77.5657 224.969 85.2265 216.268C92.8864 207.567 96.6845 196.416 95.92 184.871Z" fill="#393F49"/>
<path fill-rule="evenodd" clip-rule="evenodd" d="M50.5844 156.009C50.5982 156.009 50.6121 156.009 50.6269 156.008C50.9823 155.985 51.25 155.679 51.226 155.326L50.8743 149.999C50.8521 149.646 50.5752 149.382 50.1893 149.403C49.8348 149.425 49.567 149.731 49.5901 150.084L49.9418 155.41C49.964 155.75 50.2474 156.009 50.5844 156.009Z" fill="#393F49"/>
<path fill-rule="evenodd" clip-rule="evenodd" d="M54.8046 219.115C54.4501 219.137 54.1806 219.444 54.2055 219.796L54.5582 225.122C54.5812 225.461 54.8637 225.72 55.2007 225.72C55.2146 225.72 55.2284 225.72 55.2441 225.72C55.5977 225.697 55.8663 225.391 55.8433 225.038L55.4897 219.712C55.4675 219.358 55.1592 219.098 54.8046 219.115Z" fill="#393F49"/>
<path fill-rule="evenodd" clip-rule="evenodd" d="M20.334 189.043L14.9831 189.394C14.6286 189.417 14.3608 189.722 14.3839 190.076C14.4061 190.414 14.6895 190.675 15.0246 190.675C15.0403 190.675 15.0533 190.674 15.0689 190.673L20.4199 190.323C20.7744 190.299 21.0421 189.994 21.019 189.641C20.995 189.287 20.6977 189.026 20.334 189.043Z" fill="#393F49"/>
<path fill-rule="evenodd" clip-rule="evenodd" d="M90.3626 184.448L85.0126 184.799C84.6571 184.822 84.3894 185.128 84.4134 185.481C84.4356 185.82 84.7181 186.079 85.0541 186.079C85.0689 186.079 85.0827 186.078 85.0984 186.078L90.4484 185.727C90.8029 185.704 91.0716 185.398 91.0476 185.045C91.0245 184.692 90.7309 184.444 90.3626 184.448Z" fill="#393F49"/>
<path fill-rule="evenodd" clip-rule="evenodd" d="M28.3408 166.938C28.519 166.938 28.6981 166.864 28.8246 166.72C29.0582 166.454 29.0323 166.049 28.7646 165.815L24.7329 162.297C24.4661 162.066 24.0599 162.09 23.8245 162.357C23.5909 162.624 23.6177 163.028 23.8854 163.261L27.9171 166.779C28.0389 166.885 28.1903 166.938 28.3408 166.938Z" fill="#393F49"/>
<path fill-rule="evenodd" clip-rule="evenodd" d="M77.5143 208.342C77.2493 208.111 76.8413 208.136 76.6068 208.402C76.3732 208.668 76.3991 209.072 76.6668 209.306L80.6984 212.824C80.8212 212.93 80.9717 212.983 81.1222 212.983C81.3013 212.983 81.4795 212.909 81.6069 212.765C81.8414 212.498 81.8137 212.094 81.5459 211.86L77.5143 208.342Z" fill="#393F49"/>
<path fill-rule="evenodd" clip-rule="evenodd" d="M30.8715 211.403L27.3375 215.417C27.1039 215.683 27.1297 216.088 27.3975 216.321C27.5193 216.428 27.6707 216.48 27.8212 216.48C28.0003 216.48 28.1785 216.406 28.3059 216.262L31.8399 212.247C32.0735 211.982 32.0467 211.577 31.779 211.344C31.5122 211.111 31.1051 211.135 30.8715 211.403Z" fill="#393F49"/>
<path fill-rule="evenodd" clip-rule="evenodd" d="M78.0336 158.8C77.7677 158.568 77.3606 158.594 77.1261 158.859L73.5921 162.874C73.3585 163.141 73.3843 163.545 73.6521 163.779C73.7749 163.885 73.9253 163.938 74.0758 163.938C74.254 163.938 74.4331 163.864 74.5596 163.72L78.0936 159.705C78.3272 159.438 78.3014 159.034 78.0336 158.8Z" fill="#393F49"/>
<path fill-rule="evenodd" clip-rule="evenodd" d="M314.7 222.667C314.416 223.031 313.561 224.193 312.472 225.673C310.391 228.501 307.247 232.774 305.889 234.442C304.124 236.613 302.813 236.61 302.765 236.61H290.39C290.263 235.486 290.509 234.504 291.133 233.62C292.988 230.987 297.549 230.279 297.596 230.272L298.18 230.184L298.142 229.598C298.14 229.564 297.931 226.259 297.931 223.902C297.931 222.867 298.171 222.714 298.174 222.713C298.177 222.71 298.438 222.6 299.334 223.225C300.863 224.288 304.293 224.659 306.763 222.589C308.565 221.078 308.612 218.869 308.638 217.683C308.641 217.529 308.644 217.352 308.653 217.217C308.99 217.204 309.702 217.313 310.911 217.869C312.472 218.589 314.356 220.928 314.678 222.216C314.754 222.516 314.715 222.648 314.7 222.667ZM296.978 218.532C298.037 217.78 299.201 216.869 300.396 215.77C301.695 214.577 302.676 213.429 303.416 212.404L307.314 218.512C307.238 219.531 306.978 220.733 305.934 221.609C303.916 223.299 301.088 222.883 300.073 222.175C299.853 222.022 299.598 221.86 299.325 221.723L296.978 218.532ZM268.157 228.008C268.503 229.29 269.237 231.954 273.555 231.514C277.249 231.138 277.931 229.566 278.297 228.722C278.326 228.657 278.361 228.577 278.391 228.516C278.766 228.623 279.604 229.485 280.378 231.47C281.071 233.242 281.153 236.414 280.53 237.321C280.471 237.408 280.417 237.452 280.375 237.452H251.786C251.833 236.517 252.106 234.745 253.469 234.102C253.911 233.894 254.491 233.636 255.155 233.342C257.985 232.089 262.26 230.195 263.811 228.55C264.571 227.741 265.709 227.26 266.857 227.26H266.877C267.55 227.263 267.935 227.436 267.997 227.501C268.039 227.57 268.107 227.824 268.157 228.008ZM272.445 224.104C272.678 224.104 272.918 224.101 273.162 224.092C274.612 224.046 275.816 223.902 276.831 223.726V228.768C276.444 229.368 275.642 230.014 273.424 230.24C270.162 230.572 269.73 228.897 269.4 227.676C269.362 227.529 269.324 227.401 269.284 227.278L268.837 223.757C269.829 223.955 271.012 224.104 272.445 224.104ZM311.451 216.707C310.498 216.268 308.757 215.611 307.841 216.13C307.695 216.213 307.604 216.331 307.534 216.465L304.195 211.235C305.249 209.511 305.545 208.337 305.564 208.254L305.633 207.972L305.463 207.735C305.35 207.576 294 191.662 288.605 183.921C284.096 177.452 281.888 174.793 281.221 174.027C281.62 171.988 283.886 160.394 285.336 152.592C285.797 150.125 286.17 147.765 286.446 145.582C286.489 145.231 286.24 144.91 285.887 144.866C285.54 144.821 285.214 145.068 285.169 145.422C284.896 147.582 284.525 149.915 284.072 152.359C282.485 160.889 279.923 173.961 279.897 174.093L279.834 174.413L280.058 174.651C280.077 174.674 282.197 176.976 287.547 184.652C292.569 191.857 302.742 206.132 304.231 208.22C303.946 209.063 302.824 211.796 299.525 214.828C296.269 217.82 293.184 219.435 292.096 219.954C289.479 217.019 271.385 196.706 263.999 188.03C255.878 178.491 255.019 176.303 255.637 166.743C256.006 161.075 256.689 152.784 257.198 146.828C257.228 146.475 256.966 146.164 256.611 146.135C256.294 146.099 255.946 146.366 255.916 146.719C255.406 152.681 254.721 160.981 254.353 166.661C253.761 175.793 254.763 178.812 260.486 185.832C260.753 188.54 261.079 191.771 261.421 195.039C262.186 202.369 262.783 207.443 263.193 210.12C264.303 217.395 265.112 222.076 265.119 222.123L265.167 222.394L265.398 222.546C265.451 222.582 266.159 223.024 267.498 223.43L267.835 226.087C267.624 226.041 267.422 226.007 267.263 225.995C265.991 225.887 264.184 226.278 262.871 227.673C261.499 229.129 257.201 231.034 254.633 232.171C253.957 232.47 253.366 232.732 252.917 232.944C250.254 234.199 250.486 237.977 250.498 238.137L250.539 238.733H280.375C280.714 238.733 281.202 238.614 281.593 238.044C282.604 236.572 282.287 232.817 281.577 231.006C280.58 228.448 279.322 227.076 278.119 227.237V223.461C279.789 223.055 280.631 222.603 280.688 222.57L281.01 222.387L281.077 213.061C281.08 212.708 280.793 212.419 280.439 212.416H280.434C280.08 212.416 279.792 212.7 279.79 213.053L279.726 221.607C278.961 221.936 276.817 222.693 273.121 222.812C269.281 222.932 267.024 221.962 266.338 221.607C266.144 220.469 265.416 216.15 264.465 209.928C264.059 207.27 263.465 202.217 262.701 194.906C262.436 192.37 262.182 189.871 261.957 187.604C262.3 188.012 262.643 188.42 263.015 188.858C270.958 198.187 291.245 220.932 291.448 221.16L291.755 221.502L292.178 221.326C292.278 221.285 293.787 220.648 295.916 219.257L297.614 221.562C297.602 221.569 297.591 221.57 297.579 221.576C296.643 222.06 296.643 223.446 296.643 223.902C296.643 225.708 296.763 228.05 296.823 229.113C295.416 229.409 291.844 230.383 290.081 232.881C289.163 234.181 288.868 235.694 289.208 237.377L289.312 237.891L302.716 237.89C302.732 237.891 302.762 237.893 302.802 237.893C303.226 237.893 304.879 237.72 306.89 235.248C308.267 233.556 311.297 229.437 313.51 226.43C314.589 224.964 315.435 223.815 315.717 223.454C316.015 223.073 316.086 222.557 315.932 221.923C315.493 220.13 313.274 217.546 311.451 216.707Z" fill="#393F49"/>
<path fill-rule="evenodd" clip-rule="evenodd" d="M255.413 99.8947C255.271 100.161 255.125 100.427 255.009 100.703C254.511 101.381 253.474 104.055 253.237 114.545C253.221 115.239 253.205 115.924 253.189 116.604C252.271 115.868 251.303 114.994 250.323 113.938C246.964 110.314 245.457 107.897 244.94 106.972C246.328 105.81 251.21 101.843 255.413 99.8947ZM248.941 91.3174C248.504 90.8817 248.137 90.0666 247.848 89.2128C248.13 89.2771 248.432 89.324 248.758 89.324C249.797 89.324 251 88.9205 252.008 87.6256C252.226 87.3463 252.175 86.9437 251.894 86.7268C251.611 86.5099 251.209 86.5596 250.99 86.8408C249.486 88.7735 247.66 87.8343 247.452 87.7185C247.44 87.712 247.427 87.712 247.414 87.7056C247.302 87.2378 247.219 86.8242 247.174 86.5513L247.088 86.0293L244.8 85.9668C244.869 85.7839 244.957 85.5854 245.052 85.3667C245.692 83.9027 246.761 81.4525 245.763 77.5733C245.352 75.9761 245.947 73.6353 246.458 72.0868C247.421 72.663 249.071 73.8182 251.49 76.0762C252.607 77.1203 254.688 78.7368 256.055 77.8408C256.268 77.7029 256.491 77.5347 256.718 77.362C257.051 77.1092 257.394 76.8473 257.717 76.6837C257.959 76.5597 258.812 76.181 259.675 76.5018C260.34 76.7517 260.876 77.3767 261.266 78.36C261.88 79.9021 260.94 81.5509 260.16 82.2815C259.324 83.0654 258.433 83.5626 258.423 83.5681L257.966 83.8218L258.122 84.3199C258.222 84.6416 259.998 90.1796 262.648 93.9825C260.637 94.6755 258.856 95.7829 257.453 97.1743L257.062 89.256L256.124 89.8671C254.67 90.8137 250.546 92.9137 248.941 91.3174ZM276.87 97.2792C281.067 99.9591 288.762 106.319 292.896 109.736L294.211 110.821C294.448 111.017 294.579 111.305 294.569 111.611C294.559 111.918 294.409 112.2 294.158 112.381L284.253 119.538L281.341 121.448C281.24 121.515 281.136 121.504 281.083 121.488C281.03 121.473 280.935 121.433 280.882 121.321L280.778 121.167C280.752 121.14 278.162 118.286 275.812 113.883C273.622 109.778 272.207 106.161 272.193 106.124C272.066 105.794 271.691 105.632 271.36 105.758C271.028 105.886 270.864 106.257 270.993 106.587C271.008 106.624 272.446 110.309 274.676 114.484C276.94 118.729 279.361 121.512 279.77 121.969C279.978 122.337 280.327 122.609 280.74 122.723C280.88 122.762 281.023 122.781 281.167 122.781C281.476 122.781 281.784 122.691 282.05 122.517L284.253 121.073L289.661 138.988C289.817 139.505 289.72 140.049 289.397 140.482C289.074 140.914 288.579 141.161 288.037 141.161H254.749C254.471 141.161 254.214 141.052 254.024 140.855C253.835 140.66 253.738 140.404 253.749 140.132C253.891 136.443 254.253 126.566 254.524 114.573C254.77 103.766 255.868 101.724 256.019 101.492L256.163 101.275C257.334 98.4427 260.044 96.1212 263.41 95.0671C267.732 93.7106 272.512 94.4973 276.87 97.2792ZM323.222 143.612L334.321 170.496L307.314 181.545L296.215 154.659L308.43 149.663C308.908 150.303 309.701 151.455 310.624 153.199C311.681 155.198 312.402 156.229 313.408 156.315C313.451 156.318 313.492 156.32 313.534 156.32C314.372 156.32 315.038 155.603 315.529 154.967C316.769 153.365 316.698 150.619 315.37 146.824L323.222 143.612ZM248.714 102.432C245.975 104.378 243.872 106.193 243.71 106.333L243.352 106.645L243.546 107.078C243.598 107.193 244.859 109.935 249.379 114.808C250.688 116.22 251.971 117.318 253.149 118.196C252.893 128.503 252.589 136.779 252.462 140.083C252.437 140.706 252.663 141.295 253.096 141.743C253.531 142.194 254.119 142.443 254.749 142.443H288.037C288.99 142.443 289.861 142.006 290.43 141.246C290.999 140.485 291.168 139.528 290.894 138.62L285.369 120.315L293.536 114.414C294.32 115.271 295.341 116.409 296.501 117.757C298.89 120.529 300.927 123.099 302.557 125.394C307.249 131.998 311.462 140.941 313.056 144.48C314.372 147.406 315.064 149.79 315.135 151.564L313.821 148.225C313.692 147.896 313.32 147.734 312.985 147.863C312.656 147.992 312.491 148.364 312.622 148.694L314.659 153.869C314.663 153.877 314.671 153.88 314.674 153.887C314.618 153.986 314.576 154.099 314.509 154.186C314.502 154.193 314.498 154.197 314.492 154.205L311.866 148.695C311.713 148.374 311.324 148.239 311.01 148.391C310.687 148.542 310.551 148.925 310.703 149.244L313.448 155.007C312.946 154.828 312.094 153.227 311.763 152.603C310.748 150.683 309.872 149.429 309.37 148.769C309.354 148.69 309.325 148.612 309.278 148.541C308.711 147.691 308.082 146.726 307.981 146.547C307.85 146.251 307.505 146.097 307.191 146.202C306.853 146.313 306.671 146.676 306.783 147.011C306.807 147.087 306.85 147.194 307.594 148.328L305.648 149.255C305.738 147.738 305.786 145.152 305.176 144.059C304.434 142.727 300.33 136.773 294.374 130.378L289.252 124.865C289.011 124.607 288.605 124.591 288.341 124.83C288.081 125.07 288.064 125.476 288.306 125.736L293.431 131.249C298.982 137.211 303.22 143.192 304.051 144.681C304.512 145.507 304.455 148.243 304.303 149.965L294.536 153.962L306.612 183.216L336 171.194L323.924 141.94L314.929 145.619C314.715 145.08 314.488 144.533 314.23 143.955C312.622 140.382 308.366 131.35 303.608 124.654C301.956 122.327 299.892 119.725 297.478 116.922C296.358 115.62 295.363 114.512 294.585 113.658L294.915 113.418C295.491 113.003 295.834 112.358 295.857 111.651C295.878 110.945 295.578 110.283 295.031 109.834L293.718 108.749C291.922 107.265 289.457 105.228 286.893 103.173C288.098 102.259 289.247 100.855 289.746 98.6962C291.136 92.6986 284.163 89.3277 281.871 88.2202C277.967 86.3326 277.074 84.3098 276.372 79.1926C275.821 75.1682 272.931 73.7778 270.609 72.6593C269.703 72.2228 268.845 71.8101 268.274 71.3056C267.629 70.7339 266.982 69.9509 266.295 69.1229C264.714 67.2122 262.923 65.047 260.076 63.9304C254.399 61.7045 249.28 63.5701 246.926 66.2454C244.991 68.4447 244.969 70.8424 244.969 70.9435L244.974 71.4113L245.289 71.5124C244.722 73.1978 244.01 75.9237 244.516 77.8913C245.405 81.3441 244.481 83.4578 243.872 84.8557C243.717 85.2104 243.583 85.5211 243.496 85.7931C243.389 86.1285 243.445 86.486 243.65 86.7737C243.854 87.0613 244.176 87.2314 244.531 87.2405L245.999 87.281C246.229 88.4344 246.862 91.0619 248.031 92.2235C248.627 92.8172 249.387 93.0819 250.206 93.1453C250.227 94.3336 250.166 95.9115 249.825 97.6871C249.523 99.2568 249.1 100.974 248.714 102.432Z" fill="#393F49"/>
<path fill-rule="evenodd" clip-rule="evenodd" d="M237.609 134.234C237.253 134.234 236.965 134.521 236.965 134.874V221.209C236.965 221.562 237.253 221.849 237.609 221.849C237.964 221.849 238.252 221.562 238.252 221.209V134.874C238.252 134.521 237.964 134.234 237.609 134.234Z" fill="#393F49"/>
<path fill-rule="evenodd" clip-rule="evenodd" d="M134.353 172.391H163.551V143.325H134.353V172.391ZM133.066 173.673H164.839V142.044H133.066V173.673Z" fill="#393F49"/>
<path fill-rule="evenodd" clip-rule="evenodd" d="M176.954 172.391H206.152V143.325H176.954V172.391ZM175.667 173.673H207.439V142.044H175.667V173.673Z" fill="#393F49"/>
<path fill-rule="evenodd" clip-rule="evenodd" d="M122.059 142.043H90.9294C90.574 142.043 90.2859 142.33 90.2859 142.684C90.2859 143.039 90.574 143.325 90.9294 143.325H120.771V172.391H107.005C106.65 172.391 106.362 172.677 106.362 173.032C106.362 173.386 106.65 173.673 107.005 173.673H122.059V142.043Z" fill="#393F49"/>
<path fill-rule="evenodd" clip-rule="evenodd" d="M134.353 130.16H163.551V101.094H134.353V130.16ZM133.066 131.442H164.839V99.8125H133.066V131.442Z" fill="#393F49"/>
<path fill-rule="evenodd" clip-rule="evenodd" d="M91.573 130.16H120.771V101.094H91.573V130.16ZM90.2861 131.442H122.059V99.8125H90.2861V131.442Z" fill="#393F49"/>
<path fill-rule="evenodd" clip-rule="evenodd" d="M140.237 185.854C140.593 185.854 140.88 185.567 140.88 185.213C140.88 184.858 140.593 184.572 140.237 184.572H133.065V216.201H164.838V184.572H152.98C152.624 184.572 152.336 184.858 152.336 185.213C152.336 185.567 152.624 185.854 152.98 185.854H163.551V214.919H134.353V185.854H140.237Z" fill="#393F49"/>
<path fill-rule="evenodd" clip-rule="evenodd" d="M201.672 214.919C201.316 214.919 201.029 215.206 201.029 215.56C201.029 215.914 201.316 216.201 201.672 216.201H207.44V184.572H175.667V216.201H192.015C192.37 216.201 192.657 215.914 192.657 215.56C192.657 215.206 192.37 214.919 192.015 214.919H176.954V185.854H206.153V214.919H201.672Z" fill="#393F49"/>
<path fill-rule="evenodd" clip-rule="evenodd" d="M104.808 214.919C104.452 214.919 104.165 215.206 104.165 215.56C104.165 215.914 104.452 216.201 104.808 216.201H122.059V184.572H110.279C109.924 184.572 109.636 184.859 109.636 185.213C109.636 185.567 109.924 185.854 110.279 185.854H120.772V214.919H104.808Z" fill="#393F49"/>
<path fill-rule="evenodd" clip-rule="evenodd" d="M208.237 120.251L181.483 108.61L193.177 81.9774L219.932 93.6187L215.668 103.326C214.524 102.694 213.029 101.931 211.565 101.367C209.418 100.541 208.596 101.163 208.295 101.608C207.774 102.382 208.14 103.552 209.272 104.739C210.305 105.821 212.119 107.207 213.52 108.22L208.237 120.251ZM206.152 130.16H176.954V101.094H183.378L179.789 109.272L206.152 120.743V130.16ZM251.768 121.314C251.518 121.06 251.11 121.056 250.858 121.302C250.186 121.954 249.454 122.634 248.676 123.314C245.232 126.324 241.684 126.63 236.029 124.412C230.906 122.403 221.457 116.595 217.901 114.41C217.208 113.983 216.752 113.704 216.612 113.627C215.248 112.872 214.261 112.203 213.57 111.683L214.751 109.092C215.157 109.374 215.428 109.557 215.471 109.586C215.582 109.66 215.706 109.695 215.831 109.695C216.037 109.695 216.24 109.597 216.365 109.413C216.564 109.119 216.486 108.721 216.19 108.523C216.147 108.495 211.917 105.649 210.205 103.856C209.37 102.981 209.308 102.406 209.365 102.321C209.404 102.266 209.858 102.084 211.1 102.562C213.91 103.644 216.954 105.564 216.985 105.583C217.084 105.647 217.193 105.669 217.303 105.674C218.039 106.16 218.836 106.63 219.682 107.024C220.182 107.256 221.365 107.798 222.923 108.513C225.734 109.801 229.775 111.655 233.271 113.274C235.639 114.372 239.06 115.077 240.905 113.454C241.172 113.219 241.197 112.814 240.962 112.549C240.726 112.284 240.321 112.258 240.053 112.493C238.767 113.623 235.917 113.088 233.814 112.113C230.316 110.491 226.273 108.638 223.461 107.348C221.906 106.635 220.727 106.094 220.226 105.862C218.983 105.284 217.838 104.522 216.87 103.79L221.626 92.957L192.513 80.291L183.941 99.8129H175.668V131.441H207.44V121.302L208.901 121.938L213.025 112.88C213.744 113.404 214.715 114.043 215.987 114.746C216.122 114.821 216.56 115.092 217.224 115.5C220.807 117.703 230.327 123.554 235.557 125.605C238.151 126.623 240.376 127.137 242.368 127.137C245.061 127.137 247.331 126.195 249.526 124.277C250.321 123.582 251.07 122.886 251.756 122.22C252.011 121.972 252.016 121.567 251.768 121.314Z" fill="#393F49"/>
<path fill-rule="evenodd" clip-rule="evenodd" d="M247.538 79.9312C247.076 79.9312 246.701 80.4118 246.701 81.0055C246.701 81.5983 247.076 82.0789 247.538 82.0789C248 82.0789 248.374 81.5983 248.374 81.0055C248.374 80.4118 248 79.9312 247.538 79.9312Z" fill="#393F49"/>
<path fill-rule="evenodd" clip-rule="evenodd" d="M248.667 76.258C247.653 75.6717 246.582 76.0402 246.109 76.3536C245.813 76.5484 245.733 76.9473 245.928 77.2414C246.053 77.427 246.259 77.5281 246.466 77.5281C246.589 77.5281 246.712 77.4941 246.821 77.4215C246.828 77.4178 247.442 77.0309 248.021 77.3654C248.326 77.541 248.721 77.4399 248.901 77.1338C249.079 76.8278 248.975 76.4354 248.667 76.258Z" fill="#393F49"/>
<path fill-rule="evenodd" clip-rule="evenodd" d="M257.386 81.8216C257.448 81.8216 257.513 81.8124 257.577 81.7931C258.371 81.5477 259.725 80.7711 259.755 79.4211C259.77 78.7465 259.497 78.3633 259.266 78.1611C258.763 77.72 258.099 77.8045 258.026 77.8165C257.679 77.8679 257.446 78.185 257.491 78.5315C257.536 78.877 257.839 79.1169 258.206 79.0847C258.268 79.0783 258.38 79.0893 258.416 79.1233C258.438 79.1426 258.472 79.2207 258.468 79.3926C258.451 80.1499 257.206 80.5653 257.193 80.5699C256.855 80.6765 256.667 81.0358 256.772 81.3722C256.859 81.646 257.112 81.8216 257.386 81.8216Z" fill="#393F49"/>
</mask>
<g mask="url(#mask4_5_4422)">
<rect x="-39.9478" y="-67.1997" width="412.167" height="407.581" rx="37.5506" fill="#475574"/>
</g>
</svg>
